M48
; DRILL file {KiCad 7.0.6} date Wed Aug  2 14:23:11 2023
; FORMAT={-:-/ absolute / inch / decimal}
; #@! TF.CreationDate,2023-08-02T14:23:11+01:00
; #@! TF.GenerationSoftware,Kicad,Pcbnew,7.0.6
; #@! TF.FileFunction,Plated,1,2,PTH
FMAT,2
INCH
; #@! TA.AperFunction,Plated,PTH,ComponentDrill
T1C0.0394
%
G90
G05
T1
X0.775Y-0.75
X0.775Y-0.85
X0.775Y-0.95
X0.775Y-1.05
X0.775Y-1.15
X0.775Y-1.25
X0.775Y-1.35
X0.775Y-1.45
X0.775Y-1.55
X0.775Y-1.65
X0.775Y-1.75
X0.775Y-1.85
X0.775Y-1.95
X0.775Y-2.05
X0.775Y-2.15
X0.775Y-2.25
X0.875Y-0.75
X0.875Y-0.85
X0.875Y-0.95
X0.875Y-1.05
X0.875Y-1.15
X0.875Y-1.25
X0.875Y-1.35
X0.875Y-1.45
X0.875Y-1.55
X0.875Y-1.65
X0.875Y-1.75
X0.875Y-1.85
X0.875Y-1.95
X0.875Y-2.05
X0.875Y-2.15
X0.875Y-2.25
T0
M30
