%TF.GenerationSoftware,KiCad,Pcbnew,7.0.6*%
%TF.CreationDate,2023-08-02T14:21:59+01:00*%
%TF.ProjectId,Outline,4f75746c-696e-4652-9e6b-696361645f70,rev?*%
%TF.SameCoordinates,Original*%
%TF.FileFunction,Copper,L1,Top*%
%TF.FilePolarity,Positive*%
%FSLAX46Y46*%
G04 Gerber Fmt 4.6, Leading zero omitted, Abs format (unit mm)*
G04 Created by KiCad (PCBNEW 7.0.6) date 2023-08-02 14:21:59*
%MOMM*%
%LPD*%
G01*
G04 APERTURE LIST*
%TA.AperFunction,SMDPad,CuDef*%
%ADD10C,2.000000*%
%TD*%
%TA.AperFunction,TestPad*%
%ADD11C,2.000000*%
%TD*%
%TA.AperFunction,ComponentPad*%
%ADD12R,1.700000X1.700000*%
%TD*%
%TA.AperFunction,ComponentPad*%
%ADD13O,1.700000X1.700000*%
%TD*%
%TA.AperFunction,Conductor*%
%ADD14C,0.250000*%
%TD*%
G04 APERTURE END LIST*
D10*
%TO.P,REF\u002A\u002A,1*%
%TO.N,EIT*%
X37465000Y-24130000D03*
X37465000Y-24130000D03*
X37465000Y-28130000D03*
X37465000Y-32130000D03*
X37465000Y-36130000D03*
X37465000Y-40130000D03*
X37465000Y-44130000D03*
X37465000Y-48130000D03*
X37465000Y-52130000D03*
D11*
X41465000Y-24130000D03*
D10*
X41465000Y-52130000D03*
X45465000Y-24130000D03*
X45465000Y-52130000D03*
X49465000Y-24130000D03*
X49465000Y-52130000D03*
X53465000Y-24130000D03*
X53465000Y-52130000D03*
X57465000Y-24130000D03*
X57465000Y-52130000D03*
X61465000Y-24130000D03*
X61465000Y-52130000D03*
X65465000Y-24130000D03*
X65465000Y-52130000D03*
X69465000Y-24130000D03*
X69465000Y-52130000D03*
X73465000Y-24130000D03*
X73465000Y-28130000D03*
X73465000Y-32130000D03*
X73465000Y-36130000D03*
X73465000Y-40130000D03*
X73465000Y-44130000D03*
X73465000Y-48130000D03*
X73465000Y-52130000D03*
%TD*%
D12*
%TO.P,REF\u002A\u002A,1*%
%TO.N,EIT*%
X19685000Y-19050000D03*
D13*
%TO.P,REF\u002A\u002A,2*%
X22225000Y-19050000D03*
%TO.P,REF\u002A\u002A,3*%
X19685000Y-21590000D03*
%TO.P,REF\u002A\u002A,4*%
X22225000Y-21590000D03*
%TO.P,REF\u002A\u002A,5*%
X19685000Y-24130000D03*
%TO.P,REF\u002A\u002A,6*%
X22225000Y-24130000D03*
%TO.P,REF\u002A\u002A,7*%
X19685000Y-26670000D03*
%TO.P,REF\u002A\u002A,8*%
X22225000Y-26670000D03*
%TO.P,REF\u002A\u002A,9*%
X19685000Y-29210000D03*
%TO.P,REF\u002A\u002A,10*%
X22225000Y-29210000D03*
%TO.P,REF\u002A\u002A,11*%
X19685000Y-31750000D03*
%TO.P,REF\u002A\u002A,12*%
X22225000Y-31750000D03*
%TO.P,REF\u002A\u002A,13*%
X19685000Y-34290000D03*
%TO.P,REF\u002A\u002A,14*%
X22225000Y-34290000D03*
%TO.P,REF\u002A\u002A,15*%
X19685000Y-36830000D03*
%TO.P,REF\u002A\u002A,16*%
X22225000Y-36830000D03*
%TO.P,REF\u002A\u002A,17*%
X19685000Y-39370000D03*
%TO.P,REF\u002A\u002A,18*%
X22225000Y-39370000D03*
%TO.P,REF\u002A\u002A,19*%
X19685000Y-41910000D03*
%TO.P,REF\u002A\u002A,20*%
X22225000Y-41910000D03*
%TO.P,REF\u002A\u002A,21*%
X19685000Y-44450000D03*
%TO.P,REF\u002A\u002A,22*%
X22225000Y-44450000D03*
%TO.P,REF\u002A\u002A,23*%
X19685000Y-46990000D03*
%TO.P,REF\u002A\u002A,24*%
X22225000Y-46990000D03*
%TO.P,REF\u002A\u002A,25*%
X19685000Y-49530000D03*
%TO.P,REF\u002A\u002A,26*%
X22225000Y-49530000D03*
%TO.P,REF\u002A\u002A,27*%
X19685000Y-52070000D03*
%TO.P,REF\u002A\u002A,28*%
X22225000Y-52070000D03*
%TO.P,REF\u002A\u002A,29*%
X19685000Y-54610000D03*
%TO.P,REF\u002A\u002A,30*%
X22225000Y-54610000D03*
%TO.P,REF\u002A\u002A,31*%
X19685000Y-57150000D03*
%TO.P,REF\u002A\u002A,32*%
X22225000Y-57150000D03*
%TD*%
D14*
%TO.N,EIT*%
X49465000Y-54675000D02*
X49465000Y-52130000D01*
X29845000Y-18415000D02*
X65405000Y-18415000D01*
X53340000Y-20320000D02*
X53465000Y-20445000D01*
X22225000Y-46990000D02*
X24130000Y-46990000D01*
X24130000Y-52070000D02*
X30480000Y-58420000D01*
X34925000Y-53975000D02*
X41275000Y-53975000D01*
X69465000Y-24130000D02*
X69465000Y-18030000D01*
X24130000Y-50800000D02*
X31115000Y-57785000D01*
X20955000Y-22860000D02*
X19685000Y-24130000D01*
X65465000Y-57090000D02*
X65465000Y-52130000D01*
X24130000Y-30480000D02*
X33020000Y-21590000D01*
X79375000Y-40640000D02*
X78865000Y-40130000D01*
X53465000Y-20445000D02*
X53465000Y-24130000D01*
X22225000Y-41910000D02*
X24130000Y-41910000D01*
X20955000Y-48260000D02*
X24130000Y-48260000D01*
X22225000Y-24130000D02*
X24130000Y-24130000D01*
X27560000Y-32130000D02*
X37465000Y-32130000D01*
X33020000Y-24130000D02*
X37465000Y-24130000D01*
X19685000Y-46990000D02*
X20955000Y-45720000D01*
X76200000Y-48260000D02*
X76070000Y-48130000D01*
X24130000Y-34290000D02*
X30290000Y-28130000D01*
X41275000Y-22225000D02*
X41465000Y-22415000D01*
X33020000Y-55880000D02*
X52705000Y-55880000D01*
X69215000Y-17780000D02*
X29210000Y-17780000D01*
X65465000Y-18475000D02*
X65465000Y-24130000D01*
X28575000Y-60325000D02*
X77470000Y-60325000D01*
X52705000Y-55880000D02*
X53465000Y-55120000D01*
X31620000Y-48130000D02*
X37465000Y-48130000D01*
X22225000Y-44450000D02*
X24130000Y-44450000D01*
X77470000Y-44450000D02*
X77150000Y-44130000D01*
X31115000Y-57785000D02*
X64770000Y-57785000D01*
X34350000Y-52130000D02*
X37465000Y-52130000D01*
X19685000Y-29210000D02*
X20955000Y-27940000D01*
X24130000Y-33020000D02*
X33020000Y-24130000D01*
X30480000Y-58420000D02*
X69215000Y-58420000D01*
X24130000Y-57150000D02*
X27940000Y-60960000D01*
X32385000Y-56515000D02*
X57150000Y-56515000D01*
X20955000Y-27940000D02*
X24130000Y-27940000D01*
X22225000Y-21590000D02*
X24130000Y-21590000D01*
X79375000Y-60960000D02*
X79375000Y-40640000D01*
X45465000Y-54230000D02*
X45465000Y-52130000D01*
X49465000Y-21525000D02*
X49465000Y-24130000D01*
X24130000Y-53340000D02*
X29845000Y-59055000D01*
X20955000Y-43180000D02*
X24130000Y-43180000D01*
X76200000Y-16510000D02*
X76200000Y-27940000D01*
X22225000Y-36830000D02*
X24130000Y-36830000D01*
X22225000Y-29210000D02*
X24130000Y-29210000D01*
X20955000Y-40640000D02*
X24130000Y-40640000D01*
X24130000Y-20320000D02*
X27940000Y-16510000D01*
X78865000Y-40130000D02*
X73465000Y-40130000D01*
X24130000Y-36830000D02*
X24830000Y-36130000D01*
X60960000Y-57150000D02*
X61465000Y-56645000D01*
X48895000Y-20955000D02*
X49465000Y-21525000D01*
X57465000Y-56200000D02*
X57465000Y-52130000D01*
X45465000Y-21970000D02*
X45465000Y-24130000D01*
X24130000Y-26670000D02*
X31115000Y-19685000D01*
X23495000Y-15240000D02*
X79375000Y-15240000D01*
X79375000Y-15240000D02*
X79375000Y-35560000D01*
X24130000Y-29210000D02*
X32385000Y-20955000D01*
X41465000Y-53785000D02*
X41465000Y-52130000D01*
X22225000Y-31750000D02*
X24130000Y-31750000D01*
X19685000Y-36830000D02*
X20955000Y-35560000D01*
X19685000Y-34290000D02*
X20955000Y-33020000D01*
X28575000Y-17145000D02*
X73025000Y-17145000D01*
X64770000Y-57785000D02*
X65465000Y-57090000D01*
X22225000Y-34290000D02*
X24130000Y-34290000D01*
X60960000Y-19050000D02*
X61465000Y-19555000D01*
X73025000Y-17145000D02*
X73465000Y-17585000D01*
X77470000Y-31750000D02*
X77090000Y-32130000D01*
X41275000Y-53975000D02*
X41465000Y-53785000D01*
X77090000Y-32130000D02*
X73465000Y-32130000D01*
X22225000Y-49530000D02*
X24130000Y-49530000D01*
X30290000Y-28130000D02*
X37465000Y-28130000D01*
X20955000Y-30480000D02*
X24130000Y-30480000D01*
X22225000Y-39370000D02*
X24130000Y-39370000D01*
X20955000Y-35560000D02*
X24130000Y-35560000D01*
X76070000Y-48130000D02*
X73465000Y-48130000D01*
X24130000Y-45720000D02*
X33655000Y-55245000D01*
X32385000Y-20955000D02*
X48895000Y-20955000D01*
X20955000Y-38100000D02*
X24130000Y-38100000D01*
X24130000Y-48260000D02*
X32385000Y-56515000D01*
X57150000Y-19685000D02*
X57465000Y-20000000D01*
X19685000Y-57150000D02*
X20955000Y-55880000D01*
X31750000Y-20320000D02*
X53340000Y-20320000D01*
X24130000Y-43180000D02*
X34925000Y-53975000D01*
X24130000Y-41910000D02*
X34350000Y-52130000D01*
X24130000Y-54610000D02*
X29210000Y-59690000D01*
X24130000Y-55880000D02*
X28575000Y-60325000D01*
X69465000Y-58170000D02*
X69465000Y-52130000D01*
X24130000Y-49530000D02*
X31750000Y-57150000D01*
X20955000Y-55880000D02*
X24130000Y-55880000D01*
X33655000Y-22225000D02*
X41275000Y-22225000D01*
X65405000Y-18415000D02*
X65465000Y-18475000D01*
X19685000Y-21590000D02*
X20955000Y-20320000D01*
X57465000Y-20000000D02*
X57465000Y-24130000D01*
X24130000Y-21590000D02*
X28575000Y-17145000D01*
X45085000Y-21590000D02*
X45465000Y-21970000D01*
X34290000Y-54610000D02*
X45085000Y-54610000D01*
X27940000Y-60960000D02*
X79375000Y-60960000D01*
X73465000Y-17585000D02*
X73465000Y-24130000D01*
X61465000Y-19555000D02*
X61465000Y-24130000D01*
X25400000Y-15875000D02*
X77470000Y-15875000D01*
X28890000Y-44130000D02*
X37465000Y-44130000D01*
X29210000Y-59690000D02*
X76200000Y-59690000D01*
X69215000Y-58420000D02*
X69465000Y-58170000D01*
X29210000Y-17780000D02*
X24130000Y-22860000D01*
X76010000Y-28130000D02*
X73465000Y-28130000D01*
X19685000Y-26670000D02*
X20955000Y-25400000D01*
X30480000Y-19050000D02*
X60960000Y-19050000D01*
X57150000Y-56515000D02*
X57465000Y-56200000D01*
X77470000Y-15875000D02*
X77470000Y-31750000D01*
X22225000Y-19050000D02*
X25400000Y-15875000D01*
X24130000Y-22860000D02*
X20955000Y-22860000D01*
X24130000Y-35560000D02*
X27560000Y-32130000D01*
X20955000Y-25400000D02*
X24130000Y-25400000D01*
X53465000Y-55120000D02*
X53465000Y-52130000D01*
X22225000Y-52070000D02*
X24130000Y-52070000D01*
X19685000Y-39370000D02*
X20955000Y-38100000D01*
X73465000Y-58615000D02*
X73465000Y-52130000D01*
X19685000Y-44450000D02*
X20955000Y-43180000D01*
X20955000Y-50800000D02*
X24130000Y-50800000D01*
X20955000Y-20320000D02*
X24130000Y-20320000D01*
X24130000Y-31750000D02*
X33655000Y-22225000D01*
X19685000Y-31750000D02*
X20955000Y-30480000D01*
X19685000Y-52070000D02*
X20955000Y-50800000D01*
X24130000Y-38100000D02*
X26160000Y-40130000D01*
X45085000Y-54610000D02*
X45465000Y-54230000D01*
X33020000Y-21590000D02*
X45085000Y-21590000D01*
X73025000Y-59055000D02*
X73465000Y-58615000D01*
X78805000Y-36130000D02*
X73465000Y-36130000D01*
X22225000Y-57150000D02*
X24130000Y-57150000D01*
X20955000Y-45720000D02*
X24130000Y-45720000D01*
X77150000Y-44130000D02*
X73465000Y-44130000D01*
X24130000Y-44450000D02*
X34290000Y-54610000D01*
X24130000Y-27940000D02*
X31750000Y-20320000D01*
X33655000Y-55245000D02*
X48895000Y-55245000D01*
X27940000Y-16510000D02*
X76200000Y-16510000D01*
X20955000Y-53340000D02*
X24130000Y-53340000D01*
X76200000Y-59690000D02*
X76200000Y-48260000D01*
X26160000Y-40130000D02*
X37465000Y-40130000D01*
X24130000Y-39370000D02*
X28890000Y-44130000D01*
X24130000Y-40640000D02*
X31620000Y-48130000D01*
X22225000Y-54610000D02*
X24130000Y-54610000D01*
X61465000Y-56645000D02*
X61465000Y-52130000D01*
X76200000Y-27940000D02*
X76010000Y-28130000D01*
X48895000Y-55245000D02*
X49465000Y-54675000D01*
X77470000Y-60325000D02*
X77470000Y-44450000D01*
X19685000Y-19050000D02*
X23495000Y-15240000D01*
X24830000Y-36130000D02*
X37465000Y-36130000D01*
X22225000Y-26670000D02*
X24130000Y-26670000D01*
X24130000Y-46990000D02*
X33020000Y-55880000D01*
X31115000Y-19685000D02*
X57150000Y-19685000D01*
X29845000Y-59055000D02*
X73025000Y-59055000D01*
X19685000Y-54610000D02*
X20955000Y-53340000D01*
X41465000Y-22415000D02*
X41465000Y-24130000D01*
X24130000Y-24130000D02*
X29845000Y-18415000D01*
X19685000Y-41910000D02*
X20955000Y-40640000D01*
X31750000Y-57150000D02*
X60960000Y-57150000D01*
X24130000Y-25400000D02*
X30480000Y-19050000D01*
X19685000Y-49530000D02*
X20955000Y-48260000D01*
X79375000Y-35560000D02*
X78805000Y-36130000D01*
X69465000Y-18030000D02*
X69215000Y-17780000D01*
X20955000Y-33020000D02*
X24130000Y-33020000D01*
%TD*%
M02*
