%TF.GenerationSoftware,KiCad,Pcbnew,7.0.6*%
%TF.CreationDate,2023-08-02T14:21:59+01:00*%
%TF.ProjectId,Outline,4f75746c-696e-4652-9e6b-696361645f70,rev?*%
%TF.SameCoordinates,Original*%
%TF.FileFunction,Soldermask,Top*%
%TF.FilePolarity,Negative*%
%FSLAX46Y46*%
G04 Gerber Fmt 4.6, Leading zero omitted, Abs format (unit mm)*
G04 Created by KiCad (PCBNEW 7.0.6) date 2023-08-02 14:21:59*
%MOMM*%
%LPD*%
G01*
G04 APERTURE LIST*
G04 APERTURE END LIST*
G36*
X19727369Y-56304656D02*
G01*
X19773849Y-56304656D01*
X19813981Y-56313186D01*
X19850731Y-56316806D01*
X19896905Y-56330812D01*
X19947664Y-56341602D01*
X19980143Y-56356062D01*
X20010094Y-56365148D01*
X20057683Y-56390585D01*
X20110000Y-56413878D01*
X20134326Y-56431552D01*
X20156965Y-56443653D01*
X20203148Y-56481554D01*
X20253761Y-56518327D01*
X20270192Y-56536575D01*
X20285698Y-56549301D01*
X20327369Y-56600077D01*
X20372664Y-56650383D01*
X20382180Y-56666865D01*
X20391346Y-56678034D01*
X20425252Y-56741467D01*
X20461514Y-56804274D01*
X20465684Y-56817110D01*
X20469851Y-56824905D01*
X20492825Y-56900643D01*
X20516425Y-56973275D01*
X20517255Y-56981177D01*
X20518193Y-56984268D01*
X20527311Y-57076849D01*
X20535000Y-57150000D01*
X20527310Y-57223157D01*
X20518193Y-57315731D01*
X20517255Y-57318820D01*
X20516425Y-57326725D01*
X20492821Y-57399370D01*
X20469851Y-57475094D01*
X20465685Y-57482886D01*
X20461514Y-57495726D01*
X20425245Y-57558544D01*
X20391346Y-57621965D01*
X20382182Y-57633131D01*
X20372664Y-57649617D01*
X20327359Y-57699932D01*
X20285698Y-57750698D01*
X20270195Y-57763420D01*
X20253761Y-57781673D01*
X20203138Y-57818452D01*
X20156965Y-57856346D01*
X20134331Y-57868443D01*
X20110000Y-57886122D01*
X20057672Y-57909419D01*
X20010094Y-57934851D01*
X19980150Y-57943934D01*
X19947664Y-57958398D01*
X19896894Y-57969189D01*
X19850731Y-57983193D01*
X19813990Y-57986811D01*
X19773849Y-57995344D01*
X19727359Y-57995344D01*
X19685000Y-57999516D01*
X19642641Y-57995344D01*
X19596151Y-57995344D01*
X19556010Y-57986811D01*
X19519268Y-57983193D01*
X19473102Y-57969188D01*
X19422336Y-57958398D01*
X19389851Y-57943935D01*
X19359905Y-57934851D01*
X19312321Y-57909416D01*
X19260000Y-57886122D01*
X19235670Y-57868445D01*
X19213034Y-57856346D01*
X19166853Y-57818446D01*
X19116239Y-57781673D01*
X19099807Y-57763423D01*
X19084301Y-57750698D01*
X19042628Y-57699920D01*
X18997336Y-57649617D01*
X18987820Y-57633135D01*
X18978653Y-57621965D01*
X18944741Y-57558521D01*
X18908486Y-57495726D01*
X18904315Y-57482891D01*
X18900148Y-57475094D01*
X18877163Y-57399324D01*
X18853575Y-57326725D01*
X18852744Y-57318825D01*
X18851806Y-57315731D01*
X18842673Y-57223006D01*
X18835000Y-57150000D01*
X18842672Y-57077000D01*
X18851806Y-56984268D01*
X18852744Y-56981172D01*
X18853575Y-56973275D01*
X18877159Y-56900689D01*
X18900148Y-56824905D01*
X18904316Y-56817106D01*
X18908486Y-56804274D01*
X18944734Y-56741491D01*
X18978653Y-56678034D01*
X18987822Y-56666861D01*
X18997336Y-56650383D01*
X19042619Y-56600090D01*
X19084301Y-56549301D01*
X19099810Y-56536572D01*
X19116239Y-56518327D01*
X19166842Y-56481561D01*
X19213034Y-56443653D01*
X19235676Y-56431550D01*
X19260000Y-56413878D01*
X19312310Y-56390588D01*
X19359905Y-56365148D01*
X19389858Y-56356061D01*
X19422336Y-56341602D01*
X19473091Y-56330813D01*
X19519268Y-56316806D01*
X19556019Y-56313186D01*
X19596151Y-56304656D01*
X19642630Y-56304656D01*
X19685000Y-56300483D01*
X19727369Y-56304656D01*
G37*
G36*
X22267369Y-56304656D02*
G01*
X22313849Y-56304656D01*
X22353981Y-56313186D01*
X22390731Y-56316806D01*
X22436905Y-56330812D01*
X22487664Y-56341602D01*
X22520143Y-56356062D01*
X22550094Y-56365148D01*
X22597683Y-56390585D01*
X22650000Y-56413878D01*
X22674326Y-56431552D01*
X22696965Y-56443653D01*
X22743148Y-56481554D01*
X22793761Y-56518327D01*
X22810192Y-56536575D01*
X22825698Y-56549301D01*
X22867369Y-56600077D01*
X22912664Y-56650383D01*
X22922180Y-56666865D01*
X22931346Y-56678034D01*
X22965252Y-56741467D01*
X23001514Y-56804274D01*
X23005684Y-56817110D01*
X23009851Y-56824905D01*
X23032825Y-56900643D01*
X23056425Y-56973275D01*
X23057255Y-56981177D01*
X23058193Y-56984268D01*
X23067311Y-57076849D01*
X23075000Y-57150000D01*
X23067310Y-57223157D01*
X23058193Y-57315731D01*
X23057255Y-57318820D01*
X23056425Y-57326725D01*
X23032821Y-57399370D01*
X23009851Y-57475094D01*
X23005685Y-57482886D01*
X23001514Y-57495726D01*
X22965245Y-57558544D01*
X22931346Y-57621965D01*
X22922182Y-57633131D01*
X22912664Y-57649617D01*
X22867359Y-57699932D01*
X22825698Y-57750698D01*
X22810195Y-57763420D01*
X22793761Y-57781673D01*
X22743138Y-57818452D01*
X22696965Y-57856346D01*
X22674331Y-57868443D01*
X22650000Y-57886122D01*
X22597672Y-57909419D01*
X22550094Y-57934851D01*
X22520150Y-57943934D01*
X22487664Y-57958398D01*
X22436894Y-57969189D01*
X22390731Y-57983193D01*
X22353990Y-57986811D01*
X22313849Y-57995344D01*
X22267359Y-57995344D01*
X22225000Y-57999516D01*
X22182641Y-57995344D01*
X22136151Y-57995344D01*
X22096010Y-57986811D01*
X22059268Y-57983193D01*
X22013102Y-57969188D01*
X21962336Y-57958398D01*
X21929851Y-57943935D01*
X21899905Y-57934851D01*
X21852321Y-57909416D01*
X21800000Y-57886122D01*
X21775670Y-57868445D01*
X21753034Y-57856346D01*
X21706853Y-57818446D01*
X21656239Y-57781673D01*
X21639807Y-57763423D01*
X21624301Y-57750698D01*
X21582628Y-57699920D01*
X21537336Y-57649617D01*
X21527820Y-57633135D01*
X21518653Y-57621965D01*
X21484741Y-57558521D01*
X21448486Y-57495726D01*
X21444315Y-57482891D01*
X21440148Y-57475094D01*
X21417163Y-57399324D01*
X21393575Y-57326725D01*
X21392744Y-57318825D01*
X21391806Y-57315731D01*
X21382673Y-57223006D01*
X21375000Y-57150000D01*
X21382672Y-57077000D01*
X21391806Y-56984268D01*
X21392744Y-56981172D01*
X21393575Y-56973275D01*
X21417159Y-56900689D01*
X21440148Y-56824905D01*
X21444316Y-56817106D01*
X21448486Y-56804274D01*
X21484734Y-56741491D01*
X21518653Y-56678034D01*
X21527822Y-56666861D01*
X21537336Y-56650383D01*
X21582619Y-56600090D01*
X21624301Y-56549301D01*
X21639810Y-56536572D01*
X21656239Y-56518327D01*
X21706842Y-56481561D01*
X21753034Y-56443653D01*
X21775676Y-56431550D01*
X21800000Y-56413878D01*
X21852310Y-56390588D01*
X21899905Y-56365148D01*
X21929858Y-56356061D01*
X21962336Y-56341602D01*
X22013091Y-56330813D01*
X22059268Y-56316806D01*
X22096019Y-56313186D01*
X22136151Y-56304656D01*
X22182630Y-56304656D01*
X22225000Y-56300483D01*
X22267369Y-56304656D01*
G37*
G36*
X19727369Y-53764656D02*
G01*
X19773849Y-53764656D01*
X19813981Y-53773186D01*
X19850731Y-53776806D01*
X19896905Y-53790812D01*
X19947664Y-53801602D01*
X19980143Y-53816062D01*
X20010094Y-53825148D01*
X20057683Y-53850585D01*
X20110000Y-53873878D01*
X20134326Y-53891552D01*
X20156965Y-53903653D01*
X20203148Y-53941554D01*
X20253761Y-53978327D01*
X20270192Y-53996575D01*
X20285698Y-54009301D01*
X20327369Y-54060077D01*
X20372664Y-54110383D01*
X20382180Y-54126865D01*
X20391346Y-54138034D01*
X20425252Y-54201467D01*
X20461514Y-54264274D01*
X20465684Y-54277110D01*
X20469851Y-54284905D01*
X20492825Y-54360643D01*
X20516425Y-54433275D01*
X20517255Y-54441177D01*
X20518193Y-54444268D01*
X20527311Y-54536849D01*
X20535000Y-54610000D01*
X20527310Y-54683157D01*
X20518193Y-54775731D01*
X20517255Y-54778820D01*
X20516425Y-54786725D01*
X20492821Y-54859370D01*
X20469851Y-54935094D01*
X20465685Y-54942886D01*
X20461514Y-54955726D01*
X20425245Y-55018544D01*
X20391346Y-55081965D01*
X20382182Y-55093131D01*
X20372664Y-55109617D01*
X20327359Y-55159932D01*
X20285698Y-55210698D01*
X20270195Y-55223420D01*
X20253761Y-55241673D01*
X20203138Y-55278452D01*
X20156965Y-55316346D01*
X20134331Y-55328443D01*
X20110000Y-55346122D01*
X20057672Y-55369419D01*
X20010094Y-55394851D01*
X19980150Y-55403934D01*
X19947664Y-55418398D01*
X19896894Y-55429189D01*
X19850731Y-55443193D01*
X19813990Y-55446811D01*
X19773849Y-55455344D01*
X19727359Y-55455344D01*
X19685000Y-55459516D01*
X19642641Y-55455344D01*
X19596151Y-55455344D01*
X19556010Y-55446811D01*
X19519268Y-55443193D01*
X19473102Y-55429188D01*
X19422336Y-55418398D01*
X19389851Y-55403935D01*
X19359905Y-55394851D01*
X19312321Y-55369416D01*
X19260000Y-55346122D01*
X19235670Y-55328445D01*
X19213034Y-55316346D01*
X19166853Y-55278446D01*
X19116239Y-55241673D01*
X19099807Y-55223423D01*
X19084301Y-55210698D01*
X19042628Y-55159920D01*
X18997336Y-55109617D01*
X18987820Y-55093135D01*
X18978653Y-55081965D01*
X18944741Y-55018521D01*
X18908486Y-54955726D01*
X18904315Y-54942891D01*
X18900148Y-54935094D01*
X18877163Y-54859324D01*
X18853575Y-54786725D01*
X18852744Y-54778825D01*
X18851806Y-54775731D01*
X18842673Y-54683006D01*
X18835000Y-54610000D01*
X18842672Y-54537000D01*
X18851806Y-54444268D01*
X18852744Y-54441172D01*
X18853575Y-54433275D01*
X18877159Y-54360689D01*
X18900148Y-54284905D01*
X18904316Y-54277106D01*
X18908486Y-54264274D01*
X18944734Y-54201491D01*
X18978653Y-54138034D01*
X18987822Y-54126861D01*
X18997336Y-54110383D01*
X19042619Y-54060090D01*
X19084301Y-54009301D01*
X19099810Y-53996572D01*
X19116239Y-53978327D01*
X19166842Y-53941561D01*
X19213034Y-53903653D01*
X19235676Y-53891550D01*
X19260000Y-53873878D01*
X19312310Y-53850588D01*
X19359905Y-53825148D01*
X19389858Y-53816061D01*
X19422336Y-53801602D01*
X19473091Y-53790813D01*
X19519268Y-53776806D01*
X19556019Y-53773186D01*
X19596151Y-53764656D01*
X19642630Y-53764656D01*
X19685000Y-53760483D01*
X19727369Y-53764656D01*
G37*
G36*
X22267369Y-53764656D02*
G01*
X22313849Y-53764656D01*
X22353981Y-53773186D01*
X22390731Y-53776806D01*
X22436905Y-53790812D01*
X22487664Y-53801602D01*
X22520143Y-53816062D01*
X22550094Y-53825148D01*
X22597683Y-53850585D01*
X22650000Y-53873878D01*
X22674326Y-53891552D01*
X22696965Y-53903653D01*
X22743148Y-53941554D01*
X22793761Y-53978327D01*
X22810192Y-53996575D01*
X22825698Y-54009301D01*
X22867369Y-54060077D01*
X22912664Y-54110383D01*
X22922180Y-54126865D01*
X22931346Y-54138034D01*
X22965252Y-54201467D01*
X23001514Y-54264274D01*
X23005684Y-54277110D01*
X23009851Y-54284905D01*
X23032825Y-54360643D01*
X23056425Y-54433275D01*
X23057255Y-54441177D01*
X23058193Y-54444268D01*
X23067311Y-54536849D01*
X23075000Y-54610000D01*
X23067310Y-54683157D01*
X23058193Y-54775731D01*
X23057255Y-54778820D01*
X23056425Y-54786725D01*
X23032821Y-54859370D01*
X23009851Y-54935094D01*
X23005685Y-54942886D01*
X23001514Y-54955726D01*
X22965245Y-55018544D01*
X22931346Y-55081965D01*
X22922182Y-55093131D01*
X22912664Y-55109617D01*
X22867359Y-55159932D01*
X22825698Y-55210698D01*
X22810195Y-55223420D01*
X22793761Y-55241673D01*
X22743138Y-55278452D01*
X22696965Y-55316346D01*
X22674331Y-55328443D01*
X22650000Y-55346122D01*
X22597672Y-55369419D01*
X22550094Y-55394851D01*
X22520150Y-55403934D01*
X22487664Y-55418398D01*
X22436894Y-55429189D01*
X22390731Y-55443193D01*
X22353990Y-55446811D01*
X22313849Y-55455344D01*
X22267359Y-55455344D01*
X22225000Y-55459516D01*
X22182641Y-55455344D01*
X22136151Y-55455344D01*
X22096010Y-55446811D01*
X22059268Y-55443193D01*
X22013102Y-55429188D01*
X21962336Y-55418398D01*
X21929851Y-55403935D01*
X21899905Y-55394851D01*
X21852321Y-55369416D01*
X21800000Y-55346122D01*
X21775670Y-55328445D01*
X21753034Y-55316346D01*
X21706853Y-55278446D01*
X21656239Y-55241673D01*
X21639807Y-55223423D01*
X21624301Y-55210698D01*
X21582628Y-55159920D01*
X21537336Y-55109617D01*
X21527820Y-55093135D01*
X21518653Y-55081965D01*
X21484741Y-55018521D01*
X21448486Y-54955726D01*
X21444315Y-54942891D01*
X21440148Y-54935094D01*
X21417163Y-54859324D01*
X21393575Y-54786725D01*
X21392744Y-54778825D01*
X21391806Y-54775731D01*
X21382673Y-54683006D01*
X21375000Y-54610000D01*
X21382672Y-54537000D01*
X21391806Y-54444268D01*
X21392744Y-54441172D01*
X21393575Y-54433275D01*
X21417159Y-54360689D01*
X21440148Y-54284905D01*
X21444316Y-54277106D01*
X21448486Y-54264274D01*
X21484734Y-54201491D01*
X21518653Y-54138034D01*
X21527822Y-54126861D01*
X21537336Y-54110383D01*
X21582619Y-54060090D01*
X21624301Y-54009301D01*
X21639810Y-53996572D01*
X21656239Y-53978327D01*
X21706842Y-53941561D01*
X21753034Y-53903653D01*
X21775676Y-53891550D01*
X21800000Y-53873878D01*
X21852310Y-53850588D01*
X21899905Y-53825148D01*
X21929858Y-53816061D01*
X21962336Y-53801602D01*
X22013091Y-53790813D01*
X22059268Y-53776806D01*
X22096019Y-53773186D01*
X22136151Y-53764656D01*
X22182630Y-53764656D01*
X22225000Y-53760483D01*
X22267369Y-53764656D01*
G37*
G36*
X37512638Y-51134692D02*
G01*
X37557230Y-51134692D01*
X37606890Y-51143975D01*
X37660090Y-51149215D01*
X37700508Y-51161475D01*
X37738545Y-51168586D01*
X37791223Y-51188993D01*
X37847683Y-51206120D01*
X37879940Y-51223361D01*
X37910545Y-51235218D01*
X37963722Y-51268144D01*
X38020570Y-51298530D01*
X38044456Y-51318133D01*
X38067377Y-51332325D01*
X38118163Y-51378622D01*
X38172107Y-51422893D01*
X38188091Y-51442370D01*
X38203691Y-51456591D01*
X38248978Y-51516561D01*
X38296470Y-51574430D01*
X38305653Y-51591611D01*
X38314855Y-51603796D01*
X38351462Y-51677313D01*
X38388880Y-51747317D01*
X38392870Y-51760472D01*
X38397071Y-51768908D01*
X38421884Y-51856118D01*
X38445785Y-51934910D01*
X38446570Y-51942882D01*
X38447552Y-51946333D01*
X38457753Y-52056424D01*
X38465000Y-52130000D01*
X38457752Y-52203581D01*
X38447552Y-52313666D01*
X38446570Y-52317116D01*
X38445785Y-52325090D01*
X38421879Y-52403897D01*
X38397071Y-52491091D01*
X38392871Y-52499524D01*
X38388880Y-52512683D01*
X38351455Y-52582700D01*
X38314855Y-52656203D01*
X38305655Y-52668385D01*
X38296470Y-52685570D01*
X38248968Y-52743450D01*
X38203691Y-52803408D01*
X38188094Y-52817625D01*
X38172107Y-52837107D01*
X38118152Y-52881386D01*
X38067377Y-52927674D01*
X38044461Y-52941862D01*
X38020570Y-52961470D01*
X37963710Y-52991861D01*
X37910545Y-53024781D01*
X37879947Y-53036634D01*
X37847683Y-53053880D01*
X37791211Y-53071010D01*
X37738545Y-53091413D01*
X37700515Y-53098522D01*
X37660090Y-53110785D01*
X37606887Y-53116025D01*
X37557230Y-53125308D01*
X37512638Y-53125308D01*
X37465000Y-53130000D01*
X37417362Y-53125308D01*
X37372770Y-53125308D01*
X37323112Y-53116025D01*
X37269910Y-53110785D01*
X37229485Y-53098522D01*
X37191454Y-53091413D01*
X37138783Y-53071008D01*
X37082317Y-53053880D01*
X37050055Y-53036635D01*
X37019454Y-53024781D01*
X36966281Y-52991857D01*
X36909430Y-52961470D01*
X36885541Y-52941865D01*
X36862622Y-52927674D01*
X36811837Y-52881377D01*
X36757893Y-52837107D01*
X36741908Y-52817629D01*
X36726308Y-52803408D01*
X36681018Y-52743435D01*
X36633530Y-52685570D01*
X36624346Y-52668389D01*
X36615144Y-52656203D01*
X36578530Y-52582672D01*
X36541120Y-52512683D01*
X36537130Y-52499530D01*
X36532928Y-52491091D01*
X36508104Y-52403843D01*
X36484215Y-52325090D01*
X36483430Y-52317121D01*
X36482447Y-52313666D01*
X36472230Y-52203410D01*
X36465000Y-52130000D01*
X36472229Y-52056595D01*
X36482447Y-51946333D01*
X36483430Y-51942876D01*
X36484215Y-51934910D01*
X36508099Y-51856171D01*
X36532928Y-51768908D01*
X36537130Y-51760467D01*
X36541120Y-51747317D01*
X36578522Y-51677340D01*
X36615144Y-51603796D01*
X36624348Y-51591606D01*
X36633530Y-51574430D01*
X36681009Y-51516576D01*
X36726308Y-51456591D01*
X36741911Y-51442366D01*
X36757893Y-51422893D01*
X36811826Y-51378631D01*
X36862622Y-51332325D01*
X36885546Y-51318130D01*
X36909430Y-51298530D01*
X36966269Y-51268148D01*
X37019454Y-51235218D01*
X37050062Y-51223360D01*
X37082317Y-51206120D01*
X37138771Y-51188994D01*
X37191454Y-51168586D01*
X37229492Y-51161475D01*
X37269910Y-51149215D01*
X37323109Y-51143975D01*
X37372770Y-51134692D01*
X37417362Y-51134692D01*
X37465000Y-51130000D01*
X37512638Y-51134692D01*
G37*
G36*
X41512638Y-51134692D02*
G01*
X41557230Y-51134692D01*
X41606890Y-51143975D01*
X41660090Y-51149215D01*
X41700508Y-51161475D01*
X41738545Y-51168586D01*
X41791223Y-51188993D01*
X41847683Y-51206120D01*
X41879940Y-51223361D01*
X41910545Y-51235218D01*
X41963722Y-51268144D01*
X42020570Y-51298530D01*
X42044456Y-51318133D01*
X42067377Y-51332325D01*
X42118163Y-51378622D01*
X42172107Y-51422893D01*
X42188091Y-51442370D01*
X42203691Y-51456591D01*
X42248978Y-51516561D01*
X42296470Y-51574430D01*
X42305653Y-51591611D01*
X42314855Y-51603796D01*
X42351462Y-51677313D01*
X42388880Y-51747317D01*
X42392870Y-51760472D01*
X42397071Y-51768908D01*
X42421884Y-51856118D01*
X42445785Y-51934910D01*
X42446570Y-51942882D01*
X42447552Y-51946333D01*
X42457753Y-52056424D01*
X42465000Y-52130000D01*
X42457752Y-52203581D01*
X42447552Y-52313666D01*
X42446570Y-52317116D01*
X42445785Y-52325090D01*
X42421879Y-52403897D01*
X42397071Y-52491091D01*
X42392871Y-52499524D01*
X42388880Y-52512683D01*
X42351455Y-52582700D01*
X42314855Y-52656203D01*
X42305655Y-52668385D01*
X42296470Y-52685570D01*
X42248968Y-52743450D01*
X42203691Y-52803408D01*
X42188094Y-52817625D01*
X42172107Y-52837107D01*
X42118152Y-52881386D01*
X42067377Y-52927674D01*
X42044461Y-52941862D01*
X42020570Y-52961470D01*
X41963710Y-52991861D01*
X41910545Y-53024781D01*
X41879947Y-53036634D01*
X41847683Y-53053880D01*
X41791211Y-53071010D01*
X41738545Y-53091413D01*
X41700515Y-53098522D01*
X41660090Y-53110785D01*
X41606887Y-53116025D01*
X41557230Y-53125308D01*
X41512638Y-53125308D01*
X41465000Y-53130000D01*
X41417362Y-53125308D01*
X41372770Y-53125308D01*
X41323112Y-53116025D01*
X41269910Y-53110785D01*
X41229485Y-53098522D01*
X41191454Y-53091413D01*
X41138783Y-53071008D01*
X41082317Y-53053880D01*
X41050055Y-53036635D01*
X41019454Y-53024781D01*
X40966281Y-52991857D01*
X40909430Y-52961470D01*
X40885541Y-52941865D01*
X40862622Y-52927674D01*
X40811837Y-52881377D01*
X40757893Y-52837107D01*
X40741908Y-52817629D01*
X40726308Y-52803408D01*
X40681018Y-52743435D01*
X40633530Y-52685570D01*
X40624346Y-52668389D01*
X40615144Y-52656203D01*
X40578530Y-52582672D01*
X40541120Y-52512683D01*
X40537130Y-52499530D01*
X40532928Y-52491091D01*
X40508104Y-52403843D01*
X40484215Y-52325090D01*
X40483430Y-52317121D01*
X40482447Y-52313666D01*
X40472230Y-52203410D01*
X40465000Y-52130000D01*
X40472229Y-52056595D01*
X40482447Y-51946333D01*
X40483430Y-51942876D01*
X40484215Y-51934910D01*
X40508099Y-51856171D01*
X40532928Y-51768908D01*
X40537130Y-51760467D01*
X40541120Y-51747317D01*
X40578522Y-51677340D01*
X40615144Y-51603796D01*
X40624348Y-51591606D01*
X40633530Y-51574430D01*
X40681009Y-51516576D01*
X40726308Y-51456591D01*
X40741911Y-51442366D01*
X40757893Y-51422893D01*
X40811826Y-51378631D01*
X40862622Y-51332325D01*
X40885546Y-51318130D01*
X40909430Y-51298530D01*
X40966269Y-51268148D01*
X41019454Y-51235218D01*
X41050062Y-51223360D01*
X41082317Y-51206120D01*
X41138771Y-51188994D01*
X41191454Y-51168586D01*
X41229492Y-51161475D01*
X41269910Y-51149215D01*
X41323109Y-51143975D01*
X41372770Y-51134692D01*
X41417362Y-51134692D01*
X41465000Y-51130000D01*
X41512638Y-51134692D01*
G37*
G36*
X45512638Y-51134692D02*
G01*
X45557230Y-51134692D01*
X45606890Y-51143975D01*
X45660090Y-51149215D01*
X45700508Y-51161475D01*
X45738545Y-51168586D01*
X45791223Y-51188993D01*
X45847683Y-51206120D01*
X45879940Y-51223361D01*
X45910545Y-51235218D01*
X45963722Y-51268144D01*
X46020570Y-51298530D01*
X46044456Y-51318133D01*
X46067377Y-51332325D01*
X46118163Y-51378622D01*
X46172107Y-51422893D01*
X46188091Y-51442370D01*
X46203691Y-51456591D01*
X46248978Y-51516561D01*
X46296470Y-51574430D01*
X46305653Y-51591611D01*
X46314855Y-51603796D01*
X46351462Y-51677313D01*
X46388880Y-51747317D01*
X46392870Y-51760472D01*
X46397071Y-51768908D01*
X46421884Y-51856118D01*
X46445785Y-51934910D01*
X46446570Y-51942882D01*
X46447552Y-51946333D01*
X46457753Y-52056424D01*
X46465000Y-52130000D01*
X46457752Y-52203581D01*
X46447552Y-52313666D01*
X46446570Y-52317116D01*
X46445785Y-52325090D01*
X46421879Y-52403897D01*
X46397071Y-52491091D01*
X46392871Y-52499524D01*
X46388880Y-52512683D01*
X46351455Y-52582700D01*
X46314855Y-52656203D01*
X46305655Y-52668385D01*
X46296470Y-52685570D01*
X46248968Y-52743450D01*
X46203691Y-52803408D01*
X46188094Y-52817625D01*
X46172107Y-52837107D01*
X46118152Y-52881386D01*
X46067377Y-52927674D01*
X46044461Y-52941862D01*
X46020570Y-52961470D01*
X45963710Y-52991861D01*
X45910545Y-53024781D01*
X45879947Y-53036634D01*
X45847683Y-53053880D01*
X45791211Y-53071010D01*
X45738545Y-53091413D01*
X45700515Y-53098522D01*
X45660090Y-53110785D01*
X45606887Y-53116025D01*
X45557230Y-53125308D01*
X45512638Y-53125308D01*
X45465000Y-53130000D01*
X45417362Y-53125308D01*
X45372770Y-53125308D01*
X45323112Y-53116025D01*
X45269910Y-53110785D01*
X45229485Y-53098522D01*
X45191454Y-53091413D01*
X45138783Y-53071008D01*
X45082317Y-53053880D01*
X45050055Y-53036635D01*
X45019454Y-53024781D01*
X44966281Y-52991857D01*
X44909430Y-52961470D01*
X44885541Y-52941865D01*
X44862622Y-52927674D01*
X44811837Y-52881377D01*
X44757893Y-52837107D01*
X44741908Y-52817629D01*
X44726308Y-52803408D01*
X44681018Y-52743435D01*
X44633530Y-52685570D01*
X44624346Y-52668389D01*
X44615144Y-52656203D01*
X44578530Y-52582672D01*
X44541120Y-52512683D01*
X44537130Y-52499530D01*
X44532928Y-52491091D01*
X44508104Y-52403843D01*
X44484215Y-52325090D01*
X44483430Y-52317121D01*
X44482447Y-52313666D01*
X44472230Y-52203410D01*
X44465000Y-52130000D01*
X44472229Y-52056595D01*
X44482447Y-51946333D01*
X44483430Y-51942876D01*
X44484215Y-51934910D01*
X44508099Y-51856171D01*
X44532928Y-51768908D01*
X44537130Y-51760467D01*
X44541120Y-51747317D01*
X44578522Y-51677340D01*
X44615144Y-51603796D01*
X44624348Y-51591606D01*
X44633530Y-51574430D01*
X44681009Y-51516576D01*
X44726308Y-51456591D01*
X44741911Y-51442366D01*
X44757893Y-51422893D01*
X44811826Y-51378631D01*
X44862622Y-51332325D01*
X44885546Y-51318130D01*
X44909430Y-51298530D01*
X44966269Y-51268148D01*
X45019454Y-51235218D01*
X45050062Y-51223360D01*
X45082317Y-51206120D01*
X45138771Y-51188994D01*
X45191454Y-51168586D01*
X45229492Y-51161475D01*
X45269910Y-51149215D01*
X45323109Y-51143975D01*
X45372770Y-51134692D01*
X45417362Y-51134692D01*
X45465000Y-51130000D01*
X45512638Y-51134692D01*
G37*
G36*
X49512638Y-51134692D02*
G01*
X49557230Y-51134692D01*
X49606890Y-51143975D01*
X49660090Y-51149215D01*
X49700508Y-51161475D01*
X49738545Y-51168586D01*
X49791223Y-51188993D01*
X49847683Y-51206120D01*
X49879940Y-51223361D01*
X49910545Y-51235218D01*
X49963722Y-51268144D01*
X50020570Y-51298530D01*
X50044456Y-51318133D01*
X50067377Y-51332325D01*
X50118163Y-51378622D01*
X50172107Y-51422893D01*
X50188091Y-51442370D01*
X50203691Y-51456591D01*
X50248978Y-51516561D01*
X50296470Y-51574430D01*
X50305653Y-51591611D01*
X50314855Y-51603796D01*
X50351462Y-51677313D01*
X50388880Y-51747317D01*
X50392870Y-51760472D01*
X50397071Y-51768908D01*
X50421884Y-51856118D01*
X50445785Y-51934910D01*
X50446570Y-51942882D01*
X50447552Y-51946333D01*
X50457753Y-52056424D01*
X50465000Y-52130000D01*
X50457752Y-52203581D01*
X50447552Y-52313666D01*
X50446570Y-52317116D01*
X50445785Y-52325090D01*
X50421879Y-52403897D01*
X50397071Y-52491091D01*
X50392871Y-52499524D01*
X50388880Y-52512683D01*
X50351455Y-52582700D01*
X50314855Y-52656203D01*
X50305655Y-52668385D01*
X50296470Y-52685570D01*
X50248968Y-52743450D01*
X50203691Y-52803408D01*
X50188094Y-52817625D01*
X50172107Y-52837107D01*
X50118152Y-52881386D01*
X50067377Y-52927674D01*
X50044461Y-52941862D01*
X50020570Y-52961470D01*
X49963710Y-52991861D01*
X49910545Y-53024781D01*
X49879947Y-53036634D01*
X49847683Y-53053880D01*
X49791211Y-53071010D01*
X49738545Y-53091413D01*
X49700515Y-53098522D01*
X49660090Y-53110785D01*
X49606887Y-53116025D01*
X49557230Y-53125308D01*
X49512638Y-53125308D01*
X49465000Y-53130000D01*
X49417362Y-53125308D01*
X49372770Y-53125308D01*
X49323112Y-53116025D01*
X49269910Y-53110785D01*
X49229485Y-53098522D01*
X49191454Y-53091413D01*
X49138783Y-53071008D01*
X49082317Y-53053880D01*
X49050055Y-53036635D01*
X49019454Y-53024781D01*
X48966281Y-52991857D01*
X48909430Y-52961470D01*
X48885541Y-52941865D01*
X48862622Y-52927674D01*
X48811837Y-52881377D01*
X48757893Y-52837107D01*
X48741908Y-52817629D01*
X48726308Y-52803408D01*
X48681018Y-52743435D01*
X48633530Y-52685570D01*
X48624346Y-52668389D01*
X48615144Y-52656203D01*
X48578530Y-52582672D01*
X48541120Y-52512683D01*
X48537130Y-52499530D01*
X48532928Y-52491091D01*
X48508104Y-52403843D01*
X48484215Y-52325090D01*
X48483430Y-52317121D01*
X48482447Y-52313666D01*
X48472230Y-52203410D01*
X48465000Y-52130000D01*
X48472229Y-52056595D01*
X48482447Y-51946333D01*
X48483430Y-51942876D01*
X48484215Y-51934910D01*
X48508099Y-51856171D01*
X48532928Y-51768908D01*
X48537130Y-51760467D01*
X48541120Y-51747317D01*
X48578522Y-51677340D01*
X48615144Y-51603796D01*
X48624348Y-51591606D01*
X48633530Y-51574430D01*
X48681009Y-51516576D01*
X48726308Y-51456591D01*
X48741911Y-51442366D01*
X48757893Y-51422893D01*
X48811826Y-51378631D01*
X48862622Y-51332325D01*
X48885546Y-51318130D01*
X48909430Y-51298530D01*
X48966269Y-51268148D01*
X49019454Y-51235218D01*
X49050062Y-51223360D01*
X49082317Y-51206120D01*
X49138771Y-51188994D01*
X49191454Y-51168586D01*
X49229492Y-51161475D01*
X49269910Y-51149215D01*
X49323109Y-51143975D01*
X49372770Y-51134692D01*
X49417362Y-51134692D01*
X49465000Y-51130000D01*
X49512638Y-51134692D01*
G37*
G36*
X53512638Y-51134692D02*
G01*
X53557230Y-51134692D01*
X53606890Y-51143975D01*
X53660090Y-51149215D01*
X53700508Y-51161475D01*
X53738545Y-51168586D01*
X53791223Y-51188993D01*
X53847683Y-51206120D01*
X53879940Y-51223361D01*
X53910545Y-51235218D01*
X53963722Y-51268144D01*
X54020570Y-51298530D01*
X54044456Y-51318133D01*
X54067377Y-51332325D01*
X54118163Y-51378622D01*
X54172107Y-51422893D01*
X54188091Y-51442370D01*
X54203691Y-51456591D01*
X54248978Y-51516561D01*
X54296470Y-51574430D01*
X54305653Y-51591611D01*
X54314855Y-51603796D01*
X54351462Y-51677313D01*
X54388880Y-51747317D01*
X54392870Y-51760472D01*
X54397071Y-51768908D01*
X54421884Y-51856118D01*
X54445785Y-51934910D01*
X54446570Y-51942882D01*
X54447552Y-51946333D01*
X54457753Y-52056424D01*
X54465000Y-52130000D01*
X54457752Y-52203581D01*
X54447552Y-52313666D01*
X54446570Y-52317116D01*
X54445785Y-52325090D01*
X54421879Y-52403897D01*
X54397071Y-52491091D01*
X54392871Y-52499524D01*
X54388880Y-52512683D01*
X54351455Y-52582700D01*
X54314855Y-52656203D01*
X54305655Y-52668385D01*
X54296470Y-52685570D01*
X54248968Y-52743450D01*
X54203691Y-52803408D01*
X54188094Y-52817625D01*
X54172107Y-52837107D01*
X54118152Y-52881386D01*
X54067377Y-52927674D01*
X54044461Y-52941862D01*
X54020570Y-52961470D01*
X53963710Y-52991861D01*
X53910545Y-53024781D01*
X53879947Y-53036634D01*
X53847683Y-53053880D01*
X53791211Y-53071010D01*
X53738545Y-53091413D01*
X53700515Y-53098522D01*
X53660090Y-53110785D01*
X53606887Y-53116025D01*
X53557230Y-53125308D01*
X53512638Y-53125308D01*
X53465000Y-53130000D01*
X53417362Y-53125308D01*
X53372770Y-53125308D01*
X53323112Y-53116025D01*
X53269910Y-53110785D01*
X53229485Y-53098522D01*
X53191454Y-53091413D01*
X53138783Y-53071008D01*
X53082317Y-53053880D01*
X53050055Y-53036635D01*
X53019454Y-53024781D01*
X52966281Y-52991857D01*
X52909430Y-52961470D01*
X52885541Y-52941865D01*
X52862622Y-52927674D01*
X52811837Y-52881377D01*
X52757893Y-52837107D01*
X52741908Y-52817629D01*
X52726308Y-52803408D01*
X52681018Y-52743435D01*
X52633530Y-52685570D01*
X52624346Y-52668389D01*
X52615144Y-52656203D01*
X52578530Y-52582672D01*
X52541120Y-52512683D01*
X52537130Y-52499530D01*
X52532928Y-52491091D01*
X52508104Y-52403843D01*
X52484215Y-52325090D01*
X52483430Y-52317121D01*
X52482447Y-52313666D01*
X52472230Y-52203410D01*
X52465000Y-52130000D01*
X52472229Y-52056595D01*
X52482447Y-51946333D01*
X52483430Y-51942876D01*
X52484215Y-51934910D01*
X52508099Y-51856171D01*
X52532928Y-51768908D01*
X52537130Y-51760467D01*
X52541120Y-51747317D01*
X52578522Y-51677340D01*
X52615144Y-51603796D01*
X52624348Y-51591606D01*
X52633530Y-51574430D01*
X52681009Y-51516576D01*
X52726308Y-51456591D01*
X52741911Y-51442366D01*
X52757893Y-51422893D01*
X52811826Y-51378631D01*
X52862622Y-51332325D01*
X52885546Y-51318130D01*
X52909430Y-51298530D01*
X52966269Y-51268148D01*
X53019454Y-51235218D01*
X53050062Y-51223360D01*
X53082317Y-51206120D01*
X53138771Y-51188994D01*
X53191454Y-51168586D01*
X53229492Y-51161475D01*
X53269910Y-51149215D01*
X53323109Y-51143975D01*
X53372770Y-51134692D01*
X53417362Y-51134692D01*
X53465000Y-51130000D01*
X53512638Y-51134692D01*
G37*
G36*
X57512638Y-51134692D02*
G01*
X57557230Y-51134692D01*
X57606890Y-51143975D01*
X57660090Y-51149215D01*
X57700508Y-51161475D01*
X57738545Y-51168586D01*
X57791223Y-51188993D01*
X57847683Y-51206120D01*
X57879940Y-51223361D01*
X57910545Y-51235218D01*
X57963722Y-51268144D01*
X58020570Y-51298530D01*
X58044456Y-51318133D01*
X58067377Y-51332325D01*
X58118163Y-51378622D01*
X58172107Y-51422893D01*
X58188091Y-51442370D01*
X58203691Y-51456591D01*
X58248978Y-51516561D01*
X58296470Y-51574430D01*
X58305653Y-51591611D01*
X58314855Y-51603796D01*
X58351462Y-51677313D01*
X58388880Y-51747317D01*
X58392870Y-51760472D01*
X58397071Y-51768908D01*
X58421884Y-51856118D01*
X58445785Y-51934910D01*
X58446570Y-51942882D01*
X58447552Y-51946333D01*
X58457753Y-52056424D01*
X58465000Y-52130000D01*
X58457752Y-52203581D01*
X58447552Y-52313666D01*
X58446570Y-52317116D01*
X58445785Y-52325090D01*
X58421879Y-52403897D01*
X58397071Y-52491091D01*
X58392871Y-52499524D01*
X58388880Y-52512683D01*
X58351455Y-52582700D01*
X58314855Y-52656203D01*
X58305655Y-52668385D01*
X58296470Y-52685570D01*
X58248968Y-52743450D01*
X58203691Y-52803408D01*
X58188094Y-52817625D01*
X58172107Y-52837107D01*
X58118152Y-52881386D01*
X58067377Y-52927674D01*
X58044461Y-52941862D01*
X58020570Y-52961470D01*
X57963710Y-52991861D01*
X57910545Y-53024781D01*
X57879947Y-53036634D01*
X57847683Y-53053880D01*
X57791211Y-53071010D01*
X57738545Y-53091413D01*
X57700515Y-53098522D01*
X57660090Y-53110785D01*
X57606887Y-53116025D01*
X57557230Y-53125308D01*
X57512638Y-53125308D01*
X57465000Y-53130000D01*
X57417362Y-53125308D01*
X57372770Y-53125308D01*
X57323112Y-53116025D01*
X57269910Y-53110785D01*
X57229485Y-53098522D01*
X57191454Y-53091413D01*
X57138783Y-53071008D01*
X57082317Y-53053880D01*
X57050055Y-53036635D01*
X57019454Y-53024781D01*
X56966281Y-52991857D01*
X56909430Y-52961470D01*
X56885541Y-52941865D01*
X56862622Y-52927674D01*
X56811837Y-52881377D01*
X56757893Y-52837107D01*
X56741908Y-52817629D01*
X56726308Y-52803408D01*
X56681018Y-52743435D01*
X56633530Y-52685570D01*
X56624346Y-52668389D01*
X56615144Y-52656203D01*
X56578530Y-52582672D01*
X56541120Y-52512683D01*
X56537130Y-52499530D01*
X56532928Y-52491091D01*
X56508104Y-52403843D01*
X56484215Y-52325090D01*
X56483430Y-52317121D01*
X56482447Y-52313666D01*
X56472230Y-52203410D01*
X56465000Y-52130000D01*
X56472229Y-52056595D01*
X56482447Y-51946333D01*
X56483430Y-51942876D01*
X56484215Y-51934910D01*
X56508099Y-51856171D01*
X56532928Y-51768908D01*
X56537130Y-51760467D01*
X56541120Y-51747317D01*
X56578522Y-51677340D01*
X56615144Y-51603796D01*
X56624348Y-51591606D01*
X56633530Y-51574430D01*
X56681009Y-51516576D01*
X56726308Y-51456591D01*
X56741911Y-51442366D01*
X56757893Y-51422893D01*
X56811826Y-51378631D01*
X56862622Y-51332325D01*
X56885546Y-51318130D01*
X56909430Y-51298530D01*
X56966269Y-51268148D01*
X57019454Y-51235218D01*
X57050062Y-51223360D01*
X57082317Y-51206120D01*
X57138771Y-51188994D01*
X57191454Y-51168586D01*
X57229492Y-51161475D01*
X57269910Y-51149215D01*
X57323109Y-51143975D01*
X57372770Y-51134692D01*
X57417362Y-51134692D01*
X57465000Y-51130000D01*
X57512638Y-51134692D01*
G37*
G36*
X61512638Y-51134692D02*
G01*
X61557230Y-51134692D01*
X61606890Y-51143975D01*
X61660090Y-51149215D01*
X61700508Y-51161475D01*
X61738545Y-51168586D01*
X61791223Y-51188993D01*
X61847683Y-51206120D01*
X61879940Y-51223361D01*
X61910545Y-51235218D01*
X61963722Y-51268144D01*
X62020570Y-51298530D01*
X62044456Y-51318133D01*
X62067377Y-51332325D01*
X62118163Y-51378622D01*
X62172107Y-51422893D01*
X62188091Y-51442370D01*
X62203691Y-51456591D01*
X62248978Y-51516561D01*
X62296470Y-51574430D01*
X62305653Y-51591611D01*
X62314855Y-51603796D01*
X62351462Y-51677313D01*
X62388880Y-51747317D01*
X62392870Y-51760472D01*
X62397071Y-51768908D01*
X62421884Y-51856118D01*
X62445785Y-51934910D01*
X62446570Y-51942882D01*
X62447552Y-51946333D01*
X62457753Y-52056424D01*
X62465000Y-52130000D01*
X62457752Y-52203581D01*
X62447552Y-52313666D01*
X62446570Y-52317116D01*
X62445785Y-52325090D01*
X62421879Y-52403897D01*
X62397071Y-52491091D01*
X62392871Y-52499524D01*
X62388880Y-52512683D01*
X62351455Y-52582700D01*
X62314855Y-52656203D01*
X62305655Y-52668385D01*
X62296470Y-52685570D01*
X62248968Y-52743450D01*
X62203691Y-52803408D01*
X62188094Y-52817625D01*
X62172107Y-52837107D01*
X62118152Y-52881386D01*
X62067377Y-52927674D01*
X62044461Y-52941862D01*
X62020570Y-52961470D01*
X61963710Y-52991861D01*
X61910545Y-53024781D01*
X61879947Y-53036634D01*
X61847683Y-53053880D01*
X61791211Y-53071010D01*
X61738545Y-53091413D01*
X61700515Y-53098522D01*
X61660090Y-53110785D01*
X61606887Y-53116025D01*
X61557230Y-53125308D01*
X61512638Y-53125308D01*
X61465000Y-53130000D01*
X61417362Y-53125308D01*
X61372770Y-53125308D01*
X61323112Y-53116025D01*
X61269910Y-53110785D01*
X61229485Y-53098522D01*
X61191454Y-53091413D01*
X61138783Y-53071008D01*
X61082317Y-53053880D01*
X61050055Y-53036635D01*
X61019454Y-53024781D01*
X60966281Y-52991857D01*
X60909430Y-52961470D01*
X60885541Y-52941865D01*
X60862622Y-52927674D01*
X60811837Y-52881377D01*
X60757893Y-52837107D01*
X60741908Y-52817629D01*
X60726308Y-52803408D01*
X60681018Y-52743435D01*
X60633530Y-52685570D01*
X60624346Y-52668389D01*
X60615144Y-52656203D01*
X60578530Y-52582672D01*
X60541120Y-52512683D01*
X60537130Y-52499530D01*
X60532928Y-52491091D01*
X60508104Y-52403843D01*
X60484215Y-52325090D01*
X60483430Y-52317121D01*
X60482447Y-52313666D01*
X60472230Y-52203410D01*
X60465000Y-52130000D01*
X60472229Y-52056595D01*
X60482447Y-51946333D01*
X60483430Y-51942876D01*
X60484215Y-51934910D01*
X60508099Y-51856171D01*
X60532928Y-51768908D01*
X60537130Y-51760467D01*
X60541120Y-51747317D01*
X60578522Y-51677340D01*
X60615144Y-51603796D01*
X60624348Y-51591606D01*
X60633530Y-51574430D01*
X60681009Y-51516576D01*
X60726308Y-51456591D01*
X60741911Y-51442366D01*
X60757893Y-51422893D01*
X60811826Y-51378631D01*
X60862622Y-51332325D01*
X60885546Y-51318130D01*
X60909430Y-51298530D01*
X60966269Y-51268148D01*
X61019454Y-51235218D01*
X61050062Y-51223360D01*
X61082317Y-51206120D01*
X61138771Y-51188994D01*
X61191454Y-51168586D01*
X61229492Y-51161475D01*
X61269910Y-51149215D01*
X61323109Y-51143975D01*
X61372770Y-51134692D01*
X61417362Y-51134692D01*
X61465000Y-51130000D01*
X61512638Y-51134692D01*
G37*
G36*
X65512638Y-51134692D02*
G01*
X65557230Y-51134692D01*
X65606890Y-51143975D01*
X65660090Y-51149215D01*
X65700508Y-51161475D01*
X65738545Y-51168586D01*
X65791223Y-51188993D01*
X65847683Y-51206120D01*
X65879940Y-51223361D01*
X65910545Y-51235218D01*
X65963722Y-51268144D01*
X66020570Y-51298530D01*
X66044456Y-51318133D01*
X66067377Y-51332325D01*
X66118163Y-51378622D01*
X66172107Y-51422893D01*
X66188091Y-51442370D01*
X66203691Y-51456591D01*
X66248978Y-51516561D01*
X66296470Y-51574430D01*
X66305653Y-51591611D01*
X66314855Y-51603796D01*
X66351462Y-51677313D01*
X66388880Y-51747317D01*
X66392870Y-51760472D01*
X66397071Y-51768908D01*
X66421884Y-51856118D01*
X66445785Y-51934910D01*
X66446570Y-51942882D01*
X66447552Y-51946333D01*
X66457753Y-52056424D01*
X66465000Y-52130000D01*
X66457752Y-52203581D01*
X66447552Y-52313666D01*
X66446570Y-52317116D01*
X66445785Y-52325090D01*
X66421879Y-52403897D01*
X66397071Y-52491091D01*
X66392871Y-52499524D01*
X66388880Y-52512683D01*
X66351455Y-52582700D01*
X66314855Y-52656203D01*
X66305655Y-52668385D01*
X66296470Y-52685570D01*
X66248968Y-52743450D01*
X66203691Y-52803408D01*
X66188094Y-52817625D01*
X66172107Y-52837107D01*
X66118152Y-52881386D01*
X66067377Y-52927674D01*
X66044461Y-52941862D01*
X66020570Y-52961470D01*
X65963710Y-52991861D01*
X65910545Y-53024781D01*
X65879947Y-53036634D01*
X65847683Y-53053880D01*
X65791211Y-53071010D01*
X65738545Y-53091413D01*
X65700515Y-53098522D01*
X65660090Y-53110785D01*
X65606887Y-53116025D01*
X65557230Y-53125308D01*
X65512638Y-53125308D01*
X65465000Y-53130000D01*
X65417362Y-53125308D01*
X65372770Y-53125308D01*
X65323112Y-53116025D01*
X65269910Y-53110785D01*
X65229485Y-53098522D01*
X65191454Y-53091413D01*
X65138783Y-53071008D01*
X65082317Y-53053880D01*
X65050055Y-53036635D01*
X65019454Y-53024781D01*
X64966281Y-52991857D01*
X64909430Y-52961470D01*
X64885541Y-52941865D01*
X64862622Y-52927674D01*
X64811837Y-52881377D01*
X64757893Y-52837107D01*
X64741908Y-52817629D01*
X64726308Y-52803408D01*
X64681018Y-52743435D01*
X64633530Y-52685570D01*
X64624346Y-52668389D01*
X64615144Y-52656203D01*
X64578530Y-52582672D01*
X64541120Y-52512683D01*
X64537130Y-52499530D01*
X64532928Y-52491091D01*
X64508104Y-52403843D01*
X64484215Y-52325090D01*
X64483430Y-52317121D01*
X64482447Y-52313666D01*
X64472231Y-52203419D01*
X64465000Y-52130000D01*
X64472228Y-52056605D01*
X64482447Y-51946333D01*
X64483430Y-51942876D01*
X64484215Y-51934910D01*
X64508099Y-51856171D01*
X64532928Y-51768908D01*
X64537130Y-51760467D01*
X64541120Y-51747317D01*
X64578522Y-51677340D01*
X64615144Y-51603796D01*
X64624348Y-51591606D01*
X64633530Y-51574430D01*
X64681009Y-51516576D01*
X64726308Y-51456591D01*
X64741911Y-51442366D01*
X64757893Y-51422893D01*
X64811826Y-51378631D01*
X64862622Y-51332325D01*
X64885546Y-51318130D01*
X64909430Y-51298530D01*
X64966269Y-51268148D01*
X65019454Y-51235218D01*
X65050062Y-51223360D01*
X65082317Y-51206120D01*
X65138771Y-51188994D01*
X65191454Y-51168586D01*
X65229492Y-51161475D01*
X65269910Y-51149215D01*
X65323109Y-51143975D01*
X65372770Y-51134692D01*
X65417362Y-51134692D01*
X65465000Y-51130000D01*
X65512638Y-51134692D01*
G37*
G36*
X69512638Y-51134692D02*
G01*
X69557230Y-51134692D01*
X69606890Y-51143975D01*
X69660090Y-51149215D01*
X69700508Y-51161475D01*
X69738545Y-51168586D01*
X69791223Y-51188993D01*
X69847683Y-51206120D01*
X69879940Y-51223361D01*
X69910545Y-51235218D01*
X69963722Y-51268144D01*
X70020570Y-51298530D01*
X70044456Y-51318133D01*
X70067377Y-51332325D01*
X70118163Y-51378622D01*
X70172107Y-51422893D01*
X70188091Y-51442370D01*
X70203691Y-51456591D01*
X70248978Y-51516561D01*
X70296470Y-51574430D01*
X70305653Y-51591611D01*
X70314855Y-51603796D01*
X70351462Y-51677313D01*
X70388880Y-51747317D01*
X70392870Y-51760472D01*
X70397071Y-51768908D01*
X70421884Y-51856118D01*
X70445785Y-51934910D01*
X70446570Y-51942882D01*
X70447552Y-51946333D01*
X70457753Y-52056424D01*
X70465000Y-52130000D01*
X70457752Y-52203581D01*
X70447552Y-52313666D01*
X70446570Y-52317116D01*
X70445785Y-52325090D01*
X70421879Y-52403897D01*
X70397071Y-52491091D01*
X70392871Y-52499524D01*
X70388880Y-52512683D01*
X70351455Y-52582700D01*
X70314855Y-52656203D01*
X70305655Y-52668385D01*
X70296470Y-52685570D01*
X70248968Y-52743450D01*
X70203691Y-52803408D01*
X70188094Y-52817625D01*
X70172107Y-52837107D01*
X70118152Y-52881386D01*
X70067377Y-52927674D01*
X70044461Y-52941862D01*
X70020570Y-52961470D01*
X69963710Y-52991861D01*
X69910545Y-53024781D01*
X69879947Y-53036634D01*
X69847683Y-53053880D01*
X69791211Y-53071010D01*
X69738545Y-53091413D01*
X69700515Y-53098522D01*
X69660090Y-53110785D01*
X69606887Y-53116025D01*
X69557230Y-53125308D01*
X69512638Y-53125308D01*
X69465000Y-53130000D01*
X69417362Y-53125308D01*
X69372770Y-53125308D01*
X69323112Y-53116025D01*
X69269910Y-53110785D01*
X69229485Y-53098522D01*
X69191454Y-53091413D01*
X69138783Y-53071008D01*
X69082317Y-53053880D01*
X69050055Y-53036635D01*
X69019454Y-53024781D01*
X68966281Y-52991857D01*
X68909430Y-52961470D01*
X68885541Y-52941865D01*
X68862622Y-52927674D01*
X68811837Y-52881377D01*
X68757893Y-52837107D01*
X68741908Y-52817629D01*
X68726308Y-52803408D01*
X68681018Y-52743435D01*
X68633530Y-52685570D01*
X68624346Y-52668389D01*
X68615144Y-52656203D01*
X68578530Y-52582672D01*
X68541120Y-52512683D01*
X68537130Y-52499530D01*
X68532928Y-52491091D01*
X68508104Y-52403843D01*
X68484215Y-52325090D01*
X68483430Y-52317121D01*
X68482447Y-52313666D01*
X68472231Y-52203419D01*
X68465000Y-52130000D01*
X68472228Y-52056605D01*
X68482447Y-51946333D01*
X68483430Y-51942876D01*
X68484215Y-51934910D01*
X68508099Y-51856171D01*
X68532928Y-51768908D01*
X68537130Y-51760467D01*
X68541120Y-51747317D01*
X68578522Y-51677340D01*
X68615144Y-51603796D01*
X68624348Y-51591606D01*
X68633530Y-51574430D01*
X68681009Y-51516576D01*
X68726308Y-51456591D01*
X68741911Y-51442366D01*
X68757893Y-51422893D01*
X68811826Y-51378631D01*
X68862622Y-51332325D01*
X68885546Y-51318130D01*
X68909430Y-51298530D01*
X68966269Y-51268148D01*
X69019454Y-51235218D01*
X69050062Y-51223360D01*
X69082317Y-51206120D01*
X69138771Y-51188994D01*
X69191454Y-51168586D01*
X69229492Y-51161475D01*
X69269910Y-51149215D01*
X69323109Y-51143975D01*
X69372770Y-51134692D01*
X69417362Y-51134692D01*
X69465000Y-51130000D01*
X69512638Y-51134692D01*
G37*
G36*
X73512638Y-51134692D02*
G01*
X73557230Y-51134692D01*
X73606890Y-51143975D01*
X73660090Y-51149215D01*
X73700508Y-51161475D01*
X73738545Y-51168586D01*
X73791223Y-51188993D01*
X73847683Y-51206120D01*
X73879940Y-51223361D01*
X73910545Y-51235218D01*
X73963722Y-51268144D01*
X74020570Y-51298530D01*
X74044456Y-51318133D01*
X74067377Y-51332325D01*
X74118163Y-51378622D01*
X74172107Y-51422893D01*
X74188091Y-51442370D01*
X74203691Y-51456591D01*
X74248978Y-51516561D01*
X74296470Y-51574430D01*
X74305653Y-51591611D01*
X74314855Y-51603796D01*
X74351462Y-51677313D01*
X74388880Y-51747317D01*
X74392870Y-51760472D01*
X74397071Y-51768908D01*
X74421884Y-51856118D01*
X74445785Y-51934910D01*
X74446570Y-51942882D01*
X74447552Y-51946333D01*
X74457753Y-52056424D01*
X74465000Y-52130000D01*
X74457752Y-52203581D01*
X74447552Y-52313666D01*
X74446570Y-52317116D01*
X74445785Y-52325090D01*
X74421879Y-52403897D01*
X74397071Y-52491091D01*
X74392871Y-52499524D01*
X74388880Y-52512683D01*
X74351455Y-52582700D01*
X74314855Y-52656203D01*
X74305655Y-52668385D01*
X74296470Y-52685570D01*
X74248968Y-52743450D01*
X74203691Y-52803408D01*
X74188094Y-52817625D01*
X74172107Y-52837107D01*
X74118152Y-52881386D01*
X74067377Y-52927674D01*
X74044461Y-52941862D01*
X74020570Y-52961470D01*
X73963710Y-52991861D01*
X73910545Y-53024781D01*
X73879947Y-53036634D01*
X73847683Y-53053880D01*
X73791211Y-53071010D01*
X73738545Y-53091413D01*
X73700515Y-53098522D01*
X73660090Y-53110785D01*
X73606887Y-53116025D01*
X73557230Y-53125308D01*
X73512638Y-53125308D01*
X73465000Y-53130000D01*
X73417362Y-53125308D01*
X73372770Y-53125308D01*
X73323112Y-53116025D01*
X73269910Y-53110785D01*
X73229485Y-53098522D01*
X73191454Y-53091413D01*
X73138783Y-53071008D01*
X73082317Y-53053880D01*
X73050055Y-53036635D01*
X73019454Y-53024781D01*
X72966281Y-52991857D01*
X72909430Y-52961470D01*
X72885541Y-52941865D01*
X72862622Y-52927674D01*
X72811837Y-52881377D01*
X72757893Y-52837107D01*
X72741908Y-52817629D01*
X72726308Y-52803408D01*
X72681018Y-52743435D01*
X72633530Y-52685570D01*
X72624346Y-52668389D01*
X72615144Y-52656203D01*
X72578530Y-52582672D01*
X72541120Y-52512683D01*
X72537130Y-52499530D01*
X72532928Y-52491091D01*
X72508104Y-52403843D01*
X72484215Y-52325090D01*
X72483430Y-52317121D01*
X72482447Y-52313666D01*
X72472231Y-52203419D01*
X72465000Y-52130000D01*
X72472228Y-52056605D01*
X72482447Y-51946333D01*
X72483430Y-51942876D01*
X72484215Y-51934910D01*
X72508099Y-51856171D01*
X72532928Y-51768908D01*
X72537130Y-51760467D01*
X72541120Y-51747317D01*
X72578522Y-51677340D01*
X72615144Y-51603796D01*
X72624348Y-51591606D01*
X72633530Y-51574430D01*
X72681009Y-51516576D01*
X72726308Y-51456591D01*
X72741911Y-51442366D01*
X72757893Y-51422893D01*
X72811826Y-51378631D01*
X72862622Y-51332325D01*
X72885546Y-51318130D01*
X72909430Y-51298530D01*
X72966269Y-51268148D01*
X73019454Y-51235218D01*
X73050062Y-51223360D01*
X73082317Y-51206120D01*
X73138771Y-51188994D01*
X73191454Y-51168586D01*
X73229492Y-51161475D01*
X73269910Y-51149215D01*
X73323109Y-51143975D01*
X73372770Y-51134692D01*
X73417362Y-51134692D01*
X73465000Y-51130000D01*
X73512638Y-51134692D01*
G37*
G36*
X19727369Y-51224656D02*
G01*
X19773849Y-51224656D01*
X19813981Y-51233186D01*
X19850731Y-51236806D01*
X19896905Y-51250812D01*
X19947664Y-51261602D01*
X19980143Y-51276062D01*
X20010094Y-51285148D01*
X20057683Y-51310585D01*
X20110000Y-51333878D01*
X20134326Y-51351552D01*
X20156965Y-51363653D01*
X20203148Y-51401554D01*
X20253761Y-51438327D01*
X20270192Y-51456575D01*
X20285698Y-51469301D01*
X20327369Y-51520077D01*
X20372664Y-51570383D01*
X20382180Y-51586865D01*
X20391346Y-51598034D01*
X20425252Y-51661467D01*
X20461514Y-51724274D01*
X20465684Y-51737110D01*
X20469851Y-51744905D01*
X20492825Y-51820643D01*
X20516425Y-51893275D01*
X20517255Y-51901177D01*
X20518193Y-51904268D01*
X20527311Y-51996849D01*
X20535000Y-52070000D01*
X20527310Y-52143157D01*
X20518193Y-52235731D01*
X20517255Y-52238820D01*
X20516425Y-52246725D01*
X20492821Y-52319370D01*
X20469851Y-52395094D01*
X20465685Y-52402886D01*
X20461514Y-52415726D01*
X20425245Y-52478544D01*
X20391346Y-52541965D01*
X20382182Y-52553131D01*
X20372664Y-52569617D01*
X20327359Y-52619932D01*
X20285698Y-52670698D01*
X20270195Y-52683420D01*
X20253761Y-52701673D01*
X20203138Y-52738452D01*
X20156965Y-52776346D01*
X20134331Y-52788443D01*
X20110000Y-52806122D01*
X20057672Y-52829419D01*
X20010094Y-52854851D01*
X19980150Y-52863934D01*
X19947664Y-52878398D01*
X19896894Y-52889189D01*
X19850731Y-52903193D01*
X19813990Y-52906811D01*
X19773849Y-52915344D01*
X19727359Y-52915344D01*
X19685000Y-52919516D01*
X19642641Y-52915344D01*
X19596151Y-52915344D01*
X19556010Y-52906811D01*
X19519268Y-52903193D01*
X19473102Y-52889188D01*
X19422336Y-52878398D01*
X19389851Y-52863935D01*
X19359905Y-52854851D01*
X19312321Y-52829416D01*
X19260000Y-52806122D01*
X19235670Y-52788445D01*
X19213034Y-52776346D01*
X19166853Y-52738446D01*
X19116239Y-52701673D01*
X19099807Y-52683423D01*
X19084301Y-52670698D01*
X19042628Y-52619920D01*
X18997336Y-52569617D01*
X18987820Y-52553135D01*
X18978653Y-52541965D01*
X18944741Y-52478521D01*
X18908486Y-52415726D01*
X18904315Y-52402891D01*
X18900148Y-52395094D01*
X18877163Y-52319324D01*
X18853575Y-52246725D01*
X18852744Y-52238825D01*
X18851806Y-52235731D01*
X18842673Y-52143006D01*
X18835000Y-52070000D01*
X18842672Y-51997000D01*
X18851806Y-51904268D01*
X18852744Y-51901172D01*
X18853575Y-51893275D01*
X18877159Y-51820689D01*
X18900148Y-51744905D01*
X18904316Y-51737106D01*
X18908486Y-51724274D01*
X18944734Y-51661491D01*
X18978653Y-51598034D01*
X18987822Y-51586861D01*
X18997336Y-51570383D01*
X19042619Y-51520090D01*
X19084301Y-51469301D01*
X19099810Y-51456572D01*
X19116239Y-51438327D01*
X19166842Y-51401561D01*
X19213034Y-51363653D01*
X19235676Y-51351550D01*
X19260000Y-51333878D01*
X19312310Y-51310588D01*
X19359905Y-51285148D01*
X19389858Y-51276061D01*
X19422336Y-51261602D01*
X19473091Y-51250813D01*
X19519268Y-51236806D01*
X19556019Y-51233186D01*
X19596151Y-51224656D01*
X19642630Y-51224656D01*
X19685000Y-51220483D01*
X19727369Y-51224656D01*
G37*
G36*
X22267369Y-51224656D02*
G01*
X22313849Y-51224656D01*
X22353981Y-51233186D01*
X22390731Y-51236806D01*
X22436905Y-51250812D01*
X22487664Y-51261602D01*
X22520143Y-51276062D01*
X22550094Y-51285148D01*
X22597683Y-51310585D01*
X22650000Y-51333878D01*
X22674326Y-51351552D01*
X22696965Y-51363653D01*
X22743148Y-51401554D01*
X22793761Y-51438327D01*
X22810192Y-51456575D01*
X22825698Y-51469301D01*
X22867369Y-51520077D01*
X22912664Y-51570383D01*
X22922180Y-51586865D01*
X22931346Y-51598034D01*
X22965252Y-51661467D01*
X23001514Y-51724274D01*
X23005684Y-51737110D01*
X23009851Y-51744905D01*
X23032825Y-51820643D01*
X23056425Y-51893275D01*
X23057255Y-51901177D01*
X23058193Y-51904268D01*
X23067311Y-51996849D01*
X23075000Y-52070000D01*
X23067310Y-52143157D01*
X23058193Y-52235731D01*
X23057255Y-52238820D01*
X23056425Y-52246725D01*
X23032821Y-52319370D01*
X23009851Y-52395094D01*
X23005685Y-52402886D01*
X23001514Y-52415726D01*
X22965245Y-52478544D01*
X22931346Y-52541965D01*
X22922182Y-52553131D01*
X22912664Y-52569617D01*
X22867359Y-52619932D01*
X22825698Y-52670698D01*
X22810195Y-52683420D01*
X22793761Y-52701673D01*
X22743138Y-52738452D01*
X22696965Y-52776346D01*
X22674331Y-52788443D01*
X22650000Y-52806122D01*
X22597672Y-52829419D01*
X22550094Y-52854851D01*
X22520150Y-52863934D01*
X22487664Y-52878398D01*
X22436894Y-52889189D01*
X22390731Y-52903193D01*
X22353990Y-52906811D01*
X22313849Y-52915344D01*
X22267359Y-52915344D01*
X22225000Y-52919516D01*
X22182641Y-52915344D01*
X22136151Y-52915344D01*
X22096010Y-52906811D01*
X22059268Y-52903193D01*
X22013102Y-52889188D01*
X21962336Y-52878398D01*
X21929851Y-52863935D01*
X21899905Y-52854851D01*
X21852321Y-52829416D01*
X21800000Y-52806122D01*
X21775670Y-52788445D01*
X21753034Y-52776346D01*
X21706853Y-52738446D01*
X21656239Y-52701673D01*
X21639807Y-52683423D01*
X21624301Y-52670698D01*
X21582628Y-52619920D01*
X21537336Y-52569617D01*
X21527820Y-52553135D01*
X21518653Y-52541965D01*
X21484741Y-52478521D01*
X21448486Y-52415726D01*
X21444315Y-52402891D01*
X21440148Y-52395094D01*
X21417163Y-52319324D01*
X21393575Y-52246725D01*
X21392744Y-52238825D01*
X21391806Y-52235731D01*
X21382673Y-52143006D01*
X21375000Y-52070000D01*
X21382672Y-51997000D01*
X21391806Y-51904268D01*
X21392744Y-51901172D01*
X21393575Y-51893275D01*
X21417159Y-51820689D01*
X21440148Y-51744905D01*
X21444316Y-51737106D01*
X21448486Y-51724274D01*
X21484734Y-51661491D01*
X21518653Y-51598034D01*
X21527822Y-51586861D01*
X21537336Y-51570383D01*
X21582619Y-51520090D01*
X21624301Y-51469301D01*
X21639810Y-51456572D01*
X21656239Y-51438327D01*
X21706842Y-51401561D01*
X21753034Y-51363653D01*
X21775676Y-51351550D01*
X21800000Y-51333878D01*
X21852310Y-51310588D01*
X21899905Y-51285148D01*
X21929858Y-51276061D01*
X21962336Y-51261602D01*
X22013091Y-51250813D01*
X22059268Y-51236806D01*
X22096019Y-51233186D01*
X22136151Y-51224656D01*
X22182630Y-51224656D01*
X22225000Y-51220483D01*
X22267369Y-51224656D01*
G37*
G36*
X19727369Y-48684656D02*
G01*
X19773849Y-48684656D01*
X19813981Y-48693186D01*
X19850731Y-48696806D01*
X19896905Y-48710812D01*
X19947664Y-48721602D01*
X19980143Y-48736062D01*
X20010094Y-48745148D01*
X20057683Y-48770585D01*
X20110000Y-48793878D01*
X20134326Y-48811552D01*
X20156965Y-48823653D01*
X20203148Y-48861554D01*
X20253761Y-48898327D01*
X20270192Y-48916575D01*
X20285698Y-48929301D01*
X20327369Y-48980077D01*
X20372664Y-49030383D01*
X20382180Y-49046865D01*
X20391346Y-49058034D01*
X20425252Y-49121467D01*
X20461514Y-49184274D01*
X20465684Y-49197110D01*
X20469851Y-49204905D01*
X20492825Y-49280643D01*
X20516425Y-49353275D01*
X20517255Y-49361177D01*
X20518193Y-49364268D01*
X20527311Y-49456849D01*
X20535000Y-49530000D01*
X20527310Y-49603157D01*
X20518193Y-49695731D01*
X20517255Y-49698820D01*
X20516425Y-49706725D01*
X20492821Y-49779370D01*
X20469851Y-49855094D01*
X20465685Y-49862886D01*
X20461514Y-49875726D01*
X20425245Y-49938544D01*
X20391346Y-50001965D01*
X20382182Y-50013131D01*
X20372664Y-50029617D01*
X20327359Y-50079932D01*
X20285698Y-50130698D01*
X20270195Y-50143420D01*
X20253761Y-50161673D01*
X20203138Y-50198452D01*
X20156965Y-50236346D01*
X20134331Y-50248443D01*
X20110000Y-50266122D01*
X20057672Y-50289419D01*
X20010094Y-50314851D01*
X19980150Y-50323934D01*
X19947664Y-50338398D01*
X19896894Y-50349189D01*
X19850731Y-50363193D01*
X19813990Y-50366811D01*
X19773849Y-50375344D01*
X19727359Y-50375344D01*
X19685000Y-50379516D01*
X19642641Y-50375344D01*
X19596151Y-50375344D01*
X19556010Y-50366811D01*
X19519268Y-50363193D01*
X19473102Y-50349188D01*
X19422336Y-50338398D01*
X19389851Y-50323935D01*
X19359905Y-50314851D01*
X19312321Y-50289416D01*
X19260000Y-50266122D01*
X19235670Y-50248445D01*
X19213034Y-50236346D01*
X19166853Y-50198446D01*
X19116239Y-50161673D01*
X19099807Y-50143423D01*
X19084301Y-50130698D01*
X19042628Y-50079920D01*
X18997336Y-50029617D01*
X18987820Y-50013135D01*
X18978653Y-50001965D01*
X18944741Y-49938521D01*
X18908486Y-49875726D01*
X18904315Y-49862891D01*
X18900148Y-49855094D01*
X18877163Y-49779324D01*
X18853575Y-49706725D01*
X18852744Y-49698825D01*
X18851806Y-49695731D01*
X18842673Y-49603006D01*
X18835000Y-49530000D01*
X18842672Y-49457000D01*
X18851806Y-49364268D01*
X18852744Y-49361172D01*
X18853575Y-49353275D01*
X18877159Y-49280689D01*
X18900148Y-49204905D01*
X18904316Y-49197106D01*
X18908486Y-49184274D01*
X18944734Y-49121491D01*
X18978653Y-49058034D01*
X18987822Y-49046861D01*
X18997336Y-49030383D01*
X19042619Y-48980090D01*
X19084301Y-48929301D01*
X19099810Y-48916572D01*
X19116239Y-48898327D01*
X19166842Y-48861561D01*
X19213034Y-48823653D01*
X19235676Y-48811550D01*
X19260000Y-48793878D01*
X19312310Y-48770588D01*
X19359905Y-48745148D01*
X19389858Y-48736061D01*
X19422336Y-48721602D01*
X19473091Y-48710813D01*
X19519268Y-48696806D01*
X19556019Y-48693186D01*
X19596151Y-48684656D01*
X19642630Y-48684656D01*
X19685000Y-48680483D01*
X19727369Y-48684656D01*
G37*
G36*
X22267369Y-48684656D02*
G01*
X22313849Y-48684656D01*
X22353981Y-48693186D01*
X22390731Y-48696806D01*
X22436905Y-48710812D01*
X22487664Y-48721602D01*
X22520143Y-48736062D01*
X22550094Y-48745148D01*
X22597683Y-48770585D01*
X22650000Y-48793878D01*
X22674326Y-48811552D01*
X22696965Y-48823653D01*
X22743148Y-48861554D01*
X22793761Y-48898327D01*
X22810192Y-48916575D01*
X22825698Y-48929301D01*
X22867369Y-48980077D01*
X22912664Y-49030383D01*
X22922180Y-49046865D01*
X22931346Y-49058034D01*
X22965252Y-49121467D01*
X23001514Y-49184274D01*
X23005684Y-49197110D01*
X23009851Y-49204905D01*
X23032825Y-49280643D01*
X23056425Y-49353275D01*
X23057255Y-49361177D01*
X23058193Y-49364268D01*
X23067311Y-49456849D01*
X23075000Y-49530000D01*
X23067310Y-49603157D01*
X23058193Y-49695731D01*
X23057255Y-49698820D01*
X23056425Y-49706725D01*
X23032821Y-49779370D01*
X23009851Y-49855094D01*
X23005685Y-49862886D01*
X23001514Y-49875726D01*
X22965245Y-49938544D01*
X22931346Y-50001965D01*
X22922182Y-50013131D01*
X22912664Y-50029617D01*
X22867359Y-50079932D01*
X22825698Y-50130698D01*
X22810195Y-50143420D01*
X22793761Y-50161673D01*
X22743138Y-50198452D01*
X22696965Y-50236346D01*
X22674331Y-50248443D01*
X22650000Y-50266122D01*
X22597672Y-50289419D01*
X22550094Y-50314851D01*
X22520150Y-50323934D01*
X22487664Y-50338398D01*
X22436894Y-50349189D01*
X22390731Y-50363193D01*
X22353990Y-50366811D01*
X22313849Y-50375344D01*
X22267359Y-50375344D01*
X22225000Y-50379516D01*
X22182641Y-50375344D01*
X22136151Y-50375344D01*
X22096010Y-50366811D01*
X22059268Y-50363193D01*
X22013102Y-50349188D01*
X21962336Y-50338398D01*
X21929851Y-50323935D01*
X21899905Y-50314851D01*
X21852321Y-50289416D01*
X21800000Y-50266122D01*
X21775670Y-50248445D01*
X21753034Y-50236346D01*
X21706853Y-50198446D01*
X21656239Y-50161673D01*
X21639807Y-50143423D01*
X21624301Y-50130698D01*
X21582628Y-50079920D01*
X21537336Y-50029617D01*
X21527820Y-50013135D01*
X21518653Y-50001965D01*
X21484741Y-49938521D01*
X21448486Y-49875726D01*
X21444315Y-49862891D01*
X21440148Y-49855094D01*
X21417163Y-49779324D01*
X21393575Y-49706725D01*
X21392744Y-49698825D01*
X21391806Y-49695731D01*
X21382673Y-49603006D01*
X21375000Y-49530000D01*
X21382672Y-49457000D01*
X21391806Y-49364268D01*
X21392744Y-49361172D01*
X21393575Y-49353275D01*
X21417159Y-49280689D01*
X21440148Y-49204905D01*
X21444316Y-49197106D01*
X21448486Y-49184274D01*
X21484734Y-49121491D01*
X21518653Y-49058034D01*
X21527822Y-49046861D01*
X21537336Y-49030383D01*
X21582619Y-48980090D01*
X21624301Y-48929301D01*
X21639810Y-48916572D01*
X21656239Y-48898327D01*
X21706842Y-48861561D01*
X21753034Y-48823653D01*
X21775676Y-48811550D01*
X21800000Y-48793878D01*
X21852310Y-48770588D01*
X21899905Y-48745148D01*
X21929858Y-48736061D01*
X21962336Y-48721602D01*
X22013091Y-48710813D01*
X22059268Y-48696806D01*
X22096019Y-48693186D01*
X22136151Y-48684656D01*
X22182630Y-48684656D01*
X22225000Y-48680483D01*
X22267369Y-48684656D01*
G37*
G36*
X37512638Y-47134692D02*
G01*
X37557230Y-47134692D01*
X37606890Y-47143975D01*
X37660090Y-47149215D01*
X37700508Y-47161475D01*
X37738545Y-47168586D01*
X37791223Y-47188993D01*
X37847683Y-47206120D01*
X37879940Y-47223361D01*
X37910545Y-47235218D01*
X37963722Y-47268144D01*
X38020570Y-47298530D01*
X38044456Y-47318133D01*
X38067377Y-47332325D01*
X38118163Y-47378622D01*
X38172107Y-47422893D01*
X38188091Y-47442370D01*
X38203691Y-47456591D01*
X38248978Y-47516561D01*
X38296470Y-47574430D01*
X38305653Y-47591611D01*
X38314855Y-47603796D01*
X38351462Y-47677313D01*
X38388880Y-47747317D01*
X38392870Y-47760472D01*
X38397071Y-47768908D01*
X38421884Y-47856118D01*
X38445785Y-47934910D01*
X38446570Y-47942882D01*
X38447552Y-47946333D01*
X38457753Y-48056424D01*
X38465000Y-48130000D01*
X38457752Y-48203581D01*
X38447552Y-48313666D01*
X38446570Y-48317116D01*
X38445785Y-48325090D01*
X38421879Y-48403897D01*
X38397071Y-48491091D01*
X38392871Y-48499524D01*
X38388880Y-48512683D01*
X38351455Y-48582700D01*
X38314855Y-48656203D01*
X38305655Y-48668385D01*
X38296470Y-48685570D01*
X38248968Y-48743450D01*
X38203691Y-48803408D01*
X38188094Y-48817625D01*
X38172107Y-48837107D01*
X38118152Y-48881386D01*
X38067377Y-48927674D01*
X38044461Y-48941862D01*
X38020570Y-48961470D01*
X37963710Y-48991861D01*
X37910545Y-49024781D01*
X37879947Y-49036634D01*
X37847683Y-49053880D01*
X37791211Y-49071010D01*
X37738545Y-49091413D01*
X37700515Y-49098522D01*
X37660090Y-49110785D01*
X37606887Y-49116025D01*
X37557230Y-49125308D01*
X37512638Y-49125308D01*
X37465000Y-49130000D01*
X37417362Y-49125308D01*
X37372770Y-49125308D01*
X37323112Y-49116025D01*
X37269910Y-49110785D01*
X37229485Y-49098522D01*
X37191454Y-49091413D01*
X37138783Y-49071008D01*
X37082317Y-49053880D01*
X37050055Y-49036635D01*
X37019454Y-49024781D01*
X36966281Y-48991857D01*
X36909430Y-48961470D01*
X36885541Y-48941865D01*
X36862622Y-48927674D01*
X36811837Y-48881377D01*
X36757893Y-48837107D01*
X36741908Y-48817629D01*
X36726308Y-48803408D01*
X36681018Y-48743435D01*
X36633530Y-48685570D01*
X36624346Y-48668389D01*
X36615144Y-48656203D01*
X36578530Y-48582672D01*
X36541120Y-48512683D01*
X36537130Y-48499530D01*
X36532928Y-48491091D01*
X36508104Y-48403843D01*
X36484215Y-48325090D01*
X36483430Y-48317121D01*
X36482447Y-48313666D01*
X36472230Y-48203410D01*
X36465000Y-48130000D01*
X36472229Y-48056595D01*
X36482447Y-47946333D01*
X36483430Y-47942876D01*
X36484215Y-47934910D01*
X36508099Y-47856171D01*
X36532928Y-47768908D01*
X36537130Y-47760467D01*
X36541120Y-47747317D01*
X36578522Y-47677340D01*
X36615144Y-47603796D01*
X36624348Y-47591606D01*
X36633530Y-47574430D01*
X36681009Y-47516576D01*
X36726308Y-47456591D01*
X36741911Y-47442366D01*
X36757893Y-47422893D01*
X36811826Y-47378631D01*
X36862622Y-47332325D01*
X36885546Y-47318130D01*
X36909430Y-47298530D01*
X36966269Y-47268148D01*
X37019454Y-47235218D01*
X37050062Y-47223360D01*
X37082317Y-47206120D01*
X37138771Y-47188994D01*
X37191454Y-47168586D01*
X37229492Y-47161475D01*
X37269910Y-47149215D01*
X37323109Y-47143975D01*
X37372770Y-47134692D01*
X37417362Y-47134692D01*
X37465000Y-47130000D01*
X37512638Y-47134692D01*
G37*
G36*
X73512638Y-47134692D02*
G01*
X73557230Y-47134692D01*
X73606890Y-47143975D01*
X73660090Y-47149215D01*
X73700508Y-47161475D01*
X73738545Y-47168586D01*
X73791223Y-47188993D01*
X73847683Y-47206120D01*
X73879940Y-47223361D01*
X73910545Y-47235218D01*
X73963722Y-47268144D01*
X74020570Y-47298530D01*
X74044456Y-47318133D01*
X74067377Y-47332325D01*
X74118163Y-47378622D01*
X74172107Y-47422893D01*
X74188091Y-47442370D01*
X74203691Y-47456591D01*
X74248978Y-47516561D01*
X74296470Y-47574430D01*
X74305653Y-47591611D01*
X74314855Y-47603796D01*
X74351462Y-47677313D01*
X74388880Y-47747317D01*
X74392870Y-47760472D01*
X74397071Y-47768908D01*
X74421884Y-47856118D01*
X74445785Y-47934910D01*
X74446570Y-47942882D01*
X74447552Y-47946333D01*
X74457753Y-48056424D01*
X74465000Y-48130000D01*
X74457752Y-48203581D01*
X74447552Y-48313666D01*
X74446570Y-48317116D01*
X74445785Y-48325090D01*
X74421879Y-48403897D01*
X74397071Y-48491091D01*
X74392871Y-48499524D01*
X74388880Y-48512683D01*
X74351455Y-48582700D01*
X74314855Y-48656203D01*
X74305655Y-48668385D01*
X74296470Y-48685570D01*
X74248968Y-48743450D01*
X74203691Y-48803408D01*
X74188094Y-48817625D01*
X74172107Y-48837107D01*
X74118152Y-48881386D01*
X74067377Y-48927674D01*
X74044461Y-48941862D01*
X74020570Y-48961470D01*
X73963710Y-48991861D01*
X73910545Y-49024781D01*
X73879947Y-49036634D01*
X73847683Y-49053880D01*
X73791211Y-49071010D01*
X73738545Y-49091413D01*
X73700515Y-49098522D01*
X73660090Y-49110785D01*
X73606887Y-49116025D01*
X73557230Y-49125308D01*
X73512638Y-49125308D01*
X73465000Y-49130000D01*
X73417362Y-49125308D01*
X73372770Y-49125308D01*
X73323112Y-49116025D01*
X73269910Y-49110785D01*
X73229485Y-49098522D01*
X73191454Y-49091413D01*
X73138783Y-49071008D01*
X73082317Y-49053880D01*
X73050055Y-49036635D01*
X73019454Y-49024781D01*
X72966281Y-48991857D01*
X72909430Y-48961470D01*
X72885541Y-48941865D01*
X72862622Y-48927674D01*
X72811837Y-48881377D01*
X72757893Y-48837107D01*
X72741908Y-48817629D01*
X72726308Y-48803408D01*
X72681018Y-48743435D01*
X72633530Y-48685570D01*
X72624346Y-48668389D01*
X72615144Y-48656203D01*
X72578530Y-48582672D01*
X72541120Y-48512683D01*
X72537130Y-48499530D01*
X72532928Y-48491091D01*
X72508104Y-48403843D01*
X72484215Y-48325090D01*
X72483430Y-48317121D01*
X72482447Y-48313666D01*
X72472231Y-48203419D01*
X72465000Y-48130000D01*
X72472228Y-48056605D01*
X72482447Y-47946333D01*
X72483430Y-47942876D01*
X72484215Y-47934910D01*
X72508099Y-47856171D01*
X72532928Y-47768908D01*
X72537130Y-47760467D01*
X72541120Y-47747317D01*
X72578522Y-47677340D01*
X72615144Y-47603796D01*
X72624348Y-47591606D01*
X72633530Y-47574430D01*
X72681009Y-47516576D01*
X72726308Y-47456591D01*
X72741911Y-47442366D01*
X72757893Y-47422893D01*
X72811826Y-47378631D01*
X72862622Y-47332325D01*
X72885546Y-47318130D01*
X72909430Y-47298530D01*
X72966269Y-47268148D01*
X73019454Y-47235218D01*
X73050062Y-47223360D01*
X73082317Y-47206120D01*
X73138771Y-47188994D01*
X73191454Y-47168586D01*
X73229492Y-47161475D01*
X73269910Y-47149215D01*
X73323109Y-47143975D01*
X73372770Y-47134692D01*
X73417362Y-47134692D01*
X73465000Y-47130000D01*
X73512638Y-47134692D01*
G37*
G36*
X19727369Y-46144656D02*
G01*
X19773849Y-46144656D01*
X19813981Y-46153186D01*
X19850731Y-46156806D01*
X19896905Y-46170812D01*
X19947664Y-46181602D01*
X19980143Y-46196062D01*
X20010094Y-46205148D01*
X20057683Y-46230585D01*
X20110000Y-46253878D01*
X20134326Y-46271552D01*
X20156965Y-46283653D01*
X20203148Y-46321554D01*
X20253761Y-46358327D01*
X20270192Y-46376575D01*
X20285698Y-46389301D01*
X20327369Y-46440077D01*
X20372664Y-46490383D01*
X20382180Y-46506865D01*
X20391346Y-46518034D01*
X20425252Y-46581467D01*
X20461514Y-46644274D01*
X20465684Y-46657110D01*
X20469851Y-46664905D01*
X20492825Y-46740643D01*
X20516425Y-46813275D01*
X20517255Y-46821177D01*
X20518193Y-46824268D01*
X20527311Y-46916849D01*
X20535000Y-46990000D01*
X20527310Y-47063157D01*
X20518193Y-47155731D01*
X20517255Y-47158820D01*
X20516425Y-47166725D01*
X20492821Y-47239370D01*
X20469851Y-47315094D01*
X20465685Y-47322886D01*
X20461514Y-47335726D01*
X20425245Y-47398544D01*
X20391346Y-47461965D01*
X20382182Y-47473131D01*
X20372664Y-47489617D01*
X20327359Y-47539932D01*
X20285698Y-47590698D01*
X20270195Y-47603420D01*
X20253761Y-47621673D01*
X20203138Y-47658452D01*
X20156965Y-47696346D01*
X20134331Y-47708443D01*
X20110000Y-47726122D01*
X20057672Y-47749419D01*
X20010094Y-47774851D01*
X19980150Y-47783934D01*
X19947664Y-47798398D01*
X19896894Y-47809189D01*
X19850731Y-47823193D01*
X19813990Y-47826811D01*
X19773849Y-47835344D01*
X19727359Y-47835344D01*
X19685000Y-47839516D01*
X19642641Y-47835344D01*
X19596151Y-47835344D01*
X19556010Y-47826811D01*
X19519268Y-47823193D01*
X19473102Y-47809188D01*
X19422336Y-47798398D01*
X19389851Y-47783935D01*
X19359905Y-47774851D01*
X19312321Y-47749416D01*
X19260000Y-47726122D01*
X19235670Y-47708445D01*
X19213034Y-47696346D01*
X19166853Y-47658446D01*
X19116239Y-47621673D01*
X19099807Y-47603423D01*
X19084301Y-47590698D01*
X19042628Y-47539920D01*
X18997336Y-47489617D01*
X18987820Y-47473135D01*
X18978653Y-47461965D01*
X18944741Y-47398521D01*
X18908486Y-47335726D01*
X18904315Y-47322891D01*
X18900148Y-47315094D01*
X18877163Y-47239324D01*
X18853575Y-47166725D01*
X18852744Y-47158825D01*
X18851806Y-47155731D01*
X18842673Y-47063006D01*
X18835000Y-46990000D01*
X18842672Y-46917000D01*
X18851806Y-46824268D01*
X18852744Y-46821172D01*
X18853575Y-46813275D01*
X18877159Y-46740689D01*
X18900148Y-46664905D01*
X18904316Y-46657106D01*
X18908486Y-46644274D01*
X18944734Y-46581491D01*
X18978653Y-46518034D01*
X18987822Y-46506861D01*
X18997336Y-46490383D01*
X19042619Y-46440090D01*
X19084301Y-46389301D01*
X19099810Y-46376572D01*
X19116239Y-46358327D01*
X19166842Y-46321561D01*
X19213034Y-46283653D01*
X19235676Y-46271550D01*
X19260000Y-46253878D01*
X19312310Y-46230588D01*
X19359905Y-46205148D01*
X19389858Y-46196061D01*
X19422336Y-46181602D01*
X19473091Y-46170813D01*
X19519268Y-46156806D01*
X19556019Y-46153186D01*
X19596151Y-46144656D01*
X19642630Y-46144656D01*
X19685000Y-46140483D01*
X19727369Y-46144656D01*
G37*
G36*
X22267369Y-46144656D02*
G01*
X22313849Y-46144656D01*
X22353981Y-46153186D01*
X22390731Y-46156806D01*
X22436905Y-46170812D01*
X22487664Y-46181602D01*
X22520143Y-46196062D01*
X22550094Y-46205148D01*
X22597683Y-46230585D01*
X22650000Y-46253878D01*
X22674326Y-46271552D01*
X22696965Y-46283653D01*
X22743148Y-46321554D01*
X22793761Y-46358327D01*
X22810192Y-46376575D01*
X22825698Y-46389301D01*
X22867369Y-46440077D01*
X22912664Y-46490383D01*
X22922180Y-46506865D01*
X22931346Y-46518034D01*
X22965252Y-46581467D01*
X23001514Y-46644274D01*
X23005684Y-46657110D01*
X23009851Y-46664905D01*
X23032825Y-46740643D01*
X23056425Y-46813275D01*
X23057255Y-46821177D01*
X23058193Y-46824268D01*
X23067311Y-46916849D01*
X23075000Y-46990000D01*
X23067310Y-47063157D01*
X23058193Y-47155731D01*
X23057255Y-47158820D01*
X23056425Y-47166725D01*
X23032821Y-47239370D01*
X23009851Y-47315094D01*
X23005685Y-47322886D01*
X23001514Y-47335726D01*
X22965245Y-47398544D01*
X22931346Y-47461965D01*
X22922182Y-47473131D01*
X22912664Y-47489617D01*
X22867359Y-47539932D01*
X22825698Y-47590698D01*
X22810195Y-47603420D01*
X22793761Y-47621673D01*
X22743138Y-47658452D01*
X22696965Y-47696346D01*
X22674331Y-47708443D01*
X22650000Y-47726122D01*
X22597672Y-47749419D01*
X22550094Y-47774851D01*
X22520150Y-47783934D01*
X22487664Y-47798398D01*
X22436894Y-47809189D01*
X22390731Y-47823193D01*
X22353990Y-47826811D01*
X22313849Y-47835344D01*
X22267359Y-47835344D01*
X22225000Y-47839516D01*
X22182641Y-47835344D01*
X22136151Y-47835344D01*
X22096010Y-47826811D01*
X22059268Y-47823193D01*
X22013102Y-47809188D01*
X21962336Y-47798398D01*
X21929851Y-47783935D01*
X21899905Y-47774851D01*
X21852321Y-47749416D01*
X21800000Y-47726122D01*
X21775670Y-47708445D01*
X21753034Y-47696346D01*
X21706853Y-47658446D01*
X21656239Y-47621673D01*
X21639807Y-47603423D01*
X21624301Y-47590698D01*
X21582628Y-47539920D01*
X21537336Y-47489617D01*
X21527820Y-47473135D01*
X21518653Y-47461965D01*
X21484741Y-47398521D01*
X21448486Y-47335726D01*
X21444315Y-47322891D01*
X21440148Y-47315094D01*
X21417163Y-47239324D01*
X21393575Y-47166725D01*
X21392744Y-47158825D01*
X21391806Y-47155731D01*
X21382673Y-47063006D01*
X21375000Y-46990000D01*
X21382672Y-46917000D01*
X21391806Y-46824268D01*
X21392744Y-46821172D01*
X21393575Y-46813275D01*
X21417159Y-46740689D01*
X21440148Y-46664905D01*
X21444316Y-46657106D01*
X21448486Y-46644274D01*
X21484734Y-46581491D01*
X21518653Y-46518034D01*
X21527822Y-46506861D01*
X21537336Y-46490383D01*
X21582619Y-46440090D01*
X21624301Y-46389301D01*
X21639810Y-46376572D01*
X21656239Y-46358327D01*
X21706842Y-46321561D01*
X21753034Y-46283653D01*
X21775676Y-46271550D01*
X21800000Y-46253878D01*
X21852310Y-46230588D01*
X21899905Y-46205148D01*
X21929858Y-46196061D01*
X21962336Y-46181602D01*
X22013091Y-46170813D01*
X22059268Y-46156806D01*
X22096019Y-46153186D01*
X22136151Y-46144656D01*
X22182630Y-46144656D01*
X22225000Y-46140483D01*
X22267369Y-46144656D01*
G37*
G36*
X19727369Y-43604656D02*
G01*
X19773849Y-43604656D01*
X19813981Y-43613186D01*
X19850731Y-43616806D01*
X19896905Y-43630812D01*
X19947664Y-43641602D01*
X19980143Y-43656062D01*
X20010094Y-43665148D01*
X20057683Y-43690585D01*
X20110000Y-43713878D01*
X20134326Y-43731552D01*
X20156965Y-43743653D01*
X20203148Y-43781554D01*
X20253761Y-43818327D01*
X20270192Y-43836575D01*
X20285698Y-43849301D01*
X20327369Y-43900077D01*
X20372664Y-43950383D01*
X20382180Y-43966865D01*
X20391346Y-43978034D01*
X20425252Y-44041467D01*
X20461514Y-44104274D01*
X20465684Y-44117110D01*
X20469851Y-44124905D01*
X20492825Y-44200643D01*
X20516425Y-44273275D01*
X20517255Y-44281177D01*
X20518193Y-44284268D01*
X20527311Y-44376849D01*
X20535000Y-44450000D01*
X20527310Y-44523157D01*
X20518193Y-44615731D01*
X20517255Y-44618820D01*
X20516425Y-44626725D01*
X20492821Y-44699370D01*
X20469851Y-44775094D01*
X20465685Y-44782886D01*
X20461514Y-44795726D01*
X20425245Y-44858544D01*
X20391346Y-44921965D01*
X20382182Y-44933131D01*
X20372664Y-44949617D01*
X20327359Y-44999932D01*
X20285698Y-45050698D01*
X20270195Y-45063420D01*
X20253761Y-45081673D01*
X20203138Y-45118452D01*
X20156965Y-45156346D01*
X20134331Y-45168443D01*
X20110000Y-45186122D01*
X20057672Y-45209419D01*
X20010094Y-45234851D01*
X19980150Y-45243934D01*
X19947664Y-45258398D01*
X19896894Y-45269189D01*
X19850731Y-45283193D01*
X19813990Y-45286811D01*
X19773849Y-45295344D01*
X19727359Y-45295344D01*
X19685000Y-45299516D01*
X19642641Y-45295344D01*
X19596151Y-45295344D01*
X19556010Y-45286811D01*
X19519268Y-45283193D01*
X19473102Y-45269188D01*
X19422336Y-45258398D01*
X19389851Y-45243935D01*
X19359905Y-45234851D01*
X19312321Y-45209416D01*
X19260000Y-45186122D01*
X19235670Y-45168445D01*
X19213034Y-45156346D01*
X19166853Y-45118446D01*
X19116239Y-45081673D01*
X19099807Y-45063423D01*
X19084301Y-45050698D01*
X19042628Y-44999920D01*
X18997336Y-44949617D01*
X18987820Y-44933135D01*
X18978653Y-44921965D01*
X18944741Y-44858521D01*
X18908486Y-44795726D01*
X18904315Y-44782891D01*
X18900148Y-44775094D01*
X18877163Y-44699324D01*
X18853575Y-44626725D01*
X18852744Y-44618825D01*
X18851806Y-44615731D01*
X18842673Y-44523006D01*
X18835000Y-44450000D01*
X18842672Y-44377000D01*
X18851806Y-44284268D01*
X18852744Y-44281172D01*
X18853575Y-44273275D01*
X18877159Y-44200689D01*
X18900148Y-44124905D01*
X18904316Y-44117106D01*
X18908486Y-44104274D01*
X18944734Y-44041491D01*
X18978653Y-43978034D01*
X18987822Y-43966861D01*
X18997336Y-43950383D01*
X19042619Y-43900090D01*
X19084301Y-43849301D01*
X19099810Y-43836572D01*
X19116239Y-43818327D01*
X19166842Y-43781561D01*
X19213034Y-43743653D01*
X19235676Y-43731550D01*
X19260000Y-43713878D01*
X19312310Y-43690588D01*
X19359905Y-43665148D01*
X19389858Y-43656061D01*
X19422336Y-43641602D01*
X19473091Y-43630813D01*
X19519268Y-43616806D01*
X19556019Y-43613186D01*
X19596151Y-43604656D01*
X19642630Y-43604656D01*
X19685000Y-43600483D01*
X19727369Y-43604656D01*
G37*
G36*
X22267369Y-43604656D02*
G01*
X22313849Y-43604656D01*
X22353981Y-43613186D01*
X22390731Y-43616806D01*
X22436905Y-43630812D01*
X22487664Y-43641602D01*
X22520143Y-43656062D01*
X22550094Y-43665148D01*
X22597683Y-43690585D01*
X22650000Y-43713878D01*
X22674326Y-43731552D01*
X22696965Y-43743653D01*
X22743148Y-43781554D01*
X22793761Y-43818327D01*
X22810192Y-43836575D01*
X22825698Y-43849301D01*
X22867369Y-43900077D01*
X22912664Y-43950383D01*
X22922180Y-43966865D01*
X22931346Y-43978034D01*
X22965252Y-44041467D01*
X23001514Y-44104274D01*
X23005684Y-44117110D01*
X23009851Y-44124905D01*
X23032825Y-44200643D01*
X23056425Y-44273275D01*
X23057255Y-44281177D01*
X23058193Y-44284268D01*
X23067311Y-44376849D01*
X23075000Y-44450000D01*
X23067310Y-44523157D01*
X23058193Y-44615731D01*
X23057255Y-44618820D01*
X23056425Y-44626725D01*
X23032821Y-44699370D01*
X23009851Y-44775094D01*
X23005685Y-44782886D01*
X23001514Y-44795726D01*
X22965245Y-44858544D01*
X22931346Y-44921965D01*
X22922182Y-44933131D01*
X22912664Y-44949617D01*
X22867359Y-44999932D01*
X22825698Y-45050698D01*
X22810195Y-45063420D01*
X22793761Y-45081673D01*
X22743138Y-45118452D01*
X22696965Y-45156346D01*
X22674331Y-45168443D01*
X22650000Y-45186122D01*
X22597672Y-45209419D01*
X22550094Y-45234851D01*
X22520150Y-45243934D01*
X22487664Y-45258398D01*
X22436894Y-45269189D01*
X22390731Y-45283193D01*
X22353990Y-45286811D01*
X22313849Y-45295344D01*
X22267359Y-45295344D01*
X22225000Y-45299516D01*
X22182641Y-45295344D01*
X22136151Y-45295344D01*
X22096010Y-45286811D01*
X22059268Y-45283193D01*
X22013102Y-45269188D01*
X21962336Y-45258398D01*
X21929851Y-45243935D01*
X21899905Y-45234851D01*
X21852321Y-45209416D01*
X21800000Y-45186122D01*
X21775670Y-45168445D01*
X21753034Y-45156346D01*
X21706853Y-45118446D01*
X21656239Y-45081673D01*
X21639807Y-45063423D01*
X21624301Y-45050698D01*
X21582628Y-44999920D01*
X21537336Y-44949617D01*
X21527820Y-44933135D01*
X21518653Y-44921965D01*
X21484741Y-44858521D01*
X21448486Y-44795726D01*
X21444315Y-44782891D01*
X21440148Y-44775094D01*
X21417163Y-44699324D01*
X21393575Y-44626725D01*
X21392744Y-44618825D01*
X21391806Y-44615731D01*
X21382673Y-44523006D01*
X21375000Y-44450000D01*
X21382672Y-44377000D01*
X21391806Y-44284268D01*
X21392744Y-44281172D01*
X21393575Y-44273275D01*
X21417159Y-44200689D01*
X21440148Y-44124905D01*
X21444316Y-44117106D01*
X21448486Y-44104274D01*
X21484734Y-44041491D01*
X21518653Y-43978034D01*
X21527822Y-43966861D01*
X21537336Y-43950383D01*
X21582619Y-43900090D01*
X21624301Y-43849301D01*
X21639810Y-43836572D01*
X21656239Y-43818327D01*
X21706842Y-43781561D01*
X21753034Y-43743653D01*
X21775676Y-43731550D01*
X21800000Y-43713878D01*
X21852310Y-43690588D01*
X21899905Y-43665148D01*
X21929858Y-43656061D01*
X21962336Y-43641602D01*
X22013091Y-43630813D01*
X22059268Y-43616806D01*
X22096019Y-43613186D01*
X22136151Y-43604656D01*
X22182630Y-43604656D01*
X22225000Y-43600483D01*
X22267369Y-43604656D01*
G37*
G36*
X37512638Y-43134692D02*
G01*
X37557230Y-43134692D01*
X37606890Y-43143975D01*
X37660090Y-43149215D01*
X37700508Y-43161475D01*
X37738545Y-43168586D01*
X37791223Y-43188993D01*
X37847683Y-43206120D01*
X37879940Y-43223361D01*
X37910545Y-43235218D01*
X37963722Y-43268144D01*
X38020570Y-43298530D01*
X38044456Y-43318133D01*
X38067377Y-43332325D01*
X38118163Y-43378622D01*
X38172107Y-43422893D01*
X38188091Y-43442370D01*
X38203691Y-43456591D01*
X38248978Y-43516561D01*
X38296470Y-43574430D01*
X38305653Y-43591611D01*
X38314855Y-43603796D01*
X38351462Y-43677313D01*
X38388880Y-43747317D01*
X38392870Y-43760472D01*
X38397071Y-43768908D01*
X38421884Y-43856118D01*
X38445785Y-43934910D01*
X38446570Y-43942882D01*
X38447552Y-43946333D01*
X38457753Y-44056424D01*
X38465000Y-44130000D01*
X38457752Y-44203581D01*
X38447552Y-44313666D01*
X38446570Y-44317116D01*
X38445785Y-44325090D01*
X38421879Y-44403897D01*
X38397071Y-44491091D01*
X38392871Y-44499524D01*
X38388880Y-44512683D01*
X38351455Y-44582700D01*
X38314855Y-44656203D01*
X38305655Y-44668385D01*
X38296470Y-44685570D01*
X38248968Y-44743450D01*
X38203691Y-44803408D01*
X38188094Y-44817625D01*
X38172107Y-44837107D01*
X38118152Y-44881386D01*
X38067377Y-44927674D01*
X38044461Y-44941862D01*
X38020570Y-44961470D01*
X37963710Y-44991861D01*
X37910545Y-45024781D01*
X37879947Y-45036634D01*
X37847683Y-45053880D01*
X37791211Y-45071010D01*
X37738545Y-45091413D01*
X37700515Y-45098522D01*
X37660090Y-45110785D01*
X37606887Y-45116025D01*
X37557230Y-45125308D01*
X37512638Y-45125308D01*
X37465000Y-45130000D01*
X37417362Y-45125308D01*
X37372770Y-45125308D01*
X37323112Y-45116025D01*
X37269910Y-45110785D01*
X37229485Y-45098522D01*
X37191454Y-45091413D01*
X37138783Y-45071008D01*
X37082317Y-45053880D01*
X37050055Y-45036635D01*
X37019454Y-45024781D01*
X36966281Y-44991857D01*
X36909430Y-44961470D01*
X36885541Y-44941865D01*
X36862622Y-44927674D01*
X36811837Y-44881377D01*
X36757893Y-44837107D01*
X36741908Y-44817629D01*
X36726308Y-44803408D01*
X36681018Y-44743435D01*
X36633530Y-44685570D01*
X36624346Y-44668389D01*
X36615144Y-44656203D01*
X36578530Y-44582672D01*
X36541120Y-44512683D01*
X36537130Y-44499530D01*
X36532928Y-44491091D01*
X36508104Y-44403843D01*
X36484215Y-44325090D01*
X36483430Y-44317121D01*
X36482447Y-44313666D01*
X36472230Y-44203410D01*
X36465000Y-44130000D01*
X36472229Y-44056595D01*
X36482447Y-43946333D01*
X36483430Y-43942876D01*
X36484215Y-43934910D01*
X36508099Y-43856171D01*
X36532928Y-43768908D01*
X36537130Y-43760467D01*
X36541120Y-43747317D01*
X36578522Y-43677340D01*
X36615144Y-43603796D01*
X36624348Y-43591606D01*
X36633530Y-43574430D01*
X36681009Y-43516576D01*
X36726308Y-43456591D01*
X36741911Y-43442366D01*
X36757893Y-43422893D01*
X36811826Y-43378631D01*
X36862622Y-43332325D01*
X36885546Y-43318130D01*
X36909430Y-43298530D01*
X36966269Y-43268148D01*
X37019454Y-43235218D01*
X37050062Y-43223360D01*
X37082317Y-43206120D01*
X37138771Y-43188994D01*
X37191454Y-43168586D01*
X37229492Y-43161475D01*
X37269910Y-43149215D01*
X37323109Y-43143975D01*
X37372770Y-43134692D01*
X37417362Y-43134692D01*
X37465000Y-43130000D01*
X37512638Y-43134692D01*
G37*
G36*
X73512638Y-43134692D02*
G01*
X73557230Y-43134692D01*
X73606890Y-43143975D01*
X73660090Y-43149215D01*
X73700508Y-43161475D01*
X73738545Y-43168586D01*
X73791223Y-43188993D01*
X73847683Y-43206120D01*
X73879940Y-43223361D01*
X73910545Y-43235218D01*
X73963722Y-43268144D01*
X74020570Y-43298530D01*
X74044456Y-43318133D01*
X74067377Y-43332325D01*
X74118163Y-43378622D01*
X74172107Y-43422893D01*
X74188091Y-43442370D01*
X74203691Y-43456591D01*
X74248978Y-43516561D01*
X74296470Y-43574430D01*
X74305653Y-43591611D01*
X74314855Y-43603796D01*
X74351462Y-43677313D01*
X74388880Y-43747317D01*
X74392870Y-43760472D01*
X74397071Y-43768908D01*
X74421884Y-43856118D01*
X74445785Y-43934910D01*
X74446570Y-43942882D01*
X74447552Y-43946333D01*
X74457753Y-44056424D01*
X74465000Y-44130000D01*
X74457752Y-44203581D01*
X74447552Y-44313666D01*
X74446570Y-44317116D01*
X74445785Y-44325090D01*
X74421879Y-44403897D01*
X74397071Y-44491091D01*
X74392871Y-44499524D01*
X74388880Y-44512683D01*
X74351455Y-44582700D01*
X74314855Y-44656203D01*
X74305655Y-44668385D01*
X74296470Y-44685570D01*
X74248968Y-44743450D01*
X74203691Y-44803408D01*
X74188094Y-44817625D01*
X74172107Y-44837107D01*
X74118152Y-44881386D01*
X74067377Y-44927674D01*
X74044461Y-44941862D01*
X74020570Y-44961470D01*
X73963710Y-44991861D01*
X73910545Y-45024781D01*
X73879947Y-45036634D01*
X73847683Y-45053880D01*
X73791211Y-45071010D01*
X73738545Y-45091413D01*
X73700515Y-45098522D01*
X73660090Y-45110785D01*
X73606887Y-45116025D01*
X73557230Y-45125308D01*
X73512638Y-45125308D01*
X73465000Y-45130000D01*
X73417362Y-45125308D01*
X73372770Y-45125308D01*
X73323112Y-45116025D01*
X73269910Y-45110785D01*
X73229485Y-45098522D01*
X73191454Y-45091413D01*
X73138783Y-45071008D01*
X73082317Y-45053880D01*
X73050055Y-45036635D01*
X73019454Y-45024781D01*
X72966281Y-44991857D01*
X72909430Y-44961470D01*
X72885541Y-44941865D01*
X72862622Y-44927674D01*
X72811837Y-44881377D01*
X72757893Y-44837107D01*
X72741908Y-44817629D01*
X72726308Y-44803408D01*
X72681018Y-44743435D01*
X72633530Y-44685570D01*
X72624346Y-44668389D01*
X72615144Y-44656203D01*
X72578530Y-44582672D01*
X72541120Y-44512683D01*
X72537130Y-44499530D01*
X72532928Y-44491091D01*
X72508104Y-44403843D01*
X72484215Y-44325090D01*
X72483430Y-44317121D01*
X72482447Y-44313666D01*
X72472231Y-44203419D01*
X72465000Y-44130000D01*
X72472228Y-44056605D01*
X72482447Y-43946333D01*
X72483430Y-43942876D01*
X72484215Y-43934910D01*
X72508099Y-43856171D01*
X72532928Y-43768908D01*
X72537130Y-43760467D01*
X72541120Y-43747317D01*
X72578522Y-43677340D01*
X72615144Y-43603796D01*
X72624348Y-43591606D01*
X72633530Y-43574430D01*
X72681009Y-43516576D01*
X72726308Y-43456591D01*
X72741911Y-43442366D01*
X72757893Y-43422893D01*
X72811826Y-43378631D01*
X72862622Y-43332325D01*
X72885546Y-43318130D01*
X72909430Y-43298530D01*
X72966269Y-43268148D01*
X73019454Y-43235218D01*
X73050062Y-43223360D01*
X73082317Y-43206120D01*
X73138771Y-43188994D01*
X73191454Y-43168586D01*
X73229492Y-43161475D01*
X73269910Y-43149215D01*
X73323109Y-43143975D01*
X73372770Y-43134692D01*
X73417362Y-43134692D01*
X73465000Y-43130000D01*
X73512638Y-43134692D01*
G37*
G36*
X19727369Y-41064656D02*
G01*
X19773849Y-41064656D01*
X19813981Y-41073186D01*
X19850731Y-41076806D01*
X19896905Y-41090812D01*
X19947664Y-41101602D01*
X19980143Y-41116062D01*
X20010094Y-41125148D01*
X20057683Y-41150585D01*
X20110000Y-41173878D01*
X20134326Y-41191552D01*
X20156965Y-41203653D01*
X20203148Y-41241554D01*
X20253761Y-41278327D01*
X20270192Y-41296575D01*
X20285698Y-41309301D01*
X20327369Y-41360077D01*
X20372664Y-41410383D01*
X20382180Y-41426865D01*
X20391346Y-41438034D01*
X20425252Y-41501467D01*
X20461514Y-41564274D01*
X20465684Y-41577110D01*
X20469851Y-41584905D01*
X20492825Y-41660643D01*
X20516425Y-41733275D01*
X20517255Y-41741177D01*
X20518193Y-41744268D01*
X20527311Y-41836849D01*
X20535000Y-41910000D01*
X20527310Y-41983157D01*
X20518193Y-42075731D01*
X20517255Y-42078820D01*
X20516425Y-42086725D01*
X20492821Y-42159370D01*
X20469851Y-42235094D01*
X20465685Y-42242886D01*
X20461514Y-42255726D01*
X20425245Y-42318544D01*
X20391346Y-42381965D01*
X20382182Y-42393131D01*
X20372664Y-42409617D01*
X20327359Y-42459932D01*
X20285698Y-42510698D01*
X20270195Y-42523420D01*
X20253761Y-42541673D01*
X20203138Y-42578452D01*
X20156965Y-42616346D01*
X20134331Y-42628443D01*
X20110000Y-42646122D01*
X20057672Y-42669419D01*
X20010094Y-42694851D01*
X19980150Y-42703934D01*
X19947664Y-42718398D01*
X19896894Y-42729189D01*
X19850731Y-42743193D01*
X19813990Y-42746811D01*
X19773849Y-42755344D01*
X19727359Y-42755344D01*
X19685000Y-42759516D01*
X19642641Y-42755344D01*
X19596151Y-42755344D01*
X19556010Y-42746811D01*
X19519268Y-42743193D01*
X19473102Y-42729188D01*
X19422336Y-42718398D01*
X19389851Y-42703935D01*
X19359905Y-42694851D01*
X19312321Y-42669416D01*
X19260000Y-42646122D01*
X19235670Y-42628445D01*
X19213034Y-42616346D01*
X19166853Y-42578446D01*
X19116239Y-42541673D01*
X19099807Y-42523423D01*
X19084301Y-42510698D01*
X19042628Y-42459920D01*
X18997336Y-42409617D01*
X18987820Y-42393135D01*
X18978653Y-42381965D01*
X18944741Y-42318521D01*
X18908486Y-42255726D01*
X18904315Y-42242891D01*
X18900148Y-42235094D01*
X18877163Y-42159324D01*
X18853575Y-42086725D01*
X18852744Y-42078825D01*
X18851806Y-42075731D01*
X18842673Y-41983006D01*
X18835000Y-41910000D01*
X18842672Y-41837000D01*
X18851806Y-41744268D01*
X18852744Y-41741172D01*
X18853575Y-41733275D01*
X18877159Y-41660689D01*
X18900148Y-41584905D01*
X18904316Y-41577106D01*
X18908486Y-41564274D01*
X18944734Y-41501491D01*
X18978653Y-41438034D01*
X18987822Y-41426861D01*
X18997336Y-41410383D01*
X19042619Y-41360090D01*
X19084301Y-41309301D01*
X19099810Y-41296572D01*
X19116239Y-41278327D01*
X19166842Y-41241561D01*
X19213034Y-41203653D01*
X19235676Y-41191550D01*
X19260000Y-41173878D01*
X19312310Y-41150588D01*
X19359905Y-41125148D01*
X19389858Y-41116061D01*
X19422336Y-41101602D01*
X19473091Y-41090813D01*
X19519268Y-41076806D01*
X19556019Y-41073186D01*
X19596151Y-41064656D01*
X19642630Y-41064656D01*
X19685000Y-41060483D01*
X19727369Y-41064656D01*
G37*
G36*
X22267369Y-41064656D02*
G01*
X22313849Y-41064656D01*
X22353981Y-41073186D01*
X22390731Y-41076806D01*
X22436905Y-41090812D01*
X22487664Y-41101602D01*
X22520143Y-41116062D01*
X22550094Y-41125148D01*
X22597683Y-41150585D01*
X22650000Y-41173878D01*
X22674326Y-41191552D01*
X22696965Y-41203653D01*
X22743148Y-41241554D01*
X22793761Y-41278327D01*
X22810192Y-41296575D01*
X22825698Y-41309301D01*
X22867369Y-41360077D01*
X22912664Y-41410383D01*
X22922180Y-41426865D01*
X22931346Y-41438034D01*
X22965252Y-41501467D01*
X23001514Y-41564274D01*
X23005684Y-41577110D01*
X23009851Y-41584905D01*
X23032825Y-41660643D01*
X23056425Y-41733275D01*
X23057255Y-41741177D01*
X23058193Y-41744268D01*
X23067311Y-41836849D01*
X23075000Y-41910000D01*
X23067310Y-41983157D01*
X23058193Y-42075731D01*
X23057255Y-42078820D01*
X23056425Y-42086725D01*
X23032821Y-42159370D01*
X23009851Y-42235094D01*
X23005685Y-42242886D01*
X23001514Y-42255726D01*
X22965245Y-42318544D01*
X22931346Y-42381965D01*
X22922182Y-42393131D01*
X22912664Y-42409617D01*
X22867359Y-42459932D01*
X22825698Y-42510698D01*
X22810195Y-42523420D01*
X22793761Y-42541673D01*
X22743138Y-42578452D01*
X22696965Y-42616346D01*
X22674331Y-42628443D01*
X22650000Y-42646122D01*
X22597672Y-42669419D01*
X22550094Y-42694851D01*
X22520150Y-42703934D01*
X22487664Y-42718398D01*
X22436894Y-42729189D01*
X22390731Y-42743193D01*
X22353990Y-42746811D01*
X22313849Y-42755344D01*
X22267359Y-42755344D01*
X22225000Y-42759516D01*
X22182641Y-42755344D01*
X22136151Y-42755344D01*
X22096010Y-42746811D01*
X22059268Y-42743193D01*
X22013102Y-42729188D01*
X21962336Y-42718398D01*
X21929851Y-42703935D01*
X21899905Y-42694851D01*
X21852321Y-42669416D01*
X21800000Y-42646122D01*
X21775670Y-42628445D01*
X21753034Y-42616346D01*
X21706853Y-42578446D01*
X21656239Y-42541673D01*
X21639807Y-42523423D01*
X21624301Y-42510698D01*
X21582628Y-42459920D01*
X21537336Y-42409617D01*
X21527820Y-42393135D01*
X21518653Y-42381965D01*
X21484741Y-42318521D01*
X21448486Y-42255726D01*
X21444315Y-42242891D01*
X21440148Y-42235094D01*
X21417163Y-42159324D01*
X21393575Y-42086725D01*
X21392744Y-42078825D01*
X21391806Y-42075731D01*
X21382673Y-41983006D01*
X21375000Y-41910000D01*
X21382672Y-41837000D01*
X21391806Y-41744268D01*
X21392744Y-41741172D01*
X21393575Y-41733275D01*
X21417159Y-41660689D01*
X21440148Y-41584905D01*
X21444316Y-41577106D01*
X21448486Y-41564274D01*
X21484734Y-41501491D01*
X21518653Y-41438034D01*
X21527822Y-41426861D01*
X21537336Y-41410383D01*
X21582619Y-41360090D01*
X21624301Y-41309301D01*
X21639810Y-41296572D01*
X21656239Y-41278327D01*
X21706842Y-41241561D01*
X21753034Y-41203653D01*
X21775676Y-41191550D01*
X21800000Y-41173878D01*
X21852310Y-41150588D01*
X21899905Y-41125148D01*
X21929858Y-41116061D01*
X21962336Y-41101602D01*
X22013091Y-41090813D01*
X22059268Y-41076806D01*
X22096019Y-41073186D01*
X22136151Y-41064656D01*
X22182630Y-41064656D01*
X22225000Y-41060483D01*
X22267369Y-41064656D01*
G37*
G36*
X37512638Y-39134692D02*
G01*
X37557230Y-39134692D01*
X37606890Y-39143975D01*
X37660090Y-39149215D01*
X37700508Y-39161475D01*
X37738545Y-39168586D01*
X37791223Y-39188993D01*
X37847683Y-39206120D01*
X37879940Y-39223361D01*
X37910545Y-39235218D01*
X37963722Y-39268144D01*
X38020570Y-39298530D01*
X38044456Y-39318133D01*
X38067377Y-39332325D01*
X38118163Y-39378622D01*
X38172107Y-39422893D01*
X38188091Y-39442370D01*
X38203691Y-39456591D01*
X38248978Y-39516561D01*
X38296470Y-39574430D01*
X38305653Y-39591611D01*
X38314855Y-39603796D01*
X38351462Y-39677313D01*
X38388880Y-39747317D01*
X38392870Y-39760472D01*
X38397071Y-39768908D01*
X38421884Y-39856118D01*
X38445785Y-39934910D01*
X38446570Y-39942882D01*
X38447552Y-39946333D01*
X38457753Y-40056424D01*
X38465000Y-40130000D01*
X38457752Y-40203581D01*
X38447552Y-40313666D01*
X38446570Y-40317116D01*
X38445785Y-40325090D01*
X38421879Y-40403897D01*
X38397071Y-40491091D01*
X38392871Y-40499524D01*
X38388880Y-40512683D01*
X38351455Y-40582700D01*
X38314855Y-40656203D01*
X38305655Y-40668385D01*
X38296470Y-40685570D01*
X38248968Y-40743450D01*
X38203691Y-40803408D01*
X38188094Y-40817625D01*
X38172107Y-40837107D01*
X38118152Y-40881386D01*
X38067377Y-40927674D01*
X38044461Y-40941862D01*
X38020570Y-40961470D01*
X37963710Y-40991861D01*
X37910545Y-41024781D01*
X37879947Y-41036634D01*
X37847683Y-41053880D01*
X37791211Y-41071010D01*
X37738545Y-41091413D01*
X37700515Y-41098522D01*
X37660090Y-41110785D01*
X37606887Y-41116025D01*
X37557230Y-41125308D01*
X37512638Y-41125308D01*
X37465000Y-41130000D01*
X37417362Y-41125308D01*
X37372770Y-41125308D01*
X37323112Y-41116025D01*
X37269910Y-41110785D01*
X37229485Y-41098522D01*
X37191454Y-41091413D01*
X37138783Y-41071008D01*
X37082317Y-41053880D01*
X37050055Y-41036635D01*
X37019454Y-41024781D01*
X36966281Y-40991857D01*
X36909430Y-40961470D01*
X36885541Y-40941865D01*
X36862622Y-40927674D01*
X36811837Y-40881377D01*
X36757893Y-40837107D01*
X36741908Y-40817629D01*
X36726308Y-40803408D01*
X36681018Y-40743435D01*
X36633530Y-40685570D01*
X36624346Y-40668389D01*
X36615144Y-40656203D01*
X36578530Y-40582672D01*
X36541120Y-40512683D01*
X36537130Y-40499530D01*
X36532928Y-40491091D01*
X36508104Y-40403843D01*
X36484215Y-40325090D01*
X36483430Y-40317121D01*
X36482447Y-40313666D01*
X36472230Y-40203410D01*
X36465000Y-40130000D01*
X36472229Y-40056595D01*
X36482447Y-39946333D01*
X36483430Y-39942876D01*
X36484215Y-39934910D01*
X36508099Y-39856171D01*
X36532928Y-39768908D01*
X36537130Y-39760467D01*
X36541120Y-39747317D01*
X36578522Y-39677340D01*
X36615144Y-39603796D01*
X36624348Y-39591606D01*
X36633530Y-39574430D01*
X36681009Y-39516576D01*
X36726308Y-39456591D01*
X36741911Y-39442366D01*
X36757893Y-39422893D01*
X36811826Y-39378631D01*
X36862622Y-39332325D01*
X36885546Y-39318130D01*
X36909430Y-39298530D01*
X36966269Y-39268148D01*
X37019454Y-39235218D01*
X37050062Y-39223360D01*
X37082317Y-39206120D01*
X37138771Y-39188994D01*
X37191454Y-39168586D01*
X37229492Y-39161475D01*
X37269910Y-39149215D01*
X37323109Y-39143975D01*
X37372770Y-39134692D01*
X37417362Y-39134692D01*
X37465000Y-39130000D01*
X37512638Y-39134692D01*
G37*
G36*
X73512638Y-39134692D02*
G01*
X73557230Y-39134692D01*
X73606890Y-39143975D01*
X73660090Y-39149215D01*
X73700508Y-39161475D01*
X73738545Y-39168586D01*
X73791223Y-39188993D01*
X73847683Y-39206120D01*
X73879940Y-39223361D01*
X73910545Y-39235218D01*
X73963722Y-39268144D01*
X74020570Y-39298530D01*
X74044456Y-39318133D01*
X74067377Y-39332325D01*
X74118163Y-39378622D01*
X74172107Y-39422893D01*
X74188091Y-39442370D01*
X74203691Y-39456591D01*
X74248978Y-39516561D01*
X74296470Y-39574430D01*
X74305653Y-39591611D01*
X74314855Y-39603796D01*
X74351462Y-39677313D01*
X74388880Y-39747317D01*
X74392870Y-39760472D01*
X74397071Y-39768908D01*
X74421884Y-39856118D01*
X74445785Y-39934910D01*
X74446570Y-39942882D01*
X74447552Y-39946333D01*
X74457753Y-40056424D01*
X74465000Y-40130000D01*
X74457752Y-40203581D01*
X74447552Y-40313666D01*
X74446570Y-40317116D01*
X74445785Y-40325090D01*
X74421879Y-40403897D01*
X74397071Y-40491091D01*
X74392871Y-40499524D01*
X74388880Y-40512683D01*
X74351455Y-40582700D01*
X74314855Y-40656203D01*
X74305655Y-40668385D01*
X74296470Y-40685570D01*
X74248968Y-40743450D01*
X74203691Y-40803408D01*
X74188094Y-40817625D01*
X74172107Y-40837107D01*
X74118152Y-40881386D01*
X74067377Y-40927674D01*
X74044461Y-40941862D01*
X74020570Y-40961470D01*
X73963710Y-40991861D01*
X73910545Y-41024781D01*
X73879947Y-41036634D01*
X73847683Y-41053880D01*
X73791211Y-41071010D01*
X73738545Y-41091413D01*
X73700515Y-41098522D01*
X73660090Y-41110785D01*
X73606887Y-41116025D01*
X73557230Y-41125308D01*
X73512638Y-41125308D01*
X73465000Y-41130000D01*
X73417362Y-41125308D01*
X73372770Y-41125308D01*
X73323112Y-41116025D01*
X73269910Y-41110785D01*
X73229485Y-41098522D01*
X73191454Y-41091413D01*
X73138783Y-41071008D01*
X73082317Y-41053880D01*
X73050055Y-41036635D01*
X73019454Y-41024781D01*
X72966281Y-40991857D01*
X72909430Y-40961470D01*
X72885541Y-40941865D01*
X72862622Y-40927674D01*
X72811837Y-40881377D01*
X72757893Y-40837107D01*
X72741908Y-40817629D01*
X72726308Y-40803408D01*
X72681018Y-40743435D01*
X72633530Y-40685570D01*
X72624346Y-40668389D01*
X72615144Y-40656203D01*
X72578530Y-40582672D01*
X72541120Y-40512683D01*
X72537130Y-40499530D01*
X72532928Y-40491091D01*
X72508104Y-40403843D01*
X72484215Y-40325090D01*
X72483430Y-40317121D01*
X72482447Y-40313666D01*
X72472231Y-40203419D01*
X72465000Y-40130000D01*
X72472228Y-40056605D01*
X72482447Y-39946333D01*
X72483430Y-39942876D01*
X72484215Y-39934910D01*
X72508099Y-39856171D01*
X72532928Y-39768908D01*
X72537130Y-39760467D01*
X72541120Y-39747317D01*
X72578522Y-39677340D01*
X72615144Y-39603796D01*
X72624348Y-39591606D01*
X72633530Y-39574430D01*
X72681009Y-39516576D01*
X72726308Y-39456591D01*
X72741911Y-39442366D01*
X72757893Y-39422893D01*
X72811826Y-39378631D01*
X72862622Y-39332325D01*
X72885546Y-39318130D01*
X72909430Y-39298530D01*
X72966269Y-39268148D01*
X73019454Y-39235218D01*
X73050062Y-39223360D01*
X73082317Y-39206120D01*
X73138771Y-39188994D01*
X73191454Y-39168586D01*
X73229492Y-39161475D01*
X73269910Y-39149215D01*
X73323109Y-39143975D01*
X73372770Y-39134692D01*
X73417362Y-39134692D01*
X73465000Y-39130000D01*
X73512638Y-39134692D01*
G37*
G36*
X19727369Y-38524656D02*
G01*
X19773849Y-38524656D01*
X19813981Y-38533186D01*
X19850731Y-38536806D01*
X19896905Y-38550812D01*
X19947664Y-38561602D01*
X19980143Y-38576062D01*
X20010094Y-38585148D01*
X20057683Y-38610585D01*
X20110000Y-38633878D01*
X20134326Y-38651552D01*
X20156965Y-38663653D01*
X20203148Y-38701554D01*
X20253761Y-38738327D01*
X20270192Y-38756575D01*
X20285698Y-38769301D01*
X20327369Y-38820077D01*
X20372664Y-38870383D01*
X20382180Y-38886865D01*
X20391346Y-38898034D01*
X20425252Y-38961467D01*
X20461514Y-39024274D01*
X20465684Y-39037110D01*
X20469851Y-39044905D01*
X20492825Y-39120643D01*
X20516425Y-39193275D01*
X20517255Y-39201177D01*
X20518193Y-39204268D01*
X20527311Y-39296849D01*
X20535000Y-39370000D01*
X20527310Y-39443157D01*
X20518193Y-39535731D01*
X20517255Y-39538820D01*
X20516425Y-39546725D01*
X20492821Y-39619370D01*
X20469851Y-39695094D01*
X20465685Y-39702886D01*
X20461514Y-39715726D01*
X20425245Y-39778544D01*
X20391346Y-39841965D01*
X20382182Y-39853131D01*
X20372664Y-39869617D01*
X20327359Y-39919932D01*
X20285698Y-39970698D01*
X20270195Y-39983420D01*
X20253761Y-40001673D01*
X20203138Y-40038452D01*
X20156965Y-40076346D01*
X20134331Y-40088443D01*
X20110000Y-40106122D01*
X20057672Y-40129419D01*
X20010094Y-40154851D01*
X19980150Y-40163934D01*
X19947664Y-40178398D01*
X19896894Y-40189189D01*
X19850731Y-40203193D01*
X19813990Y-40206811D01*
X19773849Y-40215344D01*
X19727359Y-40215344D01*
X19685000Y-40219516D01*
X19642641Y-40215344D01*
X19596151Y-40215344D01*
X19556010Y-40206811D01*
X19519268Y-40203193D01*
X19473102Y-40189188D01*
X19422336Y-40178398D01*
X19389851Y-40163935D01*
X19359905Y-40154851D01*
X19312321Y-40129416D01*
X19260000Y-40106122D01*
X19235670Y-40088445D01*
X19213034Y-40076346D01*
X19166853Y-40038446D01*
X19116239Y-40001673D01*
X19099807Y-39983423D01*
X19084301Y-39970698D01*
X19042628Y-39919920D01*
X18997336Y-39869617D01*
X18987820Y-39853135D01*
X18978653Y-39841965D01*
X18944741Y-39778521D01*
X18908486Y-39715726D01*
X18904315Y-39702891D01*
X18900148Y-39695094D01*
X18877163Y-39619324D01*
X18853575Y-39546725D01*
X18852744Y-39538825D01*
X18851806Y-39535731D01*
X18842673Y-39443006D01*
X18835000Y-39370000D01*
X18842672Y-39297000D01*
X18851806Y-39204268D01*
X18852744Y-39201172D01*
X18853575Y-39193275D01*
X18877159Y-39120689D01*
X18900148Y-39044905D01*
X18904316Y-39037106D01*
X18908486Y-39024274D01*
X18944734Y-38961491D01*
X18978653Y-38898034D01*
X18987822Y-38886861D01*
X18997336Y-38870383D01*
X19042619Y-38820090D01*
X19084301Y-38769301D01*
X19099810Y-38756572D01*
X19116239Y-38738327D01*
X19166842Y-38701561D01*
X19213034Y-38663653D01*
X19235676Y-38651550D01*
X19260000Y-38633878D01*
X19312310Y-38610588D01*
X19359905Y-38585148D01*
X19389858Y-38576061D01*
X19422336Y-38561602D01*
X19473091Y-38550813D01*
X19519268Y-38536806D01*
X19556019Y-38533186D01*
X19596151Y-38524656D01*
X19642630Y-38524656D01*
X19685000Y-38520483D01*
X19727369Y-38524656D01*
G37*
G36*
X22267369Y-38524656D02*
G01*
X22313849Y-38524656D01*
X22353981Y-38533186D01*
X22390731Y-38536806D01*
X22436905Y-38550812D01*
X22487664Y-38561602D01*
X22520143Y-38576062D01*
X22550094Y-38585148D01*
X22597683Y-38610585D01*
X22650000Y-38633878D01*
X22674326Y-38651552D01*
X22696965Y-38663653D01*
X22743148Y-38701554D01*
X22793761Y-38738327D01*
X22810192Y-38756575D01*
X22825698Y-38769301D01*
X22867369Y-38820077D01*
X22912664Y-38870383D01*
X22922180Y-38886865D01*
X22931346Y-38898034D01*
X22965252Y-38961467D01*
X23001514Y-39024274D01*
X23005684Y-39037110D01*
X23009851Y-39044905D01*
X23032825Y-39120643D01*
X23056425Y-39193275D01*
X23057255Y-39201177D01*
X23058193Y-39204268D01*
X23067311Y-39296849D01*
X23075000Y-39370000D01*
X23067310Y-39443157D01*
X23058193Y-39535731D01*
X23057255Y-39538820D01*
X23056425Y-39546725D01*
X23032821Y-39619370D01*
X23009851Y-39695094D01*
X23005685Y-39702886D01*
X23001514Y-39715726D01*
X22965245Y-39778544D01*
X22931346Y-39841965D01*
X22922182Y-39853131D01*
X22912664Y-39869617D01*
X22867359Y-39919932D01*
X22825698Y-39970698D01*
X22810195Y-39983420D01*
X22793761Y-40001673D01*
X22743138Y-40038452D01*
X22696965Y-40076346D01*
X22674331Y-40088443D01*
X22650000Y-40106122D01*
X22597672Y-40129419D01*
X22550094Y-40154851D01*
X22520150Y-40163934D01*
X22487664Y-40178398D01*
X22436894Y-40189189D01*
X22390731Y-40203193D01*
X22353990Y-40206811D01*
X22313849Y-40215344D01*
X22267359Y-40215344D01*
X22225000Y-40219516D01*
X22182641Y-40215344D01*
X22136151Y-40215344D01*
X22096010Y-40206811D01*
X22059268Y-40203193D01*
X22013102Y-40189188D01*
X21962336Y-40178398D01*
X21929851Y-40163935D01*
X21899905Y-40154851D01*
X21852321Y-40129416D01*
X21800000Y-40106122D01*
X21775670Y-40088445D01*
X21753034Y-40076346D01*
X21706853Y-40038446D01*
X21656239Y-40001673D01*
X21639807Y-39983423D01*
X21624301Y-39970698D01*
X21582628Y-39919920D01*
X21537336Y-39869617D01*
X21527820Y-39853135D01*
X21518653Y-39841965D01*
X21484741Y-39778521D01*
X21448486Y-39715726D01*
X21444315Y-39702891D01*
X21440148Y-39695094D01*
X21417163Y-39619324D01*
X21393575Y-39546725D01*
X21392744Y-39538825D01*
X21391806Y-39535731D01*
X21382673Y-39443006D01*
X21375000Y-39370000D01*
X21382672Y-39297000D01*
X21391806Y-39204268D01*
X21392744Y-39201172D01*
X21393575Y-39193275D01*
X21417159Y-39120689D01*
X21440148Y-39044905D01*
X21444316Y-39037106D01*
X21448486Y-39024274D01*
X21484734Y-38961491D01*
X21518653Y-38898034D01*
X21527822Y-38886861D01*
X21537336Y-38870383D01*
X21582619Y-38820090D01*
X21624301Y-38769301D01*
X21639810Y-38756572D01*
X21656239Y-38738327D01*
X21706842Y-38701561D01*
X21753034Y-38663653D01*
X21775676Y-38651550D01*
X21800000Y-38633878D01*
X21852310Y-38610588D01*
X21899905Y-38585148D01*
X21929858Y-38576061D01*
X21962336Y-38561602D01*
X22013091Y-38550813D01*
X22059268Y-38536806D01*
X22096019Y-38533186D01*
X22136151Y-38524656D01*
X22182630Y-38524656D01*
X22225000Y-38520483D01*
X22267369Y-38524656D01*
G37*
G36*
X19727369Y-35984656D02*
G01*
X19773849Y-35984656D01*
X19813981Y-35993186D01*
X19850731Y-35996806D01*
X19896905Y-36010812D01*
X19947664Y-36021602D01*
X19980143Y-36036062D01*
X20010094Y-36045148D01*
X20057683Y-36070585D01*
X20110000Y-36093878D01*
X20134326Y-36111552D01*
X20156965Y-36123653D01*
X20203148Y-36161554D01*
X20253761Y-36198327D01*
X20270192Y-36216575D01*
X20285698Y-36229301D01*
X20327369Y-36280077D01*
X20372664Y-36330383D01*
X20382180Y-36346865D01*
X20391346Y-36358034D01*
X20425252Y-36421467D01*
X20461514Y-36484274D01*
X20465684Y-36497110D01*
X20469851Y-36504905D01*
X20492825Y-36580643D01*
X20516425Y-36653275D01*
X20517255Y-36661177D01*
X20518193Y-36664268D01*
X20527311Y-36756849D01*
X20535000Y-36830000D01*
X20527310Y-36903157D01*
X20518193Y-36995731D01*
X20517255Y-36998820D01*
X20516425Y-37006725D01*
X20492821Y-37079370D01*
X20469851Y-37155094D01*
X20465685Y-37162886D01*
X20461514Y-37175726D01*
X20425245Y-37238544D01*
X20391346Y-37301965D01*
X20382182Y-37313131D01*
X20372664Y-37329617D01*
X20327359Y-37379932D01*
X20285698Y-37430698D01*
X20270195Y-37443420D01*
X20253761Y-37461673D01*
X20203138Y-37498452D01*
X20156965Y-37536346D01*
X20134331Y-37548443D01*
X20110000Y-37566122D01*
X20057672Y-37589419D01*
X20010094Y-37614851D01*
X19980150Y-37623934D01*
X19947664Y-37638398D01*
X19896894Y-37649189D01*
X19850731Y-37663193D01*
X19813990Y-37666811D01*
X19773849Y-37675344D01*
X19727359Y-37675344D01*
X19685000Y-37679516D01*
X19642641Y-37675344D01*
X19596151Y-37675344D01*
X19556010Y-37666811D01*
X19519268Y-37663193D01*
X19473102Y-37649188D01*
X19422336Y-37638398D01*
X19389851Y-37623935D01*
X19359905Y-37614851D01*
X19312321Y-37589416D01*
X19260000Y-37566122D01*
X19235670Y-37548445D01*
X19213034Y-37536346D01*
X19166853Y-37498446D01*
X19116239Y-37461673D01*
X19099807Y-37443423D01*
X19084301Y-37430698D01*
X19042628Y-37379920D01*
X18997336Y-37329617D01*
X18987820Y-37313135D01*
X18978653Y-37301965D01*
X18944741Y-37238521D01*
X18908486Y-37175726D01*
X18904315Y-37162891D01*
X18900148Y-37155094D01*
X18877163Y-37079324D01*
X18853575Y-37006725D01*
X18852744Y-36998825D01*
X18851806Y-36995731D01*
X18842673Y-36903006D01*
X18835000Y-36830000D01*
X18842672Y-36757000D01*
X18851806Y-36664268D01*
X18852744Y-36661172D01*
X18853575Y-36653275D01*
X18877159Y-36580689D01*
X18900148Y-36504905D01*
X18904316Y-36497106D01*
X18908486Y-36484274D01*
X18944734Y-36421491D01*
X18978653Y-36358034D01*
X18987822Y-36346861D01*
X18997336Y-36330383D01*
X19042619Y-36280090D01*
X19084301Y-36229301D01*
X19099810Y-36216572D01*
X19116239Y-36198327D01*
X19166842Y-36161561D01*
X19213034Y-36123653D01*
X19235676Y-36111550D01*
X19260000Y-36093878D01*
X19312310Y-36070588D01*
X19359905Y-36045148D01*
X19389858Y-36036061D01*
X19422336Y-36021602D01*
X19473091Y-36010813D01*
X19519268Y-35996806D01*
X19556019Y-35993186D01*
X19596151Y-35984656D01*
X19642630Y-35984656D01*
X19685000Y-35980483D01*
X19727369Y-35984656D01*
G37*
G36*
X22267369Y-35984656D02*
G01*
X22313849Y-35984656D01*
X22353981Y-35993186D01*
X22390731Y-35996806D01*
X22436905Y-36010812D01*
X22487664Y-36021602D01*
X22520143Y-36036062D01*
X22550094Y-36045148D01*
X22597683Y-36070585D01*
X22650000Y-36093878D01*
X22674326Y-36111552D01*
X22696965Y-36123653D01*
X22743148Y-36161554D01*
X22793761Y-36198327D01*
X22810192Y-36216575D01*
X22825698Y-36229301D01*
X22867369Y-36280077D01*
X22912664Y-36330383D01*
X22922180Y-36346865D01*
X22931346Y-36358034D01*
X22965252Y-36421467D01*
X23001514Y-36484274D01*
X23005684Y-36497110D01*
X23009851Y-36504905D01*
X23032825Y-36580643D01*
X23056425Y-36653275D01*
X23057255Y-36661177D01*
X23058193Y-36664268D01*
X23067311Y-36756849D01*
X23075000Y-36830000D01*
X23067310Y-36903157D01*
X23058193Y-36995731D01*
X23057255Y-36998820D01*
X23056425Y-37006725D01*
X23032821Y-37079370D01*
X23009851Y-37155094D01*
X23005685Y-37162886D01*
X23001514Y-37175726D01*
X22965245Y-37238544D01*
X22931346Y-37301965D01*
X22922182Y-37313131D01*
X22912664Y-37329617D01*
X22867359Y-37379932D01*
X22825698Y-37430698D01*
X22810195Y-37443420D01*
X22793761Y-37461673D01*
X22743138Y-37498452D01*
X22696965Y-37536346D01*
X22674331Y-37548443D01*
X22650000Y-37566122D01*
X22597672Y-37589419D01*
X22550094Y-37614851D01*
X22520150Y-37623934D01*
X22487664Y-37638398D01*
X22436894Y-37649189D01*
X22390731Y-37663193D01*
X22353990Y-37666811D01*
X22313849Y-37675344D01*
X22267359Y-37675344D01*
X22225000Y-37679516D01*
X22182641Y-37675344D01*
X22136151Y-37675344D01*
X22096010Y-37666811D01*
X22059268Y-37663193D01*
X22013102Y-37649188D01*
X21962336Y-37638398D01*
X21929851Y-37623935D01*
X21899905Y-37614851D01*
X21852321Y-37589416D01*
X21800000Y-37566122D01*
X21775670Y-37548445D01*
X21753034Y-37536346D01*
X21706853Y-37498446D01*
X21656239Y-37461673D01*
X21639807Y-37443423D01*
X21624301Y-37430698D01*
X21582628Y-37379920D01*
X21537336Y-37329617D01*
X21527820Y-37313135D01*
X21518653Y-37301965D01*
X21484741Y-37238521D01*
X21448486Y-37175726D01*
X21444315Y-37162891D01*
X21440148Y-37155094D01*
X21417163Y-37079324D01*
X21393575Y-37006725D01*
X21392744Y-36998825D01*
X21391806Y-36995731D01*
X21382673Y-36903006D01*
X21375000Y-36830000D01*
X21382672Y-36757000D01*
X21391806Y-36664268D01*
X21392744Y-36661172D01*
X21393575Y-36653275D01*
X21417159Y-36580689D01*
X21440148Y-36504905D01*
X21444316Y-36497106D01*
X21448486Y-36484274D01*
X21484734Y-36421491D01*
X21518653Y-36358034D01*
X21527822Y-36346861D01*
X21537336Y-36330383D01*
X21582619Y-36280090D01*
X21624301Y-36229301D01*
X21639810Y-36216572D01*
X21656239Y-36198327D01*
X21706842Y-36161561D01*
X21753034Y-36123653D01*
X21775676Y-36111550D01*
X21800000Y-36093878D01*
X21852310Y-36070588D01*
X21899905Y-36045148D01*
X21929858Y-36036061D01*
X21962336Y-36021602D01*
X22013091Y-36010813D01*
X22059268Y-35996806D01*
X22096019Y-35993186D01*
X22136151Y-35984656D01*
X22182630Y-35984656D01*
X22225000Y-35980483D01*
X22267369Y-35984656D01*
G37*
G36*
X37512638Y-35134692D02*
G01*
X37557230Y-35134692D01*
X37606890Y-35143975D01*
X37660090Y-35149215D01*
X37700508Y-35161475D01*
X37738545Y-35168586D01*
X37791223Y-35188993D01*
X37847683Y-35206120D01*
X37879940Y-35223361D01*
X37910545Y-35235218D01*
X37963722Y-35268144D01*
X38020570Y-35298530D01*
X38044456Y-35318133D01*
X38067377Y-35332325D01*
X38118163Y-35378622D01*
X38172107Y-35422893D01*
X38188091Y-35442370D01*
X38203691Y-35456591D01*
X38248978Y-35516561D01*
X38296470Y-35574430D01*
X38305653Y-35591611D01*
X38314855Y-35603796D01*
X38351462Y-35677313D01*
X38388880Y-35747317D01*
X38392870Y-35760472D01*
X38397071Y-35768908D01*
X38421884Y-35856118D01*
X38445785Y-35934910D01*
X38446570Y-35942882D01*
X38447552Y-35946333D01*
X38457753Y-36056424D01*
X38465000Y-36130000D01*
X38457752Y-36203581D01*
X38447552Y-36313666D01*
X38446570Y-36317116D01*
X38445785Y-36325090D01*
X38421879Y-36403897D01*
X38397071Y-36491091D01*
X38392871Y-36499524D01*
X38388880Y-36512683D01*
X38351455Y-36582700D01*
X38314855Y-36656203D01*
X38305655Y-36668385D01*
X38296470Y-36685570D01*
X38248968Y-36743450D01*
X38203691Y-36803408D01*
X38188094Y-36817625D01*
X38172107Y-36837107D01*
X38118152Y-36881386D01*
X38067377Y-36927674D01*
X38044461Y-36941862D01*
X38020570Y-36961470D01*
X37963710Y-36991861D01*
X37910545Y-37024781D01*
X37879947Y-37036634D01*
X37847683Y-37053880D01*
X37791211Y-37071010D01*
X37738545Y-37091413D01*
X37700515Y-37098522D01*
X37660090Y-37110785D01*
X37606887Y-37116025D01*
X37557230Y-37125308D01*
X37512638Y-37125308D01*
X37465000Y-37130000D01*
X37417362Y-37125308D01*
X37372770Y-37125308D01*
X37323112Y-37116025D01*
X37269910Y-37110785D01*
X37229485Y-37098522D01*
X37191454Y-37091413D01*
X37138783Y-37071008D01*
X37082317Y-37053880D01*
X37050055Y-37036635D01*
X37019454Y-37024781D01*
X36966281Y-36991857D01*
X36909430Y-36961470D01*
X36885541Y-36941865D01*
X36862622Y-36927674D01*
X36811837Y-36881377D01*
X36757893Y-36837107D01*
X36741908Y-36817629D01*
X36726308Y-36803408D01*
X36681018Y-36743435D01*
X36633530Y-36685570D01*
X36624346Y-36668389D01*
X36615144Y-36656203D01*
X36578530Y-36582672D01*
X36541120Y-36512683D01*
X36537130Y-36499530D01*
X36532928Y-36491091D01*
X36508104Y-36403843D01*
X36484215Y-36325090D01*
X36483430Y-36317121D01*
X36482447Y-36313666D01*
X36472230Y-36203410D01*
X36465000Y-36130000D01*
X36472229Y-36056595D01*
X36482447Y-35946333D01*
X36483430Y-35942876D01*
X36484215Y-35934910D01*
X36508099Y-35856171D01*
X36532928Y-35768908D01*
X36537130Y-35760467D01*
X36541120Y-35747317D01*
X36578522Y-35677340D01*
X36615144Y-35603796D01*
X36624348Y-35591606D01*
X36633530Y-35574430D01*
X36681009Y-35516576D01*
X36726308Y-35456591D01*
X36741911Y-35442366D01*
X36757893Y-35422893D01*
X36811826Y-35378631D01*
X36862622Y-35332325D01*
X36885546Y-35318130D01*
X36909430Y-35298530D01*
X36966269Y-35268148D01*
X37019454Y-35235218D01*
X37050062Y-35223360D01*
X37082317Y-35206120D01*
X37138771Y-35188994D01*
X37191454Y-35168586D01*
X37229492Y-35161475D01*
X37269910Y-35149215D01*
X37323109Y-35143975D01*
X37372770Y-35134692D01*
X37417362Y-35134692D01*
X37465000Y-35130000D01*
X37512638Y-35134692D01*
G37*
G36*
X73512638Y-35134692D02*
G01*
X73557230Y-35134692D01*
X73606890Y-35143975D01*
X73660090Y-35149215D01*
X73700508Y-35161475D01*
X73738545Y-35168586D01*
X73791223Y-35188993D01*
X73847683Y-35206120D01*
X73879940Y-35223361D01*
X73910545Y-35235218D01*
X73963722Y-35268144D01*
X74020570Y-35298530D01*
X74044456Y-35318133D01*
X74067377Y-35332325D01*
X74118163Y-35378622D01*
X74172107Y-35422893D01*
X74188091Y-35442370D01*
X74203691Y-35456591D01*
X74248978Y-35516561D01*
X74296470Y-35574430D01*
X74305653Y-35591611D01*
X74314855Y-35603796D01*
X74351462Y-35677313D01*
X74388880Y-35747317D01*
X74392870Y-35760472D01*
X74397071Y-35768908D01*
X74421884Y-35856118D01*
X74445785Y-35934910D01*
X74446570Y-35942882D01*
X74447552Y-35946333D01*
X74457753Y-36056424D01*
X74465000Y-36130000D01*
X74457752Y-36203581D01*
X74447552Y-36313666D01*
X74446570Y-36317116D01*
X74445785Y-36325090D01*
X74421879Y-36403897D01*
X74397071Y-36491091D01*
X74392871Y-36499524D01*
X74388880Y-36512683D01*
X74351455Y-36582700D01*
X74314855Y-36656203D01*
X74305655Y-36668385D01*
X74296470Y-36685570D01*
X74248968Y-36743450D01*
X74203691Y-36803408D01*
X74188094Y-36817625D01*
X74172107Y-36837107D01*
X74118152Y-36881386D01*
X74067377Y-36927674D01*
X74044461Y-36941862D01*
X74020570Y-36961470D01*
X73963710Y-36991861D01*
X73910545Y-37024781D01*
X73879947Y-37036634D01*
X73847683Y-37053880D01*
X73791211Y-37071010D01*
X73738545Y-37091413D01*
X73700515Y-37098522D01*
X73660090Y-37110785D01*
X73606887Y-37116025D01*
X73557230Y-37125308D01*
X73512638Y-37125308D01*
X73465000Y-37130000D01*
X73417362Y-37125308D01*
X73372770Y-37125308D01*
X73323112Y-37116025D01*
X73269910Y-37110785D01*
X73229485Y-37098522D01*
X73191454Y-37091413D01*
X73138783Y-37071008D01*
X73082317Y-37053880D01*
X73050055Y-37036635D01*
X73019454Y-37024781D01*
X72966281Y-36991857D01*
X72909430Y-36961470D01*
X72885541Y-36941865D01*
X72862622Y-36927674D01*
X72811837Y-36881377D01*
X72757893Y-36837107D01*
X72741908Y-36817629D01*
X72726308Y-36803408D01*
X72681018Y-36743435D01*
X72633530Y-36685570D01*
X72624346Y-36668389D01*
X72615144Y-36656203D01*
X72578530Y-36582672D01*
X72541120Y-36512683D01*
X72537130Y-36499530D01*
X72532928Y-36491091D01*
X72508104Y-36403843D01*
X72484215Y-36325090D01*
X72483430Y-36317121D01*
X72482447Y-36313666D01*
X72472231Y-36203419D01*
X72465000Y-36130000D01*
X72472228Y-36056605D01*
X72482447Y-35946333D01*
X72483430Y-35942876D01*
X72484215Y-35934910D01*
X72508099Y-35856171D01*
X72532928Y-35768908D01*
X72537130Y-35760467D01*
X72541120Y-35747317D01*
X72578522Y-35677340D01*
X72615144Y-35603796D01*
X72624348Y-35591606D01*
X72633530Y-35574430D01*
X72681009Y-35516576D01*
X72726308Y-35456591D01*
X72741911Y-35442366D01*
X72757893Y-35422893D01*
X72811826Y-35378631D01*
X72862622Y-35332325D01*
X72885546Y-35318130D01*
X72909430Y-35298530D01*
X72966269Y-35268148D01*
X73019454Y-35235218D01*
X73050062Y-35223360D01*
X73082317Y-35206120D01*
X73138771Y-35188994D01*
X73191454Y-35168586D01*
X73229492Y-35161475D01*
X73269910Y-35149215D01*
X73323109Y-35143975D01*
X73372770Y-35134692D01*
X73417362Y-35134692D01*
X73465000Y-35130000D01*
X73512638Y-35134692D01*
G37*
G36*
X19727369Y-33444656D02*
G01*
X19773849Y-33444656D01*
X19813981Y-33453186D01*
X19850731Y-33456806D01*
X19896905Y-33470812D01*
X19947664Y-33481602D01*
X19980143Y-33496062D01*
X20010094Y-33505148D01*
X20057683Y-33530585D01*
X20110000Y-33553878D01*
X20134326Y-33571552D01*
X20156965Y-33583653D01*
X20203148Y-33621554D01*
X20253761Y-33658327D01*
X20270192Y-33676575D01*
X20285698Y-33689301D01*
X20327369Y-33740077D01*
X20372664Y-33790383D01*
X20382180Y-33806865D01*
X20391346Y-33818034D01*
X20425252Y-33881467D01*
X20461514Y-33944274D01*
X20465684Y-33957110D01*
X20469851Y-33964905D01*
X20492825Y-34040643D01*
X20516425Y-34113275D01*
X20517255Y-34121177D01*
X20518193Y-34124268D01*
X20527311Y-34216849D01*
X20535000Y-34290000D01*
X20527310Y-34363157D01*
X20518193Y-34455731D01*
X20517255Y-34458820D01*
X20516425Y-34466725D01*
X20492821Y-34539370D01*
X20469851Y-34615094D01*
X20465685Y-34622886D01*
X20461514Y-34635726D01*
X20425245Y-34698544D01*
X20391346Y-34761965D01*
X20382182Y-34773131D01*
X20372664Y-34789617D01*
X20327359Y-34839932D01*
X20285698Y-34890698D01*
X20270195Y-34903420D01*
X20253761Y-34921673D01*
X20203138Y-34958452D01*
X20156965Y-34996346D01*
X20134331Y-35008443D01*
X20110000Y-35026122D01*
X20057672Y-35049419D01*
X20010094Y-35074851D01*
X19980150Y-35083934D01*
X19947664Y-35098398D01*
X19896894Y-35109189D01*
X19850731Y-35123193D01*
X19813990Y-35126811D01*
X19773849Y-35135344D01*
X19727358Y-35135344D01*
X19684999Y-35139516D01*
X19642640Y-35135344D01*
X19596151Y-35135344D01*
X19556010Y-35126811D01*
X19519268Y-35123193D01*
X19473102Y-35109188D01*
X19422336Y-35098398D01*
X19389851Y-35083935D01*
X19359905Y-35074851D01*
X19312321Y-35049416D01*
X19260000Y-35026122D01*
X19235670Y-35008445D01*
X19213034Y-34996346D01*
X19166853Y-34958446D01*
X19116239Y-34921673D01*
X19099807Y-34903423D01*
X19084301Y-34890698D01*
X19042628Y-34839920D01*
X18997336Y-34789617D01*
X18987820Y-34773135D01*
X18978653Y-34761965D01*
X18944741Y-34698521D01*
X18908486Y-34635726D01*
X18904315Y-34622891D01*
X18900148Y-34615094D01*
X18877163Y-34539324D01*
X18853575Y-34466725D01*
X18852744Y-34458825D01*
X18851806Y-34455731D01*
X18842673Y-34363006D01*
X18835000Y-34290000D01*
X18842672Y-34217000D01*
X18851806Y-34124268D01*
X18852744Y-34121172D01*
X18853575Y-34113275D01*
X18877159Y-34040689D01*
X18900148Y-33964905D01*
X18904316Y-33957106D01*
X18908486Y-33944274D01*
X18944734Y-33881491D01*
X18978653Y-33818034D01*
X18987822Y-33806861D01*
X18997336Y-33790383D01*
X19042619Y-33740090D01*
X19084301Y-33689301D01*
X19099810Y-33676572D01*
X19116239Y-33658327D01*
X19166842Y-33621561D01*
X19213034Y-33583653D01*
X19235676Y-33571550D01*
X19260000Y-33553878D01*
X19312310Y-33530588D01*
X19359905Y-33505148D01*
X19389858Y-33496061D01*
X19422336Y-33481602D01*
X19473091Y-33470813D01*
X19519268Y-33456806D01*
X19556019Y-33453186D01*
X19596151Y-33444656D01*
X19642630Y-33444656D01*
X19685000Y-33440483D01*
X19727369Y-33444656D01*
G37*
G36*
X22267369Y-33444656D02*
G01*
X22313849Y-33444656D01*
X22353981Y-33453186D01*
X22390731Y-33456806D01*
X22436905Y-33470812D01*
X22487664Y-33481602D01*
X22520143Y-33496062D01*
X22550094Y-33505148D01*
X22597683Y-33530585D01*
X22650000Y-33553878D01*
X22674326Y-33571552D01*
X22696965Y-33583653D01*
X22743148Y-33621554D01*
X22793761Y-33658327D01*
X22810192Y-33676575D01*
X22825698Y-33689301D01*
X22867369Y-33740077D01*
X22912664Y-33790383D01*
X22922180Y-33806865D01*
X22931346Y-33818034D01*
X22965252Y-33881467D01*
X23001514Y-33944274D01*
X23005684Y-33957110D01*
X23009851Y-33964905D01*
X23032825Y-34040643D01*
X23056425Y-34113275D01*
X23057255Y-34121177D01*
X23058193Y-34124268D01*
X23067311Y-34216849D01*
X23075000Y-34290000D01*
X23067310Y-34363157D01*
X23058193Y-34455731D01*
X23057255Y-34458820D01*
X23056425Y-34466725D01*
X23032821Y-34539370D01*
X23009851Y-34615094D01*
X23005685Y-34622886D01*
X23001514Y-34635726D01*
X22965245Y-34698544D01*
X22931346Y-34761965D01*
X22922182Y-34773131D01*
X22912664Y-34789617D01*
X22867359Y-34839932D01*
X22825698Y-34890698D01*
X22810195Y-34903420D01*
X22793761Y-34921673D01*
X22743138Y-34958452D01*
X22696965Y-34996346D01*
X22674331Y-35008443D01*
X22650000Y-35026122D01*
X22597672Y-35049419D01*
X22550094Y-35074851D01*
X22520150Y-35083934D01*
X22487664Y-35098398D01*
X22436894Y-35109189D01*
X22390731Y-35123193D01*
X22353990Y-35126811D01*
X22313849Y-35135344D01*
X22267358Y-35135344D01*
X22224999Y-35139516D01*
X22182640Y-35135344D01*
X22136151Y-35135344D01*
X22096010Y-35126811D01*
X22059268Y-35123193D01*
X22013102Y-35109188D01*
X21962336Y-35098398D01*
X21929851Y-35083935D01*
X21899905Y-35074851D01*
X21852321Y-35049416D01*
X21800000Y-35026122D01*
X21775670Y-35008445D01*
X21753034Y-34996346D01*
X21706853Y-34958446D01*
X21656239Y-34921673D01*
X21639807Y-34903423D01*
X21624301Y-34890698D01*
X21582628Y-34839920D01*
X21537336Y-34789617D01*
X21527820Y-34773135D01*
X21518653Y-34761965D01*
X21484741Y-34698521D01*
X21448486Y-34635726D01*
X21444315Y-34622891D01*
X21440148Y-34615094D01*
X21417163Y-34539324D01*
X21393575Y-34466725D01*
X21392744Y-34458825D01*
X21391806Y-34455731D01*
X21382673Y-34363006D01*
X21375000Y-34290000D01*
X21382672Y-34217000D01*
X21391806Y-34124268D01*
X21392744Y-34121172D01*
X21393575Y-34113275D01*
X21417159Y-34040689D01*
X21440148Y-33964905D01*
X21444316Y-33957106D01*
X21448486Y-33944274D01*
X21484734Y-33881491D01*
X21518653Y-33818034D01*
X21527822Y-33806861D01*
X21537336Y-33790383D01*
X21582619Y-33740090D01*
X21624301Y-33689301D01*
X21639810Y-33676572D01*
X21656239Y-33658327D01*
X21706842Y-33621561D01*
X21753034Y-33583653D01*
X21775676Y-33571550D01*
X21800000Y-33553878D01*
X21852310Y-33530588D01*
X21899905Y-33505148D01*
X21929858Y-33496061D01*
X21962336Y-33481602D01*
X22013091Y-33470813D01*
X22059268Y-33456806D01*
X22096019Y-33453186D01*
X22136151Y-33444656D01*
X22182630Y-33444656D01*
X22225000Y-33440483D01*
X22267369Y-33444656D01*
G37*
G36*
X37512638Y-31134692D02*
G01*
X37557230Y-31134692D01*
X37606890Y-31143975D01*
X37660090Y-31149215D01*
X37700508Y-31161475D01*
X37738545Y-31168586D01*
X37791223Y-31188993D01*
X37847683Y-31206120D01*
X37879940Y-31223361D01*
X37910545Y-31235218D01*
X37963722Y-31268144D01*
X38020570Y-31298530D01*
X38044456Y-31318133D01*
X38067377Y-31332325D01*
X38118163Y-31378622D01*
X38172107Y-31422893D01*
X38188091Y-31442370D01*
X38203691Y-31456591D01*
X38248978Y-31516561D01*
X38296470Y-31574430D01*
X38305653Y-31591611D01*
X38314855Y-31603796D01*
X38351462Y-31677313D01*
X38388880Y-31747317D01*
X38392870Y-31760472D01*
X38397071Y-31768908D01*
X38421884Y-31856118D01*
X38445785Y-31934910D01*
X38446570Y-31942882D01*
X38447552Y-31946333D01*
X38457753Y-32056424D01*
X38465000Y-32130000D01*
X38457752Y-32203581D01*
X38447552Y-32313666D01*
X38446570Y-32317116D01*
X38445785Y-32325090D01*
X38421879Y-32403897D01*
X38397071Y-32491091D01*
X38392871Y-32499524D01*
X38388880Y-32512683D01*
X38351455Y-32582700D01*
X38314855Y-32656203D01*
X38305655Y-32668385D01*
X38296470Y-32685570D01*
X38248968Y-32743450D01*
X38203691Y-32803408D01*
X38188094Y-32817625D01*
X38172107Y-32837107D01*
X38118152Y-32881386D01*
X38067377Y-32927674D01*
X38044461Y-32941862D01*
X38020570Y-32961470D01*
X37963710Y-32991861D01*
X37910545Y-33024781D01*
X37879947Y-33036634D01*
X37847683Y-33053880D01*
X37791211Y-33071010D01*
X37738545Y-33091413D01*
X37700515Y-33098522D01*
X37660090Y-33110785D01*
X37606887Y-33116025D01*
X37557230Y-33125308D01*
X37512638Y-33125308D01*
X37465000Y-33130000D01*
X37417362Y-33125308D01*
X37372770Y-33125308D01*
X37323112Y-33116025D01*
X37269910Y-33110785D01*
X37229485Y-33098522D01*
X37191454Y-33091413D01*
X37138783Y-33071008D01*
X37082317Y-33053880D01*
X37050055Y-33036635D01*
X37019454Y-33024781D01*
X36966281Y-32991857D01*
X36909430Y-32961470D01*
X36885541Y-32941865D01*
X36862622Y-32927674D01*
X36811837Y-32881377D01*
X36757893Y-32837107D01*
X36741908Y-32817629D01*
X36726308Y-32803408D01*
X36681018Y-32743435D01*
X36633530Y-32685570D01*
X36624346Y-32668389D01*
X36615144Y-32656203D01*
X36578530Y-32582672D01*
X36541120Y-32512683D01*
X36537130Y-32499530D01*
X36532928Y-32491091D01*
X36508104Y-32403843D01*
X36484215Y-32325090D01*
X36483430Y-32317121D01*
X36482447Y-32313666D01*
X36472230Y-32203410D01*
X36465000Y-32130000D01*
X36472229Y-32056595D01*
X36482447Y-31946333D01*
X36483430Y-31942876D01*
X36484215Y-31934910D01*
X36508099Y-31856171D01*
X36532928Y-31768908D01*
X36537130Y-31760467D01*
X36541120Y-31747317D01*
X36578522Y-31677340D01*
X36615144Y-31603796D01*
X36624348Y-31591606D01*
X36633530Y-31574430D01*
X36681009Y-31516576D01*
X36726308Y-31456591D01*
X36741911Y-31442366D01*
X36757893Y-31422893D01*
X36811826Y-31378631D01*
X36862622Y-31332325D01*
X36885546Y-31318130D01*
X36909430Y-31298530D01*
X36966269Y-31268148D01*
X37019454Y-31235218D01*
X37050062Y-31223360D01*
X37082317Y-31206120D01*
X37138771Y-31188994D01*
X37191454Y-31168586D01*
X37229492Y-31161475D01*
X37269910Y-31149215D01*
X37323109Y-31143975D01*
X37372770Y-31134692D01*
X37417362Y-31134692D01*
X37465000Y-31130000D01*
X37512638Y-31134692D01*
G37*
G36*
X73512638Y-31134692D02*
G01*
X73557230Y-31134692D01*
X73606890Y-31143975D01*
X73660090Y-31149215D01*
X73700508Y-31161475D01*
X73738545Y-31168586D01*
X73791223Y-31188993D01*
X73847683Y-31206120D01*
X73879940Y-31223361D01*
X73910545Y-31235218D01*
X73963722Y-31268144D01*
X74020570Y-31298530D01*
X74044456Y-31318133D01*
X74067377Y-31332325D01*
X74118163Y-31378622D01*
X74172107Y-31422893D01*
X74188091Y-31442370D01*
X74203691Y-31456591D01*
X74248978Y-31516561D01*
X74296470Y-31574430D01*
X74305653Y-31591611D01*
X74314855Y-31603796D01*
X74351462Y-31677313D01*
X74388880Y-31747317D01*
X74392870Y-31760472D01*
X74397071Y-31768908D01*
X74421884Y-31856118D01*
X74445785Y-31934910D01*
X74446570Y-31942882D01*
X74447552Y-31946333D01*
X74457753Y-32056424D01*
X74465000Y-32130000D01*
X74457752Y-32203581D01*
X74447552Y-32313666D01*
X74446570Y-32317116D01*
X74445785Y-32325090D01*
X74421879Y-32403897D01*
X74397071Y-32491091D01*
X74392871Y-32499524D01*
X74388880Y-32512683D01*
X74351455Y-32582700D01*
X74314855Y-32656203D01*
X74305655Y-32668385D01*
X74296470Y-32685570D01*
X74248968Y-32743450D01*
X74203691Y-32803408D01*
X74188094Y-32817625D01*
X74172107Y-32837107D01*
X74118152Y-32881386D01*
X74067377Y-32927674D01*
X74044461Y-32941862D01*
X74020570Y-32961470D01*
X73963710Y-32991861D01*
X73910545Y-33024781D01*
X73879947Y-33036634D01*
X73847683Y-33053880D01*
X73791211Y-33071010D01*
X73738545Y-33091413D01*
X73700515Y-33098522D01*
X73660090Y-33110785D01*
X73606887Y-33116025D01*
X73557230Y-33125308D01*
X73512638Y-33125308D01*
X73465000Y-33130000D01*
X73417362Y-33125308D01*
X73372770Y-33125308D01*
X73323112Y-33116025D01*
X73269910Y-33110785D01*
X73229485Y-33098522D01*
X73191454Y-33091413D01*
X73138783Y-33071008D01*
X73082317Y-33053880D01*
X73050055Y-33036635D01*
X73019454Y-33024781D01*
X72966281Y-32991857D01*
X72909430Y-32961470D01*
X72885541Y-32941865D01*
X72862622Y-32927674D01*
X72811837Y-32881377D01*
X72757893Y-32837107D01*
X72741908Y-32817629D01*
X72726308Y-32803408D01*
X72681018Y-32743435D01*
X72633530Y-32685570D01*
X72624346Y-32668389D01*
X72615144Y-32656203D01*
X72578530Y-32582672D01*
X72541120Y-32512683D01*
X72537130Y-32499530D01*
X72532928Y-32491091D01*
X72508104Y-32403843D01*
X72484215Y-32325090D01*
X72483430Y-32317121D01*
X72482447Y-32313666D01*
X72472231Y-32203419D01*
X72465000Y-32130000D01*
X72472228Y-32056605D01*
X72482447Y-31946333D01*
X72483430Y-31942876D01*
X72484215Y-31934910D01*
X72508099Y-31856171D01*
X72532928Y-31768908D01*
X72537130Y-31760467D01*
X72541120Y-31747317D01*
X72578522Y-31677340D01*
X72615144Y-31603796D01*
X72624348Y-31591606D01*
X72633530Y-31574430D01*
X72681009Y-31516576D01*
X72726308Y-31456591D01*
X72741911Y-31442366D01*
X72757893Y-31422893D01*
X72811826Y-31378631D01*
X72862622Y-31332325D01*
X72885546Y-31318130D01*
X72909430Y-31298530D01*
X72966269Y-31268148D01*
X73019454Y-31235218D01*
X73050062Y-31223360D01*
X73082317Y-31206120D01*
X73138771Y-31188994D01*
X73191454Y-31168586D01*
X73229492Y-31161475D01*
X73269910Y-31149215D01*
X73323109Y-31143975D01*
X73372770Y-31134692D01*
X73417362Y-31134692D01*
X73465000Y-31130000D01*
X73512638Y-31134692D01*
G37*
G36*
X19727369Y-30904656D02*
G01*
X19773849Y-30904656D01*
X19813981Y-30913186D01*
X19850731Y-30916806D01*
X19896905Y-30930812D01*
X19947664Y-30941602D01*
X19980143Y-30956062D01*
X20010094Y-30965148D01*
X20057683Y-30990585D01*
X20110000Y-31013878D01*
X20134326Y-31031552D01*
X20156965Y-31043653D01*
X20203148Y-31081554D01*
X20253761Y-31118327D01*
X20270192Y-31136575D01*
X20285698Y-31149301D01*
X20327369Y-31200077D01*
X20372664Y-31250383D01*
X20382180Y-31266865D01*
X20391346Y-31278034D01*
X20425252Y-31341467D01*
X20461514Y-31404274D01*
X20465684Y-31417110D01*
X20469851Y-31424905D01*
X20492825Y-31500643D01*
X20516425Y-31573275D01*
X20517255Y-31581177D01*
X20518193Y-31584268D01*
X20527311Y-31676849D01*
X20535000Y-31750000D01*
X20527310Y-31823157D01*
X20518193Y-31915731D01*
X20517255Y-31918820D01*
X20516425Y-31926725D01*
X20492821Y-31999370D01*
X20469851Y-32075094D01*
X20465685Y-32082886D01*
X20461514Y-32095726D01*
X20425245Y-32158544D01*
X20391346Y-32221965D01*
X20382182Y-32233131D01*
X20372664Y-32249617D01*
X20327359Y-32299932D01*
X20285698Y-32350698D01*
X20270195Y-32363420D01*
X20253761Y-32381673D01*
X20203138Y-32418452D01*
X20156965Y-32456346D01*
X20134331Y-32468443D01*
X20110000Y-32486122D01*
X20057672Y-32509419D01*
X20010094Y-32534851D01*
X19980150Y-32543934D01*
X19947664Y-32558398D01*
X19896894Y-32569189D01*
X19850731Y-32583193D01*
X19813990Y-32586811D01*
X19773849Y-32595344D01*
X19727358Y-32595344D01*
X19684999Y-32599516D01*
X19642640Y-32595344D01*
X19596151Y-32595344D01*
X19556010Y-32586811D01*
X19519268Y-32583193D01*
X19473102Y-32569188D01*
X19422336Y-32558398D01*
X19389851Y-32543935D01*
X19359905Y-32534851D01*
X19312321Y-32509416D01*
X19260000Y-32486122D01*
X19235670Y-32468445D01*
X19213034Y-32456346D01*
X19166853Y-32418446D01*
X19116239Y-32381673D01*
X19099807Y-32363423D01*
X19084301Y-32350698D01*
X19042628Y-32299920D01*
X18997336Y-32249617D01*
X18987820Y-32233135D01*
X18978653Y-32221965D01*
X18944741Y-32158521D01*
X18908486Y-32095726D01*
X18904315Y-32082891D01*
X18900148Y-32075094D01*
X18877163Y-31999324D01*
X18853575Y-31926725D01*
X18852744Y-31918825D01*
X18851806Y-31915731D01*
X18842673Y-31823006D01*
X18835000Y-31750000D01*
X18842672Y-31677000D01*
X18851806Y-31584268D01*
X18852744Y-31581172D01*
X18853575Y-31573275D01*
X18877159Y-31500689D01*
X18900148Y-31424905D01*
X18904316Y-31417106D01*
X18908486Y-31404274D01*
X18944734Y-31341491D01*
X18978653Y-31278034D01*
X18987822Y-31266861D01*
X18997336Y-31250383D01*
X19042619Y-31200090D01*
X19084301Y-31149301D01*
X19099810Y-31136572D01*
X19116239Y-31118327D01*
X19166842Y-31081561D01*
X19213034Y-31043653D01*
X19235676Y-31031550D01*
X19260000Y-31013878D01*
X19312310Y-30990588D01*
X19359905Y-30965148D01*
X19389858Y-30956061D01*
X19422336Y-30941602D01*
X19473091Y-30930813D01*
X19519268Y-30916806D01*
X19556019Y-30913186D01*
X19596151Y-30904656D01*
X19642630Y-30904656D01*
X19685000Y-30900483D01*
X19727369Y-30904656D01*
G37*
G36*
X22267369Y-30904656D02*
G01*
X22313849Y-30904656D01*
X22353981Y-30913186D01*
X22390731Y-30916806D01*
X22436905Y-30930812D01*
X22487664Y-30941602D01*
X22520143Y-30956062D01*
X22550094Y-30965148D01*
X22597683Y-30990585D01*
X22650000Y-31013878D01*
X22674326Y-31031552D01*
X22696965Y-31043653D01*
X22743148Y-31081554D01*
X22793761Y-31118327D01*
X22810192Y-31136575D01*
X22825698Y-31149301D01*
X22867369Y-31200077D01*
X22912664Y-31250383D01*
X22922180Y-31266865D01*
X22931346Y-31278034D01*
X22965252Y-31341467D01*
X23001514Y-31404274D01*
X23005684Y-31417110D01*
X23009851Y-31424905D01*
X23032825Y-31500643D01*
X23056425Y-31573275D01*
X23057255Y-31581177D01*
X23058193Y-31584268D01*
X23067311Y-31676849D01*
X23075000Y-31750000D01*
X23067310Y-31823157D01*
X23058193Y-31915731D01*
X23057255Y-31918820D01*
X23056425Y-31926725D01*
X23032821Y-31999370D01*
X23009851Y-32075094D01*
X23005685Y-32082886D01*
X23001514Y-32095726D01*
X22965245Y-32158544D01*
X22931346Y-32221965D01*
X22922182Y-32233131D01*
X22912664Y-32249617D01*
X22867359Y-32299932D01*
X22825698Y-32350698D01*
X22810195Y-32363420D01*
X22793761Y-32381673D01*
X22743138Y-32418452D01*
X22696965Y-32456346D01*
X22674331Y-32468443D01*
X22650000Y-32486122D01*
X22597672Y-32509419D01*
X22550094Y-32534851D01*
X22520150Y-32543934D01*
X22487664Y-32558398D01*
X22436894Y-32569189D01*
X22390731Y-32583193D01*
X22353990Y-32586811D01*
X22313849Y-32595344D01*
X22267358Y-32595344D01*
X22224999Y-32599516D01*
X22182640Y-32595344D01*
X22136151Y-32595344D01*
X22096010Y-32586811D01*
X22059268Y-32583193D01*
X22013102Y-32569188D01*
X21962336Y-32558398D01*
X21929851Y-32543935D01*
X21899905Y-32534851D01*
X21852321Y-32509416D01*
X21800000Y-32486122D01*
X21775670Y-32468445D01*
X21753034Y-32456346D01*
X21706853Y-32418446D01*
X21656239Y-32381673D01*
X21639807Y-32363423D01*
X21624301Y-32350698D01*
X21582628Y-32299920D01*
X21537336Y-32249617D01*
X21527820Y-32233135D01*
X21518653Y-32221965D01*
X21484741Y-32158521D01*
X21448486Y-32095726D01*
X21444315Y-32082891D01*
X21440148Y-32075094D01*
X21417163Y-31999324D01*
X21393575Y-31926725D01*
X21392744Y-31918825D01*
X21391806Y-31915731D01*
X21382673Y-31823006D01*
X21375000Y-31750000D01*
X21382672Y-31677000D01*
X21391806Y-31584268D01*
X21392744Y-31581172D01*
X21393575Y-31573275D01*
X21417159Y-31500689D01*
X21440148Y-31424905D01*
X21444316Y-31417106D01*
X21448486Y-31404274D01*
X21484734Y-31341491D01*
X21518653Y-31278034D01*
X21527822Y-31266861D01*
X21537336Y-31250383D01*
X21582619Y-31200090D01*
X21624301Y-31149301D01*
X21639810Y-31136572D01*
X21656239Y-31118327D01*
X21706842Y-31081561D01*
X21753034Y-31043653D01*
X21775676Y-31031550D01*
X21800000Y-31013878D01*
X21852310Y-30990588D01*
X21899905Y-30965148D01*
X21929858Y-30956061D01*
X21962336Y-30941602D01*
X22013091Y-30930813D01*
X22059268Y-30916806D01*
X22096019Y-30913186D01*
X22136151Y-30904656D01*
X22182630Y-30904656D01*
X22225000Y-30900483D01*
X22267369Y-30904656D01*
G37*
G36*
X19727369Y-28364656D02*
G01*
X19773849Y-28364656D01*
X19813981Y-28373186D01*
X19850731Y-28376806D01*
X19896905Y-28390812D01*
X19947664Y-28401602D01*
X19980143Y-28416062D01*
X20010094Y-28425148D01*
X20057683Y-28450585D01*
X20110000Y-28473878D01*
X20134326Y-28491552D01*
X20156965Y-28503653D01*
X20203148Y-28541554D01*
X20253761Y-28578327D01*
X20270192Y-28596575D01*
X20285698Y-28609301D01*
X20327369Y-28660077D01*
X20372664Y-28710383D01*
X20382180Y-28726865D01*
X20391346Y-28738034D01*
X20425252Y-28801467D01*
X20461514Y-28864274D01*
X20465684Y-28877110D01*
X20469851Y-28884905D01*
X20492825Y-28960643D01*
X20516425Y-29033275D01*
X20517255Y-29041177D01*
X20518193Y-29044268D01*
X20527311Y-29136849D01*
X20535000Y-29210000D01*
X20527310Y-29283157D01*
X20518193Y-29375731D01*
X20517255Y-29378820D01*
X20516425Y-29386725D01*
X20492821Y-29459370D01*
X20469851Y-29535094D01*
X20465685Y-29542886D01*
X20461514Y-29555726D01*
X20425245Y-29618544D01*
X20391346Y-29681965D01*
X20382182Y-29693131D01*
X20372664Y-29709617D01*
X20327359Y-29759932D01*
X20285698Y-29810698D01*
X20270195Y-29823420D01*
X20253761Y-29841673D01*
X20203138Y-29878452D01*
X20156965Y-29916346D01*
X20134331Y-29928443D01*
X20110000Y-29946122D01*
X20057672Y-29969419D01*
X20010094Y-29994851D01*
X19980150Y-30003934D01*
X19947664Y-30018398D01*
X19896894Y-30029189D01*
X19850731Y-30043193D01*
X19813990Y-30046811D01*
X19773849Y-30055344D01*
X19727359Y-30055344D01*
X19685000Y-30059516D01*
X19642641Y-30055344D01*
X19596151Y-30055344D01*
X19556010Y-30046811D01*
X19519268Y-30043193D01*
X19473102Y-30029188D01*
X19422336Y-30018398D01*
X19389851Y-30003935D01*
X19359905Y-29994851D01*
X19312321Y-29969416D01*
X19260000Y-29946122D01*
X19235670Y-29928445D01*
X19213034Y-29916346D01*
X19166853Y-29878446D01*
X19116239Y-29841673D01*
X19099807Y-29823423D01*
X19084301Y-29810698D01*
X19042628Y-29759920D01*
X18997336Y-29709617D01*
X18987820Y-29693135D01*
X18978653Y-29681965D01*
X18944741Y-29618521D01*
X18908486Y-29555726D01*
X18904315Y-29542891D01*
X18900148Y-29535094D01*
X18877163Y-29459324D01*
X18853575Y-29386725D01*
X18852744Y-29378825D01*
X18851806Y-29375731D01*
X18842673Y-29283006D01*
X18835000Y-29210000D01*
X18842672Y-29137000D01*
X18851806Y-29044268D01*
X18852744Y-29041172D01*
X18853575Y-29033275D01*
X18877159Y-28960689D01*
X18900148Y-28884905D01*
X18904316Y-28877106D01*
X18908486Y-28864274D01*
X18944734Y-28801491D01*
X18978653Y-28738034D01*
X18987822Y-28726861D01*
X18997336Y-28710383D01*
X19042619Y-28660090D01*
X19084301Y-28609301D01*
X19099810Y-28596572D01*
X19116239Y-28578327D01*
X19166842Y-28541561D01*
X19213034Y-28503653D01*
X19235676Y-28491550D01*
X19260000Y-28473878D01*
X19312310Y-28450588D01*
X19359905Y-28425148D01*
X19389858Y-28416061D01*
X19422336Y-28401602D01*
X19473091Y-28390813D01*
X19519268Y-28376806D01*
X19556019Y-28373186D01*
X19596151Y-28364656D01*
X19642630Y-28364656D01*
X19685000Y-28360483D01*
X19727369Y-28364656D01*
G37*
G36*
X22267369Y-28364656D02*
G01*
X22313849Y-28364656D01*
X22353981Y-28373186D01*
X22390731Y-28376806D01*
X22436905Y-28390812D01*
X22487664Y-28401602D01*
X22520143Y-28416062D01*
X22550094Y-28425148D01*
X22597683Y-28450585D01*
X22650000Y-28473878D01*
X22674326Y-28491552D01*
X22696965Y-28503653D01*
X22743148Y-28541554D01*
X22793761Y-28578327D01*
X22810192Y-28596575D01*
X22825698Y-28609301D01*
X22867369Y-28660077D01*
X22912664Y-28710383D01*
X22922180Y-28726865D01*
X22931346Y-28738034D01*
X22965252Y-28801467D01*
X23001514Y-28864274D01*
X23005684Y-28877110D01*
X23009851Y-28884905D01*
X23032825Y-28960643D01*
X23056425Y-29033275D01*
X23057255Y-29041177D01*
X23058193Y-29044268D01*
X23067311Y-29136849D01*
X23075000Y-29210000D01*
X23067310Y-29283157D01*
X23058193Y-29375731D01*
X23057255Y-29378820D01*
X23056425Y-29386725D01*
X23032821Y-29459370D01*
X23009851Y-29535094D01*
X23005685Y-29542886D01*
X23001514Y-29555726D01*
X22965245Y-29618544D01*
X22931346Y-29681965D01*
X22922182Y-29693131D01*
X22912664Y-29709617D01*
X22867359Y-29759932D01*
X22825698Y-29810698D01*
X22810195Y-29823420D01*
X22793761Y-29841673D01*
X22743138Y-29878452D01*
X22696965Y-29916346D01*
X22674331Y-29928443D01*
X22650000Y-29946122D01*
X22597672Y-29969419D01*
X22550094Y-29994851D01*
X22520150Y-30003934D01*
X22487664Y-30018398D01*
X22436894Y-30029189D01*
X22390731Y-30043193D01*
X22353990Y-30046811D01*
X22313849Y-30055344D01*
X22267359Y-30055344D01*
X22225000Y-30059516D01*
X22182641Y-30055344D01*
X22136151Y-30055344D01*
X22096010Y-30046811D01*
X22059268Y-30043193D01*
X22013102Y-30029188D01*
X21962336Y-30018398D01*
X21929851Y-30003935D01*
X21899905Y-29994851D01*
X21852321Y-29969416D01*
X21800000Y-29946122D01*
X21775670Y-29928445D01*
X21753034Y-29916346D01*
X21706853Y-29878446D01*
X21656239Y-29841673D01*
X21639807Y-29823423D01*
X21624301Y-29810698D01*
X21582628Y-29759920D01*
X21537336Y-29709617D01*
X21527820Y-29693135D01*
X21518653Y-29681965D01*
X21484741Y-29618521D01*
X21448486Y-29555726D01*
X21444315Y-29542891D01*
X21440148Y-29535094D01*
X21417163Y-29459324D01*
X21393575Y-29386725D01*
X21392744Y-29378825D01*
X21391806Y-29375731D01*
X21382673Y-29283006D01*
X21375000Y-29210000D01*
X21382672Y-29137000D01*
X21391806Y-29044268D01*
X21392744Y-29041172D01*
X21393575Y-29033275D01*
X21417159Y-28960689D01*
X21440148Y-28884905D01*
X21444316Y-28877106D01*
X21448486Y-28864274D01*
X21484734Y-28801491D01*
X21518653Y-28738034D01*
X21527822Y-28726861D01*
X21537336Y-28710383D01*
X21582619Y-28660090D01*
X21624301Y-28609301D01*
X21639810Y-28596572D01*
X21656239Y-28578327D01*
X21706842Y-28541561D01*
X21753034Y-28503653D01*
X21775676Y-28491550D01*
X21800000Y-28473878D01*
X21852310Y-28450588D01*
X21899905Y-28425148D01*
X21929858Y-28416061D01*
X21962336Y-28401602D01*
X22013091Y-28390813D01*
X22059268Y-28376806D01*
X22096019Y-28373186D01*
X22136151Y-28364656D01*
X22182630Y-28364656D01*
X22225000Y-28360483D01*
X22267369Y-28364656D01*
G37*
G36*
X37512638Y-27134692D02*
G01*
X37557230Y-27134692D01*
X37606890Y-27143975D01*
X37660090Y-27149215D01*
X37700508Y-27161475D01*
X37738545Y-27168586D01*
X37791223Y-27188993D01*
X37847683Y-27206120D01*
X37879940Y-27223361D01*
X37910545Y-27235218D01*
X37963722Y-27268144D01*
X38020570Y-27298530D01*
X38044456Y-27318133D01*
X38067377Y-27332325D01*
X38118163Y-27378622D01*
X38172107Y-27422893D01*
X38188091Y-27442370D01*
X38203691Y-27456591D01*
X38248978Y-27516561D01*
X38296470Y-27574430D01*
X38305653Y-27591611D01*
X38314855Y-27603796D01*
X38351462Y-27677313D01*
X38388880Y-27747317D01*
X38392870Y-27760472D01*
X38397071Y-27768908D01*
X38421884Y-27856118D01*
X38445785Y-27934910D01*
X38446570Y-27942882D01*
X38447552Y-27946333D01*
X38457753Y-28056424D01*
X38465000Y-28130000D01*
X38457752Y-28203581D01*
X38447552Y-28313666D01*
X38446570Y-28317116D01*
X38445785Y-28325090D01*
X38421879Y-28403897D01*
X38397071Y-28491091D01*
X38392871Y-28499524D01*
X38388880Y-28512683D01*
X38351455Y-28582700D01*
X38314855Y-28656203D01*
X38305655Y-28668385D01*
X38296470Y-28685570D01*
X38248968Y-28743450D01*
X38203691Y-28803408D01*
X38188094Y-28817625D01*
X38172107Y-28837107D01*
X38118152Y-28881386D01*
X38067377Y-28927674D01*
X38044461Y-28941862D01*
X38020570Y-28961470D01*
X37963710Y-28991861D01*
X37910545Y-29024781D01*
X37879947Y-29036634D01*
X37847683Y-29053880D01*
X37791211Y-29071010D01*
X37738545Y-29091413D01*
X37700515Y-29098522D01*
X37660090Y-29110785D01*
X37606887Y-29116025D01*
X37557230Y-29125308D01*
X37512638Y-29125308D01*
X37465000Y-29130000D01*
X37417362Y-29125308D01*
X37372770Y-29125308D01*
X37323112Y-29116025D01*
X37269910Y-29110785D01*
X37229485Y-29098522D01*
X37191454Y-29091413D01*
X37138783Y-29071008D01*
X37082317Y-29053880D01*
X37050055Y-29036635D01*
X37019454Y-29024781D01*
X36966281Y-28991857D01*
X36909430Y-28961470D01*
X36885541Y-28941865D01*
X36862622Y-28927674D01*
X36811837Y-28881377D01*
X36757893Y-28837107D01*
X36741908Y-28817629D01*
X36726308Y-28803408D01*
X36681018Y-28743435D01*
X36633530Y-28685570D01*
X36624346Y-28668389D01*
X36615144Y-28656203D01*
X36578530Y-28582672D01*
X36541120Y-28512683D01*
X36537130Y-28499530D01*
X36532928Y-28491091D01*
X36508104Y-28403843D01*
X36484215Y-28325090D01*
X36483430Y-28317121D01*
X36482447Y-28313666D01*
X36472230Y-28203410D01*
X36465000Y-28130000D01*
X36472229Y-28056595D01*
X36482447Y-27946333D01*
X36483430Y-27942876D01*
X36484215Y-27934910D01*
X36508099Y-27856171D01*
X36532928Y-27768908D01*
X36537130Y-27760467D01*
X36541120Y-27747317D01*
X36578522Y-27677340D01*
X36615144Y-27603796D01*
X36624348Y-27591606D01*
X36633530Y-27574430D01*
X36681009Y-27516576D01*
X36726308Y-27456591D01*
X36741911Y-27442366D01*
X36757893Y-27422893D01*
X36811826Y-27378631D01*
X36862622Y-27332325D01*
X36885546Y-27318130D01*
X36909430Y-27298530D01*
X36966269Y-27268148D01*
X37019454Y-27235218D01*
X37050062Y-27223360D01*
X37082317Y-27206120D01*
X37138771Y-27188994D01*
X37191454Y-27168586D01*
X37229492Y-27161475D01*
X37269910Y-27149215D01*
X37323109Y-27143975D01*
X37372770Y-27134692D01*
X37417362Y-27134692D01*
X37465000Y-27130000D01*
X37512638Y-27134692D01*
G37*
G36*
X73512638Y-27134692D02*
G01*
X73557230Y-27134692D01*
X73606890Y-27143975D01*
X73660090Y-27149215D01*
X73700508Y-27161475D01*
X73738545Y-27168586D01*
X73791223Y-27188993D01*
X73847683Y-27206120D01*
X73879940Y-27223361D01*
X73910545Y-27235218D01*
X73963722Y-27268144D01*
X74020570Y-27298530D01*
X74044456Y-27318133D01*
X74067377Y-27332325D01*
X74118163Y-27378622D01*
X74172107Y-27422893D01*
X74188091Y-27442370D01*
X74203691Y-27456591D01*
X74248978Y-27516561D01*
X74296470Y-27574430D01*
X74305653Y-27591611D01*
X74314855Y-27603796D01*
X74351462Y-27677313D01*
X74388880Y-27747317D01*
X74392870Y-27760472D01*
X74397071Y-27768908D01*
X74421884Y-27856118D01*
X74445785Y-27934910D01*
X74446570Y-27942882D01*
X74447552Y-27946333D01*
X74457753Y-28056424D01*
X74465000Y-28130000D01*
X74457752Y-28203581D01*
X74447552Y-28313666D01*
X74446570Y-28317116D01*
X74445785Y-28325090D01*
X74421879Y-28403897D01*
X74397071Y-28491091D01*
X74392871Y-28499524D01*
X74388880Y-28512683D01*
X74351455Y-28582700D01*
X74314855Y-28656203D01*
X74305655Y-28668385D01*
X74296470Y-28685570D01*
X74248968Y-28743450D01*
X74203691Y-28803408D01*
X74188094Y-28817625D01*
X74172107Y-28837107D01*
X74118152Y-28881386D01*
X74067377Y-28927674D01*
X74044461Y-28941862D01*
X74020570Y-28961470D01*
X73963710Y-28991861D01*
X73910545Y-29024781D01*
X73879947Y-29036634D01*
X73847683Y-29053880D01*
X73791211Y-29071010D01*
X73738545Y-29091413D01*
X73700515Y-29098522D01*
X73660090Y-29110785D01*
X73606887Y-29116025D01*
X73557230Y-29125308D01*
X73512638Y-29125308D01*
X73465000Y-29130000D01*
X73417362Y-29125308D01*
X73372770Y-29125308D01*
X73323112Y-29116025D01*
X73269910Y-29110785D01*
X73229485Y-29098522D01*
X73191454Y-29091413D01*
X73138783Y-29071008D01*
X73082317Y-29053880D01*
X73050055Y-29036635D01*
X73019454Y-29024781D01*
X72966281Y-28991857D01*
X72909430Y-28961470D01*
X72885541Y-28941865D01*
X72862622Y-28927674D01*
X72811837Y-28881377D01*
X72757893Y-28837107D01*
X72741908Y-28817629D01*
X72726308Y-28803408D01*
X72681018Y-28743435D01*
X72633530Y-28685570D01*
X72624346Y-28668389D01*
X72615144Y-28656203D01*
X72578530Y-28582672D01*
X72541120Y-28512683D01*
X72537130Y-28499530D01*
X72532928Y-28491091D01*
X72508104Y-28403843D01*
X72484215Y-28325090D01*
X72483430Y-28317121D01*
X72482447Y-28313666D01*
X72472231Y-28203419D01*
X72465000Y-28130000D01*
X72472228Y-28056605D01*
X72482447Y-27946333D01*
X72483430Y-27942876D01*
X72484215Y-27934910D01*
X72508099Y-27856171D01*
X72532928Y-27768908D01*
X72537130Y-27760467D01*
X72541120Y-27747317D01*
X72578522Y-27677340D01*
X72615144Y-27603796D01*
X72624348Y-27591606D01*
X72633530Y-27574430D01*
X72681009Y-27516576D01*
X72726308Y-27456591D01*
X72741911Y-27442366D01*
X72757893Y-27422893D01*
X72811826Y-27378631D01*
X72862622Y-27332325D01*
X72885546Y-27318130D01*
X72909430Y-27298530D01*
X72966269Y-27268148D01*
X73019454Y-27235218D01*
X73050062Y-27223360D01*
X73082317Y-27206120D01*
X73138771Y-27188994D01*
X73191454Y-27168586D01*
X73229492Y-27161475D01*
X73269910Y-27149215D01*
X73323109Y-27143975D01*
X73372770Y-27134692D01*
X73417362Y-27134692D01*
X73465000Y-27130000D01*
X73512638Y-27134692D01*
G37*
G36*
X19727369Y-25824656D02*
G01*
X19773849Y-25824656D01*
X19813981Y-25833186D01*
X19850731Y-25836806D01*
X19896905Y-25850812D01*
X19947664Y-25861602D01*
X19980143Y-25876062D01*
X20010094Y-25885148D01*
X20057683Y-25910585D01*
X20110000Y-25933878D01*
X20134326Y-25951552D01*
X20156965Y-25963653D01*
X20203148Y-26001554D01*
X20253761Y-26038327D01*
X20270192Y-26056575D01*
X20285698Y-26069301D01*
X20327369Y-26120077D01*
X20372664Y-26170383D01*
X20382180Y-26186865D01*
X20391346Y-26198034D01*
X20425252Y-26261467D01*
X20461514Y-26324274D01*
X20465684Y-26337110D01*
X20469851Y-26344905D01*
X20492825Y-26420643D01*
X20516425Y-26493275D01*
X20517255Y-26501177D01*
X20518193Y-26504268D01*
X20527311Y-26596849D01*
X20535000Y-26670000D01*
X20527310Y-26743157D01*
X20518193Y-26835731D01*
X20517255Y-26838820D01*
X20516425Y-26846725D01*
X20492821Y-26919370D01*
X20469851Y-26995094D01*
X20465685Y-27002886D01*
X20461514Y-27015726D01*
X20425245Y-27078544D01*
X20391346Y-27141965D01*
X20382182Y-27153131D01*
X20372664Y-27169617D01*
X20327359Y-27219932D01*
X20285698Y-27270698D01*
X20270195Y-27283420D01*
X20253761Y-27301673D01*
X20203138Y-27338452D01*
X20156965Y-27376346D01*
X20134331Y-27388443D01*
X20110000Y-27406122D01*
X20057672Y-27429419D01*
X20010094Y-27454851D01*
X19980150Y-27463934D01*
X19947664Y-27478398D01*
X19896894Y-27489189D01*
X19850731Y-27503193D01*
X19813990Y-27506811D01*
X19773849Y-27515344D01*
X19727359Y-27515344D01*
X19685000Y-27519516D01*
X19642641Y-27515344D01*
X19596151Y-27515344D01*
X19556010Y-27506811D01*
X19519268Y-27503193D01*
X19473102Y-27489188D01*
X19422336Y-27478398D01*
X19389851Y-27463935D01*
X19359905Y-27454851D01*
X19312321Y-27429416D01*
X19260000Y-27406122D01*
X19235670Y-27388445D01*
X19213034Y-27376346D01*
X19166853Y-27338446D01*
X19116239Y-27301673D01*
X19099807Y-27283423D01*
X19084301Y-27270698D01*
X19042628Y-27219920D01*
X18997336Y-27169617D01*
X18987820Y-27153135D01*
X18978653Y-27141965D01*
X18944741Y-27078521D01*
X18908486Y-27015726D01*
X18904315Y-27002891D01*
X18900148Y-26995094D01*
X18877163Y-26919324D01*
X18853575Y-26846725D01*
X18852744Y-26838825D01*
X18851806Y-26835731D01*
X18842673Y-26743006D01*
X18835000Y-26670000D01*
X18842672Y-26597000D01*
X18851806Y-26504268D01*
X18852744Y-26501172D01*
X18853575Y-26493275D01*
X18877159Y-26420689D01*
X18900148Y-26344905D01*
X18904316Y-26337106D01*
X18908486Y-26324274D01*
X18944734Y-26261491D01*
X18978653Y-26198034D01*
X18987822Y-26186861D01*
X18997336Y-26170383D01*
X19042619Y-26120090D01*
X19084301Y-26069301D01*
X19099810Y-26056572D01*
X19116239Y-26038327D01*
X19166842Y-26001561D01*
X19213034Y-25963653D01*
X19235676Y-25951550D01*
X19260000Y-25933878D01*
X19312310Y-25910588D01*
X19359905Y-25885148D01*
X19389858Y-25876061D01*
X19422336Y-25861602D01*
X19473091Y-25850813D01*
X19519268Y-25836806D01*
X19556019Y-25833186D01*
X19596151Y-25824656D01*
X19642630Y-25824656D01*
X19685000Y-25820483D01*
X19727369Y-25824656D01*
G37*
G36*
X22267369Y-25824656D02*
G01*
X22313849Y-25824656D01*
X22353981Y-25833186D01*
X22390731Y-25836806D01*
X22436905Y-25850812D01*
X22487664Y-25861602D01*
X22520143Y-25876062D01*
X22550094Y-25885148D01*
X22597683Y-25910585D01*
X22650000Y-25933878D01*
X22674326Y-25951552D01*
X22696965Y-25963653D01*
X22743148Y-26001554D01*
X22793761Y-26038327D01*
X22810192Y-26056575D01*
X22825698Y-26069301D01*
X22867369Y-26120077D01*
X22912664Y-26170383D01*
X22922180Y-26186865D01*
X22931346Y-26198034D01*
X22965252Y-26261467D01*
X23001514Y-26324274D01*
X23005684Y-26337110D01*
X23009851Y-26344905D01*
X23032825Y-26420643D01*
X23056425Y-26493275D01*
X23057255Y-26501177D01*
X23058193Y-26504268D01*
X23067311Y-26596849D01*
X23075000Y-26670000D01*
X23067310Y-26743157D01*
X23058193Y-26835731D01*
X23057255Y-26838820D01*
X23056425Y-26846725D01*
X23032821Y-26919370D01*
X23009851Y-26995094D01*
X23005685Y-27002886D01*
X23001514Y-27015726D01*
X22965245Y-27078544D01*
X22931346Y-27141965D01*
X22922182Y-27153131D01*
X22912664Y-27169617D01*
X22867359Y-27219932D01*
X22825698Y-27270698D01*
X22810195Y-27283420D01*
X22793761Y-27301673D01*
X22743138Y-27338452D01*
X22696965Y-27376346D01*
X22674331Y-27388443D01*
X22650000Y-27406122D01*
X22597672Y-27429419D01*
X22550094Y-27454851D01*
X22520150Y-27463934D01*
X22487664Y-27478398D01*
X22436894Y-27489189D01*
X22390731Y-27503193D01*
X22353990Y-27506811D01*
X22313849Y-27515344D01*
X22267359Y-27515344D01*
X22225000Y-27519516D01*
X22182641Y-27515344D01*
X22136151Y-27515344D01*
X22096010Y-27506811D01*
X22059268Y-27503193D01*
X22013102Y-27489188D01*
X21962336Y-27478398D01*
X21929851Y-27463935D01*
X21899905Y-27454851D01*
X21852321Y-27429416D01*
X21800000Y-27406122D01*
X21775670Y-27388445D01*
X21753034Y-27376346D01*
X21706853Y-27338446D01*
X21656239Y-27301673D01*
X21639807Y-27283423D01*
X21624301Y-27270698D01*
X21582628Y-27219920D01*
X21537336Y-27169617D01*
X21527820Y-27153135D01*
X21518653Y-27141965D01*
X21484741Y-27078521D01*
X21448486Y-27015726D01*
X21444315Y-27002891D01*
X21440148Y-26995094D01*
X21417163Y-26919324D01*
X21393575Y-26846725D01*
X21392744Y-26838825D01*
X21391806Y-26835731D01*
X21382673Y-26743006D01*
X21375000Y-26670000D01*
X21382672Y-26597000D01*
X21391806Y-26504268D01*
X21392744Y-26501172D01*
X21393575Y-26493275D01*
X21417159Y-26420689D01*
X21440148Y-26344905D01*
X21444316Y-26337106D01*
X21448486Y-26324274D01*
X21484734Y-26261491D01*
X21518653Y-26198034D01*
X21527822Y-26186861D01*
X21537336Y-26170383D01*
X21582619Y-26120090D01*
X21624301Y-26069301D01*
X21639810Y-26056572D01*
X21656239Y-26038327D01*
X21706842Y-26001561D01*
X21753034Y-25963653D01*
X21775676Y-25951550D01*
X21800000Y-25933878D01*
X21852310Y-25910588D01*
X21899905Y-25885148D01*
X21929858Y-25876061D01*
X21962336Y-25861602D01*
X22013091Y-25850813D01*
X22059268Y-25836806D01*
X22096019Y-25833186D01*
X22136151Y-25824656D01*
X22182630Y-25824656D01*
X22225000Y-25820483D01*
X22267369Y-25824656D01*
G37*
G36*
X37512638Y-23134692D02*
G01*
X37557230Y-23134692D01*
X37606890Y-23143975D01*
X37660090Y-23149215D01*
X37700508Y-23161475D01*
X37738545Y-23168586D01*
X37791223Y-23188993D01*
X37847683Y-23206120D01*
X37879940Y-23223361D01*
X37910545Y-23235218D01*
X37963722Y-23268144D01*
X38020570Y-23298530D01*
X38044456Y-23318133D01*
X38067377Y-23332325D01*
X38118163Y-23378622D01*
X38172107Y-23422893D01*
X38188091Y-23442370D01*
X38203691Y-23456591D01*
X38248978Y-23516561D01*
X38296470Y-23574430D01*
X38305653Y-23591611D01*
X38314855Y-23603796D01*
X38351462Y-23677313D01*
X38388880Y-23747317D01*
X38392870Y-23760472D01*
X38397071Y-23768908D01*
X38421884Y-23856118D01*
X38445785Y-23934910D01*
X38446570Y-23942882D01*
X38447552Y-23946333D01*
X38457753Y-24056424D01*
X38465000Y-24130000D01*
X38457752Y-24203581D01*
X38447552Y-24313666D01*
X38446570Y-24317116D01*
X38445785Y-24325090D01*
X38421879Y-24403897D01*
X38397071Y-24491091D01*
X38392871Y-24499524D01*
X38388880Y-24512683D01*
X38351455Y-24582700D01*
X38314855Y-24656203D01*
X38305655Y-24668385D01*
X38296470Y-24685570D01*
X38248968Y-24743450D01*
X38203691Y-24803408D01*
X38188094Y-24817625D01*
X38172107Y-24837107D01*
X38118152Y-24881386D01*
X38067377Y-24927674D01*
X38044461Y-24941862D01*
X38020570Y-24961470D01*
X37963710Y-24991861D01*
X37910545Y-25024781D01*
X37879947Y-25036634D01*
X37847683Y-25053880D01*
X37791211Y-25071010D01*
X37738545Y-25091413D01*
X37700515Y-25098522D01*
X37660090Y-25110785D01*
X37606887Y-25116025D01*
X37557230Y-25125308D01*
X37512638Y-25125308D01*
X37465000Y-25130000D01*
X37417362Y-25125308D01*
X37372770Y-25125308D01*
X37323112Y-25116025D01*
X37269910Y-25110785D01*
X37229485Y-25098522D01*
X37191454Y-25091413D01*
X37138783Y-25071008D01*
X37082317Y-25053880D01*
X37050055Y-25036635D01*
X37019454Y-25024781D01*
X36966281Y-24991857D01*
X36909430Y-24961470D01*
X36885541Y-24941865D01*
X36862622Y-24927674D01*
X36811837Y-24881377D01*
X36757893Y-24837107D01*
X36741908Y-24817629D01*
X36726308Y-24803408D01*
X36681018Y-24743435D01*
X36633530Y-24685570D01*
X36624346Y-24668389D01*
X36615144Y-24656203D01*
X36578530Y-24582672D01*
X36541120Y-24512683D01*
X36537130Y-24499530D01*
X36532928Y-24491091D01*
X36508104Y-24403843D01*
X36484215Y-24325090D01*
X36483430Y-24317121D01*
X36482447Y-24313666D01*
X36472230Y-24203410D01*
X36465000Y-24130000D01*
X36472229Y-24056595D01*
X36482447Y-23946333D01*
X36483430Y-23942876D01*
X36484215Y-23934910D01*
X36508099Y-23856171D01*
X36532928Y-23768908D01*
X36537130Y-23760467D01*
X36541120Y-23747317D01*
X36578522Y-23677340D01*
X36615144Y-23603796D01*
X36624348Y-23591606D01*
X36633530Y-23574430D01*
X36681009Y-23516576D01*
X36726308Y-23456591D01*
X36741911Y-23442366D01*
X36757893Y-23422893D01*
X36811826Y-23378631D01*
X36862622Y-23332325D01*
X36885546Y-23318130D01*
X36909430Y-23298530D01*
X36966269Y-23268148D01*
X37019454Y-23235218D01*
X37050062Y-23223360D01*
X37082317Y-23206120D01*
X37138771Y-23188994D01*
X37191454Y-23168586D01*
X37229492Y-23161475D01*
X37269910Y-23149215D01*
X37323109Y-23143975D01*
X37372770Y-23134692D01*
X37417362Y-23134692D01*
X37465000Y-23130000D01*
X37512638Y-23134692D01*
G37*
G36*
X41512638Y-23134692D02*
G01*
X41557230Y-23134692D01*
X41606890Y-23143975D01*
X41660090Y-23149215D01*
X41700508Y-23161475D01*
X41738545Y-23168586D01*
X41791223Y-23188993D01*
X41847683Y-23206120D01*
X41879940Y-23223361D01*
X41910545Y-23235218D01*
X41963722Y-23268144D01*
X42020570Y-23298530D01*
X42044456Y-23318133D01*
X42067377Y-23332325D01*
X42118163Y-23378622D01*
X42172107Y-23422893D01*
X42188091Y-23442370D01*
X42203691Y-23456591D01*
X42248978Y-23516561D01*
X42296470Y-23574430D01*
X42305653Y-23591611D01*
X42314855Y-23603796D01*
X42351462Y-23677313D01*
X42388880Y-23747317D01*
X42392870Y-23760472D01*
X42397071Y-23768908D01*
X42421884Y-23856118D01*
X42445785Y-23934910D01*
X42446570Y-23942882D01*
X42447552Y-23946333D01*
X42457753Y-24056424D01*
X42465000Y-24130000D01*
X42457752Y-24203581D01*
X42447552Y-24313666D01*
X42446570Y-24317116D01*
X42445785Y-24325090D01*
X42421879Y-24403897D01*
X42397071Y-24491091D01*
X42392871Y-24499524D01*
X42388880Y-24512683D01*
X42351455Y-24582700D01*
X42314855Y-24656203D01*
X42305655Y-24668385D01*
X42296470Y-24685570D01*
X42248968Y-24743450D01*
X42203691Y-24803408D01*
X42188094Y-24817625D01*
X42172107Y-24837107D01*
X42118152Y-24881386D01*
X42067377Y-24927674D01*
X42044461Y-24941862D01*
X42020570Y-24961470D01*
X41963710Y-24991861D01*
X41910545Y-25024781D01*
X41879947Y-25036634D01*
X41847683Y-25053880D01*
X41791211Y-25071010D01*
X41738545Y-25091413D01*
X41700515Y-25098522D01*
X41660090Y-25110785D01*
X41606887Y-25116025D01*
X41557230Y-25125308D01*
X41512638Y-25125308D01*
X41465000Y-25130000D01*
X41417362Y-25125308D01*
X41372770Y-25125308D01*
X41323112Y-25116025D01*
X41269910Y-25110785D01*
X41229485Y-25098522D01*
X41191454Y-25091413D01*
X41138783Y-25071008D01*
X41082317Y-25053880D01*
X41050055Y-25036635D01*
X41019454Y-25024781D01*
X40966281Y-24991857D01*
X40909430Y-24961470D01*
X40885541Y-24941865D01*
X40862622Y-24927674D01*
X40811837Y-24881377D01*
X40757893Y-24837107D01*
X40741908Y-24817629D01*
X40726308Y-24803408D01*
X40681018Y-24743435D01*
X40633530Y-24685570D01*
X40624346Y-24668389D01*
X40615144Y-24656203D01*
X40578530Y-24582672D01*
X40541120Y-24512683D01*
X40537130Y-24499530D01*
X40532928Y-24491091D01*
X40508104Y-24403843D01*
X40484215Y-24325090D01*
X40483430Y-24317121D01*
X40482447Y-24313666D01*
X40472230Y-24203410D01*
X40465000Y-24130000D01*
X40472229Y-24056595D01*
X40482447Y-23946333D01*
X40483430Y-23942876D01*
X40484215Y-23934910D01*
X40508099Y-23856171D01*
X40532928Y-23768908D01*
X40537130Y-23760467D01*
X40541120Y-23747317D01*
X40578522Y-23677340D01*
X40615144Y-23603796D01*
X40624348Y-23591606D01*
X40633530Y-23574430D01*
X40681009Y-23516576D01*
X40726308Y-23456591D01*
X40741911Y-23442366D01*
X40757893Y-23422893D01*
X40811826Y-23378631D01*
X40862622Y-23332325D01*
X40885546Y-23318130D01*
X40909430Y-23298530D01*
X40966269Y-23268148D01*
X41019454Y-23235218D01*
X41050062Y-23223360D01*
X41082317Y-23206120D01*
X41138771Y-23188994D01*
X41191454Y-23168586D01*
X41229492Y-23161475D01*
X41269910Y-23149215D01*
X41323109Y-23143975D01*
X41372770Y-23134692D01*
X41417362Y-23134692D01*
X41465000Y-23130000D01*
X41512638Y-23134692D01*
G37*
G36*
X45512638Y-23134692D02*
G01*
X45557230Y-23134692D01*
X45606890Y-23143975D01*
X45660090Y-23149215D01*
X45700508Y-23161475D01*
X45738545Y-23168586D01*
X45791223Y-23188993D01*
X45847683Y-23206120D01*
X45879940Y-23223361D01*
X45910545Y-23235218D01*
X45963722Y-23268144D01*
X46020570Y-23298530D01*
X46044456Y-23318133D01*
X46067377Y-23332325D01*
X46118163Y-23378622D01*
X46172107Y-23422893D01*
X46188091Y-23442370D01*
X46203691Y-23456591D01*
X46248978Y-23516561D01*
X46296470Y-23574430D01*
X46305653Y-23591611D01*
X46314855Y-23603796D01*
X46351462Y-23677313D01*
X46388880Y-23747317D01*
X46392870Y-23760472D01*
X46397071Y-23768908D01*
X46421884Y-23856118D01*
X46445785Y-23934910D01*
X46446570Y-23942882D01*
X46447552Y-23946333D01*
X46457753Y-24056424D01*
X46465000Y-24130000D01*
X46457752Y-24203581D01*
X46447552Y-24313666D01*
X46446570Y-24317116D01*
X46445785Y-24325090D01*
X46421879Y-24403897D01*
X46397071Y-24491091D01*
X46392871Y-24499524D01*
X46388880Y-24512683D01*
X46351455Y-24582700D01*
X46314855Y-24656203D01*
X46305655Y-24668385D01*
X46296470Y-24685570D01*
X46248968Y-24743450D01*
X46203691Y-24803408D01*
X46188094Y-24817625D01*
X46172107Y-24837107D01*
X46118152Y-24881386D01*
X46067377Y-24927674D01*
X46044461Y-24941862D01*
X46020570Y-24961470D01*
X45963710Y-24991861D01*
X45910545Y-25024781D01*
X45879947Y-25036634D01*
X45847683Y-25053880D01*
X45791211Y-25071010D01*
X45738545Y-25091413D01*
X45700515Y-25098522D01*
X45660090Y-25110785D01*
X45606887Y-25116025D01*
X45557230Y-25125308D01*
X45512638Y-25125308D01*
X45465000Y-25130000D01*
X45417362Y-25125308D01*
X45372770Y-25125308D01*
X45323112Y-25116025D01*
X45269910Y-25110785D01*
X45229485Y-25098522D01*
X45191454Y-25091413D01*
X45138783Y-25071008D01*
X45082317Y-25053880D01*
X45050055Y-25036635D01*
X45019454Y-25024781D01*
X44966281Y-24991857D01*
X44909430Y-24961470D01*
X44885541Y-24941865D01*
X44862622Y-24927674D01*
X44811837Y-24881377D01*
X44757893Y-24837107D01*
X44741908Y-24817629D01*
X44726308Y-24803408D01*
X44681018Y-24743435D01*
X44633530Y-24685570D01*
X44624346Y-24668389D01*
X44615144Y-24656203D01*
X44578530Y-24582672D01*
X44541120Y-24512683D01*
X44537130Y-24499530D01*
X44532928Y-24491091D01*
X44508104Y-24403843D01*
X44484215Y-24325090D01*
X44483430Y-24317121D01*
X44482447Y-24313666D01*
X44472230Y-24203410D01*
X44465000Y-24130000D01*
X44472229Y-24056595D01*
X44482447Y-23946333D01*
X44483430Y-23942876D01*
X44484215Y-23934910D01*
X44508099Y-23856171D01*
X44532928Y-23768908D01*
X44537130Y-23760467D01*
X44541120Y-23747317D01*
X44578522Y-23677340D01*
X44615144Y-23603796D01*
X44624348Y-23591606D01*
X44633530Y-23574430D01*
X44681009Y-23516576D01*
X44726308Y-23456591D01*
X44741911Y-23442366D01*
X44757893Y-23422893D01*
X44811826Y-23378631D01*
X44862622Y-23332325D01*
X44885546Y-23318130D01*
X44909430Y-23298530D01*
X44966269Y-23268148D01*
X45019454Y-23235218D01*
X45050062Y-23223360D01*
X45082317Y-23206120D01*
X45138771Y-23188994D01*
X45191454Y-23168586D01*
X45229492Y-23161475D01*
X45269910Y-23149215D01*
X45323109Y-23143975D01*
X45372770Y-23134692D01*
X45417362Y-23134692D01*
X45465000Y-23130000D01*
X45512638Y-23134692D01*
G37*
G36*
X49512638Y-23134692D02*
G01*
X49557230Y-23134692D01*
X49606890Y-23143975D01*
X49660090Y-23149215D01*
X49700508Y-23161475D01*
X49738545Y-23168586D01*
X49791223Y-23188993D01*
X49847683Y-23206120D01*
X49879940Y-23223361D01*
X49910545Y-23235218D01*
X49963722Y-23268144D01*
X50020570Y-23298530D01*
X50044456Y-23318133D01*
X50067377Y-23332325D01*
X50118163Y-23378622D01*
X50172107Y-23422893D01*
X50188091Y-23442370D01*
X50203691Y-23456591D01*
X50248978Y-23516561D01*
X50296470Y-23574430D01*
X50305653Y-23591611D01*
X50314855Y-23603796D01*
X50351462Y-23677313D01*
X50388880Y-23747317D01*
X50392870Y-23760472D01*
X50397071Y-23768908D01*
X50421884Y-23856118D01*
X50445785Y-23934910D01*
X50446570Y-23942882D01*
X50447552Y-23946333D01*
X50457753Y-24056424D01*
X50465000Y-24130000D01*
X50457752Y-24203581D01*
X50447552Y-24313666D01*
X50446570Y-24317116D01*
X50445785Y-24325090D01*
X50421879Y-24403897D01*
X50397071Y-24491091D01*
X50392871Y-24499524D01*
X50388880Y-24512683D01*
X50351455Y-24582700D01*
X50314855Y-24656203D01*
X50305655Y-24668385D01*
X50296470Y-24685570D01*
X50248968Y-24743450D01*
X50203691Y-24803408D01*
X50188094Y-24817625D01*
X50172107Y-24837107D01*
X50118152Y-24881386D01*
X50067377Y-24927674D01*
X50044461Y-24941862D01*
X50020570Y-24961470D01*
X49963710Y-24991861D01*
X49910545Y-25024781D01*
X49879947Y-25036634D01*
X49847683Y-25053880D01*
X49791211Y-25071010D01*
X49738545Y-25091413D01*
X49700515Y-25098522D01*
X49660090Y-25110785D01*
X49606887Y-25116025D01*
X49557230Y-25125308D01*
X49512638Y-25125308D01*
X49465000Y-25130000D01*
X49417362Y-25125308D01*
X49372770Y-25125308D01*
X49323112Y-25116025D01*
X49269910Y-25110785D01*
X49229485Y-25098522D01*
X49191454Y-25091413D01*
X49138783Y-25071008D01*
X49082317Y-25053880D01*
X49050055Y-25036635D01*
X49019454Y-25024781D01*
X48966281Y-24991857D01*
X48909430Y-24961470D01*
X48885541Y-24941865D01*
X48862622Y-24927674D01*
X48811837Y-24881377D01*
X48757893Y-24837107D01*
X48741908Y-24817629D01*
X48726308Y-24803408D01*
X48681018Y-24743435D01*
X48633530Y-24685570D01*
X48624346Y-24668389D01*
X48615144Y-24656203D01*
X48578530Y-24582672D01*
X48541120Y-24512683D01*
X48537130Y-24499530D01*
X48532928Y-24491091D01*
X48508104Y-24403843D01*
X48484215Y-24325090D01*
X48483430Y-24317121D01*
X48482447Y-24313666D01*
X48472230Y-24203410D01*
X48465000Y-24130000D01*
X48472229Y-24056595D01*
X48482447Y-23946333D01*
X48483430Y-23942876D01*
X48484215Y-23934910D01*
X48508099Y-23856171D01*
X48532928Y-23768908D01*
X48537130Y-23760467D01*
X48541120Y-23747317D01*
X48578522Y-23677340D01*
X48615144Y-23603796D01*
X48624348Y-23591606D01*
X48633530Y-23574430D01*
X48681009Y-23516576D01*
X48726308Y-23456591D01*
X48741911Y-23442366D01*
X48757893Y-23422893D01*
X48811826Y-23378631D01*
X48862622Y-23332325D01*
X48885546Y-23318130D01*
X48909430Y-23298530D01*
X48966269Y-23268148D01*
X49019454Y-23235218D01*
X49050062Y-23223360D01*
X49082317Y-23206120D01*
X49138771Y-23188994D01*
X49191454Y-23168586D01*
X49229492Y-23161475D01*
X49269910Y-23149215D01*
X49323109Y-23143975D01*
X49372770Y-23134692D01*
X49417362Y-23134692D01*
X49465000Y-23130000D01*
X49512638Y-23134692D01*
G37*
G36*
X53512638Y-23134692D02*
G01*
X53557230Y-23134692D01*
X53606890Y-23143975D01*
X53660090Y-23149215D01*
X53700508Y-23161475D01*
X53738545Y-23168586D01*
X53791223Y-23188993D01*
X53847683Y-23206120D01*
X53879940Y-23223361D01*
X53910545Y-23235218D01*
X53963722Y-23268144D01*
X54020570Y-23298530D01*
X54044456Y-23318133D01*
X54067377Y-23332325D01*
X54118163Y-23378622D01*
X54172107Y-23422893D01*
X54188091Y-23442370D01*
X54203691Y-23456591D01*
X54248978Y-23516561D01*
X54296470Y-23574430D01*
X54305653Y-23591611D01*
X54314855Y-23603796D01*
X54351462Y-23677313D01*
X54388880Y-23747317D01*
X54392870Y-23760472D01*
X54397071Y-23768908D01*
X54421884Y-23856118D01*
X54445785Y-23934910D01*
X54446570Y-23942882D01*
X54447552Y-23946333D01*
X54457753Y-24056424D01*
X54465000Y-24130000D01*
X54457752Y-24203581D01*
X54447552Y-24313666D01*
X54446570Y-24317116D01*
X54445785Y-24325090D01*
X54421879Y-24403897D01*
X54397071Y-24491091D01*
X54392871Y-24499524D01*
X54388880Y-24512683D01*
X54351455Y-24582700D01*
X54314855Y-24656203D01*
X54305655Y-24668385D01*
X54296470Y-24685570D01*
X54248968Y-24743450D01*
X54203691Y-24803408D01*
X54188094Y-24817625D01*
X54172107Y-24837107D01*
X54118152Y-24881386D01*
X54067377Y-24927674D01*
X54044461Y-24941862D01*
X54020570Y-24961470D01*
X53963710Y-24991861D01*
X53910545Y-25024781D01*
X53879947Y-25036634D01*
X53847683Y-25053880D01*
X53791211Y-25071010D01*
X53738545Y-25091413D01*
X53700515Y-25098522D01*
X53660090Y-25110785D01*
X53606887Y-25116025D01*
X53557230Y-25125308D01*
X53512638Y-25125308D01*
X53465000Y-25130000D01*
X53417362Y-25125308D01*
X53372770Y-25125308D01*
X53323112Y-25116025D01*
X53269910Y-25110785D01*
X53229485Y-25098522D01*
X53191454Y-25091413D01*
X53138783Y-25071008D01*
X53082317Y-25053880D01*
X53050055Y-25036635D01*
X53019454Y-25024781D01*
X52966281Y-24991857D01*
X52909430Y-24961470D01*
X52885541Y-24941865D01*
X52862622Y-24927674D01*
X52811837Y-24881377D01*
X52757893Y-24837107D01*
X52741908Y-24817629D01*
X52726308Y-24803408D01*
X52681018Y-24743435D01*
X52633530Y-24685570D01*
X52624346Y-24668389D01*
X52615144Y-24656203D01*
X52578530Y-24582672D01*
X52541120Y-24512683D01*
X52537130Y-24499530D01*
X52532928Y-24491091D01*
X52508104Y-24403843D01*
X52484215Y-24325090D01*
X52483430Y-24317121D01*
X52482447Y-24313666D01*
X52472230Y-24203410D01*
X52465000Y-24130000D01*
X52472229Y-24056595D01*
X52482447Y-23946333D01*
X52483430Y-23942876D01*
X52484215Y-23934910D01*
X52508099Y-23856171D01*
X52532928Y-23768908D01*
X52537130Y-23760467D01*
X52541120Y-23747317D01*
X52578522Y-23677340D01*
X52615144Y-23603796D01*
X52624348Y-23591606D01*
X52633530Y-23574430D01*
X52681009Y-23516576D01*
X52726308Y-23456591D01*
X52741911Y-23442366D01*
X52757893Y-23422893D01*
X52811826Y-23378631D01*
X52862622Y-23332325D01*
X52885546Y-23318130D01*
X52909430Y-23298530D01*
X52966269Y-23268148D01*
X53019454Y-23235218D01*
X53050062Y-23223360D01*
X53082317Y-23206120D01*
X53138771Y-23188994D01*
X53191454Y-23168586D01*
X53229492Y-23161475D01*
X53269910Y-23149215D01*
X53323109Y-23143975D01*
X53372770Y-23134692D01*
X53417362Y-23134692D01*
X53465000Y-23130000D01*
X53512638Y-23134692D01*
G37*
G36*
X57512638Y-23134692D02*
G01*
X57557230Y-23134692D01*
X57606890Y-23143975D01*
X57660090Y-23149215D01*
X57700508Y-23161475D01*
X57738545Y-23168586D01*
X57791223Y-23188993D01*
X57847683Y-23206120D01*
X57879940Y-23223361D01*
X57910545Y-23235218D01*
X57963722Y-23268144D01*
X58020570Y-23298530D01*
X58044456Y-23318133D01*
X58067377Y-23332325D01*
X58118163Y-23378622D01*
X58172107Y-23422893D01*
X58188091Y-23442370D01*
X58203691Y-23456591D01*
X58248978Y-23516561D01*
X58296470Y-23574430D01*
X58305653Y-23591611D01*
X58314855Y-23603796D01*
X58351462Y-23677313D01*
X58388880Y-23747317D01*
X58392870Y-23760472D01*
X58397071Y-23768908D01*
X58421884Y-23856118D01*
X58445785Y-23934910D01*
X58446570Y-23942882D01*
X58447552Y-23946333D01*
X58457753Y-24056424D01*
X58465000Y-24130000D01*
X58457752Y-24203581D01*
X58447552Y-24313666D01*
X58446570Y-24317116D01*
X58445785Y-24325090D01*
X58421879Y-24403897D01*
X58397071Y-24491091D01*
X58392871Y-24499524D01*
X58388880Y-24512683D01*
X58351455Y-24582700D01*
X58314855Y-24656203D01*
X58305655Y-24668385D01*
X58296470Y-24685570D01*
X58248968Y-24743450D01*
X58203691Y-24803408D01*
X58188094Y-24817625D01*
X58172107Y-24837107D01*
X58118152Y-24881386D01*
X58067377Y-24927674D01*
X58044461Y-24941862D01*
X58020570Y-24961470D01*
X57963710Y-24991861D01*
X57910545Y-25024781D01*
X57879947Y-25036634D01*
X57847683Y-25053880D01*
X57791211Y-25071010D01*
X57738545Y-25091413D01*
X57700515Y-25098522D01*
X57660090Y-25110785D01*
X57606887Y-25116025D01*
X57557230Y-25125308D01*
X57512638Y-25125308D01*
X57465000Y-25130000D01*
X57417362Y-25125308D01*
X57372770Y-25125308D01*
X57323112Y-25116025D01*
X57269910Y-25110785D01*
X57229485Y-25098522D01*
X57191454Y-25091413D01*
X57138783Y-25071008D01*
X57082317Y-25053880D01*
X57050055Y-25036635D01*
X57019454Y-25024781D01*
X56966281Y-24991857D01*
X56909430Y-24961470D01*
X56885541Y-24941865D01*
X56862622Y-24927674D01*
X56811837Y-24881377D01*
X56757893Y-24837107D01*
X56741908Y-24817629D01*
X56726308Y-24803408D01*
X56681018Y-24743435D01*
X56633530Y-24685570D01*
X56624346Y-24668389D01*
X56615144Y-24656203D01*
X56578530Y-24582672D01*
X56541120Y-24512683D01*
X56537130Y-24499530D01*
X56532928Y-24491091D01*
X56508104Y-24403843D01*
X56484215Y-24325090D01*
X56483430Y-24317121D01*
X56482447Y-24313666D01*
X56472230Y-24203410D01*
X56465000Y-24130000D01*
X56472229Y-24056595D01*
X56482447Y-23946333D01*
X56483430Y-23942876D01*
X56484215Y-23934910D01*
X56508099Y-23856171D01*
X56532928Y-23768908D01*
X56537130Y-23760467D01*
X56541120Y-23747317D01*
X56578522Y-23677340D01*
X56615144Y-23603796D01*
X56624348Y-23591606D01*
X56633530Y-23574430D01*
X56681009Y-23516576D01*
X56726308Y-23456591D01*
X56741911Y-23442366D01*
X56757893Y-23422893D01*
X56811826Y-23378631D01*
X56862622Y-23332325D01*
X56885546Y-23318130D01*
X56909430Y-23298530D01*
X56966269Y-23268148D01*
X57019454Y-23235218D01*
X57050062Y-23223360D01*
X57082317Y-23206120D01*
X57138771Y-23188994D01*
X57191454Y-23168586D01*
X57229492Y-23161475D01*
X57269910Y-23149215D01*
X57323109Y-23143975D01*
X57372770Y-23134692D01*
X57417362Y-23134692D01*
X57465000Y-23130000D01*
X57512638Y-23134692D01*
G37*
G36*
X61512638Y-23134692D02*
G01*
X61557230Y-23134692D01*
X61606890Y-23143975D01*
X61660090Y-23149215D01*
X61700508Y-23161475D01*
X61738545Y-23168586D01*
X61791223Y-23188993D01*
X61847683Y-23206120D01*
X61879940Y-23223361D01*
X61910545Y-23235218D01*
X61963722Y-23268144D01*
X62020570Y-23298530D01*
X62044456Y-23318133D01*
X62067377Y-23332325D01*
X62118163Y-23378622D01*
X62172107Y-23422893D01*
X62188091Y-23442370D01*
X62203691Y-23456591D01*
X62248978Y-23516561D01*
X62296470Y-23574430D01*
X62305653Y-23591611D01*
X62314855Y-23603796D01*
X62351462Y-23677313D01*
X62388880Y-23747317D01*
X62392870Y-23760472D01*
X62397071Y-23768908D01*
X62421884Y-23856118D01*
X62445785Y-23934910D01*
X62446570Y-23942882D01*
X62447552Y-23946333D01*
X62457753Y-24056424D01*
X62465000Y-24130000D01*
X62457752Y-24203581D01*
X62447552Y-24313666D01*
X62446570Y-24317116D01*
X62445785Y-24325090D01*
X62421879Y-24403897D01*
X62397071Y-24491091D01*
X62392871Y-24499524D01*
X62388880Y-24512683D01*
X62351455Y-24582700D01*
X62314855Y-24656203D01*
X62305655Y-24668385D01*
X62296470Y-24685570D01*
X62248968Y-24743450D01*
X62203691Y-24803408D01*
X62188094Y-24817625D01*
X62172107Y-24837107D01*
X62118152Y-24881386D01*
X62067377Y-24927674D01*
X62044461Y-24941862D01*
X62020570Y-24961470D01*
X61963710Y-24991861D01*
X61910545Y-25024781D01*
X61879947Y-25036634D01*
X61847683Y-25053880D01*
X61791211Y-25071010D01*
X61738545Y-25091413D01*
X61700515Y-25098522D01*
X61660090Y-25110785D01*
X61606887Y-25116025D01*
X61557230Y-25125308D01*
X61512638Y-25125308D01*
X61465000Y-25130000D01*
X61417362Y-25125308D01*
X61372770Y-25125308D01*
X61323112Y-25116025D01*
X61269910Y-25110785D01*
X61229485Y-25098522D01*
X61191454Y-25091413D01*
X61138783Y-25071008D01*
X61082317Y-25053880D01*
X61050055Y-25036635D01*
X61019454Y-25024781D01*
X60966281Y-24991857D01*
X60909430Y-24961470D01*
X60885541Y-24941865D01*
X60862622Y-24927674D01*
X60811837Y-24881377D01*
X60757893Y-24837107D01*
X60741908Y-24817629D01*
X60726308Y-24803408D01*
X60681018Y-24743435D01*
X60633530Y-24685570D01*
X60624346Y-24668389D01*
X60615144Y-24656203D01*
X60578530Y-24582672D01*
X60541120Y-24512683D01*
X60537130Y-24499530D01*
X60532928Y-24491091D01*
X60508104Y-24403843D01*
X60484215Y-24325090D01*
X60483430Y-24317121D01*
X60482447Y-24313666D01*
X60472231Y-24203419D01*
X60465000Y-24130000D01*
X60472228Y-24056605D01*
X60482447Y-23946333D01*
X60483430Y-23942876D01*
X60484215Y-23934910D01*
X60508099Y-23856171D01*
X60532928Y-23768908D01*
X60537130Y-23760467D01*
X60541120Y-23747317D01*
X60578522Y-23677340D01*
X60615144Y-23603796D01*
X60624348Y-23591606D01*
X60633530Y-23574430D01*
X60681009Y-23516576D01*
X60726308Y-23456591D01*
X60741911Y-23442366D01*
X60757893Y-23422893D01*
X60811826Y-23378631D01*
X60862622Y-23332325D01*
X60885546Y-23318130D01*
X60909430Y-23298530D01*
X60966269Y-23268148D01*
X61019454Y-23235218D01*
X61050062Y-23223360D01*
X61082317Y-23206120D01*
X61138771Y-23188994D01*
X61191454Y-23168586D01*
X61229492Y-23161475D01*
X61269910Y-23149215D01*
X61323109Y-23143975D01*
X61372770Y-23134692D01*
X61417362Y-23134692D01*
X61465000Y-23130000D01*
X61512638Y-23134692D01*
G37*
G36*
X65512638Y-23134692D02*
G01*
X65557230Y-23134692D01*
X65606890Y-23143975D01*
X65660090Y-23149215D01*
X65700508Y-23161475D01*
X65738545Y-23168586D01*
X65791223Y-23188993D01*
X65847683Y-23206120D01*
X65879940Y-23223361D01*
X65910545Y-23235218D01*
X65963722Y-23268144D01*
X66020570Y-23298530D01*
X66044456Y-23318133D01*
X66067377Y-23332325D01*
X66118163Y-23378622D01*
X66172107Y-23422893D01*
X66188091Y-23442370D01*
X66203691Y-23456591D01*
X66248978Y-23516561D01*
X66296470Y-23574430D01*
X66305653Y-23591611D01*
X66314855Y-23603796D01*
X66351462Y-23677313D01*
X66388880Y-23747317D01*
X66392870Y-23760472D01*
X66397071Y-23768908D01*
X66421884Y-23856118D01*
X66445785Y-23934910D01*
X66446570Y-23942882D01*
X66447552Y-23946333D01*
X66457753Y-24056424D01*
X66465000Y-24130000D01*
X66457752Y-24203581D01*
X66447552Y-24313666D01*
X66446570Y-24317116D01*
X66445785Y-24325090D01*
X66421879Y-24403897D01*
X66397071Y-24491091D01*
X66392871Y-24499524D01*
X66388880Y-24512683D01*
X66351455Y-24582700D01*
X66314855Y-24656203D01*
X66305655Y-24668385D01*
X66296470Y-24685570D01*
X66248968Y-24743450D01*
X66203691Y-24803408D01*
X66188094Y-24817625D01*
X66172107Y-24837107D01*
X66118152Y-24881386D01*
X66067377Y-24927674D01*
X66044461Y-24941862D01*
X66020570Y-24961470D01*
X65963710Y-24991861D01*
X65910545Y-25024781D01*
X65879947Y-25036634D01*
X65847683Y-25053880D01*
X65791211Y-25071010D01*
X65738545Y-25091413D01*
X65700515Y-25098522D01*
X65660090Y-25110785D01*
X65606887Y-25116025D01*
X65557230Y-25125308D01*
X65512638Y-25125308D01*
X65465000Y-25130000D01*
X65417362Y-25125308D01*
X65372770Y-25125308D01*
X65323112Y-25116025D01*
X65269910Y-25110785D01*
X65229485Y-25098522D01*
X65191454Y-25091413D01*
X65138783Y-25071008D01*
X65082317Y-25053880D01*
X65050055Y-25036635D01*
X65019454Y-25024781D01*
X64966281Y-24991857D01*
X64909430Y-24961470D01*
X64885541Y-24941865D01*
X64862622Y-24927674D01*
X64811837Y-24881377D01*
X64757893Y-24837107D01*
X64741908Y-24817629D01*
X64726308Y-24803408D01*
X64681018Y-24743435D01*
X64633530Y-24685570D01*
X64624346Y-24668389D01*
X64615144Y-24656203D01*
X64578530Y-24582672D01*
X64541120Y-24512683D01*
X64537130Y-24499530D01*
X64532928Y-24491091D01*
X64508104Y-24403843D01*
X64484215Y-24325090D01*
X64483430Y-24317121D01*
X64482447Y-24313666D01*
X64472231Y-24203419D01*
X64465000Y-24130000D01*
X64472228Y-24056605D01*
X64482447Y-23946333D01*
X64483430Y-23942876D01*
X64484215Y-23934910D01*
X64508099Y-23856171D01*
X64532928Y-23768908D01*
X64537130Y-23760467D01*
X64541120Y-23747317D01*
X64578522Y-23677340D01*
X64615144Y-23603796D01*
X64624348Y-23591606D01*
X64633530Y-23574430D01*
X64681009Y-23516576D01*
X64726308Y-23456591D01*
X64741911Y-23442366D01*
X64757893Y-23422893D01*
X64811826Y-23378631D01*
X64862622Y-23332325D01*
X64885546Y-23318130D01*
X64909430Y-23298530D01*
X64966269Y-23268148D01*
X65019454Y-23235218D01*
X65050062Y-23223360D01*
X65082317Y-23206120D01*
X65138771Y-23188994D01*
X65191454Y-23168586D01*
X65229492Y-23161475D01*
X65269910Y-23149215D01*
X65323109Y-23143975D01*
X65372770Y-23134692D01*
X65417362Y-23134692D01*
X65465000Y-23130000D01*
X65512638Y-23134692D01*
G37*
G36*
X69512638Y-23134692D02*
G01*
X69557230Y-23134692D01*
X69606890Y-23143975D01*
X69660090Y-23149215D01*
X69700508Y-23161475D01*
X69738545Y-23168586D01*
X69791223Y-23188993D01*
X69847683Y-23206120D01*
X69879940Y-23223361D01*
X69910545Y-23235218D01*
X69963722Y-23268144D01*
X70020570Y-23298530D01*
X70044456Y-23318133D01*
X70067377Y-23332325D01*
X70118163Y-23378622D01*
X70172107Y-23422893D01*
X70188091Y-23442370D01*
X70203691Y-23456591D01*
X70248978Y-23516561D01*
X70296470Y-23574430D01*
X70305653Y-23591611D01*
X70314855Y-23603796D01*
X70351462Y-23677313D01*
X70388880Y-23747317D01*
X70392870Y-23760472D01*
X70397071Y-23768908D01*
X70421884Y-23856118D01*
X70445785Y-23934910D01*
X70446570Y-23942882D01*
X70447552Y-23946333D01*
X70457753Y-24056424D01*
X70465000Y-24130000D01*
X70457752Y-24203581D01*
X70447552Y-24313666D01*
X70446570Y-24317116D01*
X70445785Y-24325090D01*
X70421879Y-24403897D01*
X70397071Y-24491091D01*
X70392871Y-24499524D01*
X70388880Y-24512683D01*
X70351455Y-24582700D01*
X70314855Y-24656203D01*
X70305655Y-24668385D01*
X70296470Y-24685570D01*
X70248968Y-24743450D01*
X70203691Y-24803408D01*
X70188094Y-24817625D01*
X70172107Y-24837107D01*
X70118152Y-24881386D01*
X70067377Y-24927674D01*
X70044461Y-24941862D01*
X70020570Y-24961470D01*
X69963710Y-24991861D01*
X69910545Y-25024781D01*
X69879947Y-25036634D01*
X69847683Y-25053880D01*
X69791211Y-25071010D01*
X69738545Y-25091413D01*
X69700515Y-25098522D01*
X69660090Y-25110785D01*
X69606887Y-25116025D01*
X69557230Y-25125308D01*
X69512638Y-25125308D01*
X69465000Y-25130000D01*
X69417362Y-25125308D01*
X69372770Y-25125308D01*
X69323112Y-25116025D01*
X69269910Y-25110785D01*
X69229485Y-25098522D01*
X69191454Y-25091413D01*
X69138783Y-25071008D01*
X69082317Y-25053880D01*
X69050055Y-25036635D01*
X69019454Y-25024781D01*
X68966281Y-24991857D01*
X68909430Y-24961470D01*
X68885541Y-24941865D01*
X68862622Y-24927674D01*
X68811837Y-24881377D01*
X68757893Y-24837107D01*
X68741908Y-24817629D01*
X68726308Y-24803408D01*
X68681018Y-24743435D01*
X68633530Y-24685570D01*
X68624346Y-24668389D01*
X68615144Y-24656203D01*
X68578530Y-24582672D01*
X68541120Y-24512683D01*
X68537130Y-24499530D01*
X68532928Y-24491091D01*
X68508104Y-24403843D01*
X68484215Y-24325090D01*
X68483430Y-24317121D01*
X68482447Y-24313666D01*
X68472231Y-24203419D01*
X68465000Y-24130000D01*
X68472228Y-24056605D01*
X68482447Y-23946333D01*
X68483430Y-23942876D01*
X68484215Y-23934910D01*
X68508099Y-23856171D01*
X68532928Y-23768908D01*
X68537130Y-23760467D01*
X68541120Y-23747317D01*
X68578522Y-23677340D01*
X68615144Y-23603796D01*
X68624348Y-23591606D01*
X68633530Y-23574430D01*
X68681009Y-23516576D01*
X68726308Y-23456591D01*
X68741911Y-23442366D01*
X68757893Y-23422893D01*
X68811826Y-23378631D01*
X68862622Y-23332325D01*
X68885546Y-23318130D01*
X68909430Y-23298530D01*
X68966269Y-23268148D01*
X69019454Y-23235218D01*
X69050062Y-23223360D01*
X69082317Y-23206120D01*
X69138771Y-23188994D01*
X69191454Y-23168586D01*
X69229492Y-23161475D01*
X69269910Y-23149215D01*
X69323109Y-23143975D01*
X69372770Y-23134692D01*
X69417362Y-23134692D01*
X69465000Y-23130000D01*
X69512638Y-23134692D01*
G37*
G36*
X73512638Y-23134692D02*
G01*
X73557230Y-23134692D01*
X73606890Y-23143975D01*
X73660090Y-23149215D01*
X73700508Y-23161475D01*
X73738545Y-23168586D01*
X73791223Y-23188993D01*
X73847683Y-23206120D01*
X73879940Y-23223361D01*
X73910545Y-23235218D01*
X73963722Y-23268144D01*
X74020570Y-23298530D01*
X74044456Y-23318133D01*
X74067377Y-23332325D01*
X74118163Y-23378622D01*
X74172107Y-23422893D01*
X74188091Y-23442370D01*
X74203691Y-23456591D01*
X74248978Y-23516561D01*
X74296470Y-23574430D01*
X74305653Y-23591611D01*
X74314855Y-23603796D01*
X74351462Y-23677313D01*
X74388880Y-23747317D01*
X74392870Y-23760472D01*
X74397071Y-23768908D01*
X74421884Y-23856118D01*
X74445785Y-23934910D01*
X74446570Y-23942882D01*
X74447552Y-23946333D01*
X74457753Y-24056424D01*
X74465000Y-24130000D01*
X74457752Y-24203581D01*
X74447552Y-24313666D01*
X74446570Y-24317116D01*
X74445785Y-24325090D01*
X74421879Y-24403897D01*
X74397071Y-24491091D01*
X74392871Y-24499524D01*
X74388880Y-24512683D01*
X74351455Y-24582700D01*
X74314855Y-24656203D01*
X74305655Y-24668385D01*
X74296470Y-24685570D01*
X74248968Y-24743450D01*
X74203691Y-24803408D01*
X74188094Y-24817625D01*
X74172107Y-24837107D01*
X74118152Y-24881386D01*
X74067377Y-24927674D01*
X74044461Y-24941862D01*
X74020570Y-24961470D01*
X73963710Y-24991861D01*
X73910545Y-25024781D01*
X73879947Y-25036634D01*
X73847683Y-25053880D01*
X73791211Y-25071010D01*
X73738545Y-25091413D01*
X73700515Y-25098522D01*
X73660090Y-25110785D01*
X73606887Y-25116025D01*
X73557230Y-25125308D01*
X73512638Y-25125308D01*
X73465000Y-25130000D01*
X73417362Y-25125308D01*
X73372770Y-25125308D01*
X73323112Y-25116025D01*
X73269910Y-25110785D01*
X73229485Y-25098522D01*
X73191454Y-25091413D01*
X73138783Y-25071008D01*
X73082317Y-25053880D01*
X73050055Y-25036635D01*
X73019454Y-25024781D01*
X72966281Y-24991857D01*
X72909430Y-24961470D01*
X72885541Y-24941865D01*
X72862622Y-24927674D01*
X72811837Y-24881377D01*
X72757893Y-24837107D01*
X72741908Y-24817629D01*
X72726308Y-24803408D01*
X72681018Y-24743435D01*
X72633530Y-24685570D01*
X72624346Y-24668389D01*
X72615144Y-24656203D01*
X72578530Y-24582672D01*
X72541120Y-24512683D01*
X72537130Y-24499530D01*
X72532928Y-24491091D01*
X72508104Y-24403843D01*
X72484215Y-24325090D01*
X72483430Y-24317121D01*
X72482447Y-24313666D01*
X72472231Y-24203419D01*
X72465000Y-24130000D01*
X72472228Y-24056605D01*
X72482447Y-23946333D01*
X72483430Y-23942876D01*
X72484215Y-23934910D01*
X72508099Y-23856171D01*
X72532928Y-23768908D01*
X72537130Y-23760467D01*
X72541120Y-23747317D01*
X72578522Y-23677340D01*
X72615144Y-23603796D01*
X72624348Y-23591606D01*
X72633530Y-23574430D01*
X72681009Y-23516576D01*
X72726308Y-23456591D01*
X72741911Y-23442366D01*
X72757893Y-23422893D01*
X72811826Y-23378631D01*
X72862622Y-23332325D01*
X72885546Y-23318130D01*
X72909430Y-23298530D01*
X72966269Y-23268148D01*
X73019454Y-23235218D01*
X73050062Y-23223360D01*
X73082317Y-23206120D01*
X73138771Y-23188994D01*
X73191454Y-23168586D01*
X73229492Y-23161475D01*
X73269910Y-23149215D01*
X73323109Y-23143975D01*
X73372770Y-23134692D01*
X73417362Y-23134692D01*
X73465000Y-23130000D01*
X73512638Y-23134692D01*
G37*
G36*
X19727369Y-23284656D02*
G01*
X19773849Y-23284656D01*
X19813981Y-23293186D01*
X19850731Y-23296806D01*
X19896905Y-23310812D01*
X19947664Y-23321602D01*
X19980143Y-23336062D01*
X20010094Y-23345148D01*
X20057683Y-23370585D01*
X20110000Y-23393878D01*
X20134326Y-23411552D01*
X20156965Y-23423653D01*
X20203148Y-23461554D01*
X20253761Y-23498327D01*
X20270192Y-23516575D01*
X20285698Y-23529301D01*
X20327369Y-23580077D01*
X20372664Y-23630383D01*
X20382180Y-23646865D01*
X20391346Y-23658034D01*
X20425252Y-23721467D01*
X20461514Y-23784274D01*
X20465684Y-23797110D01*
X20469851Y-23804905D01*
X20492825Y-23880643D01*
X20516425Y-23953275D01*
X20517255Y-23961177D01*
X20518193Y-23964268D01*
X20527311Y-24056849D01*
X20535000Y-24130000D01*
X20527310Y-24203157D01*
X20518193Y-24295731D01*
X20517255Y-24298820D01*
X20516425Y-24306725D01*
X20492821Y-24379370D01*
X20469851Y-24455094D01*
X20465685Y-24462886D01*
X20461514Y-24475726D01*
X20425245Y-24538544D01*
X20391346Y-24601965D01*
X20382182Y-24613131D01*
X20372664Y-24629617D01*
X20327359Y-24679932D01*
X20285698Y-24730698D01*
X20270195Y-24743420D01*
X20253761Y-24761673D01*
X20203138Y-24798452D01*
X20156965Y-24836346D01*
X20134331Y-24848443D01*
X20110000Y-24866122D01*
X20057672Y-24889419D01*
X20010094Y-24914851D01*
X19980150Y-24923934D01*
X19947664Y-24938398D01*
X19896894Y-24949189D01*
X19850731Y-24963193D01*
X19813990Y-24966811D01*
X19773849Y-24975344D01*
X19727359Y-24975344D01*
X19685000Y-24979516D01*
X19642641Y-24975344D01*
X19596151Y-24975344D01*
X19556010Y-24966811D01*
X19519268Y-24963193D01*
X19473102Y-24949188D01*
X19422336Y-24938398D01*
X19389851Y-24923935D01*
X19359905Y-24914851D01*
X19312321Y-24889416D01*
X19260000Y-24866122D01*
X19235670Y-24848445D01*
X19213034Y-24836346D01*
X19166853Y-24798446D01*
X19116239Y-24761673D01*
X19099807Y-24743423D01*
X19084301Y-24730698D01*
X19042628Y-24679920D01*
X18997336Y-24629617D01*
X18987820Y-24613135D01*
X18978653Y-24601965D01*
X18944741Y-24538521D01*
X18908486Y-24475726D01*
X18904315Y-24462891D01*
X18900148Y-24455094D01*
X18877163Y-24379324D01*
X18853575Y-24306725D01*
X18852744Y-24298825D01*
X18851806Y-24295731D01*
X18842673Y-24203006D01*
X18835000Y-24130000D01*
X18842672Y-24057000D01*
X18851806Y-23964268D01*
X18852744Y-23961172D01*
X18853575Y-23953275D01*
X18877159Y-23880689D01*
X18900148Y-23804905D01*
X18904316Y-23797106D01*
X18908486Y-23784274D01*
X18944734Y-23721491D01*
X18978653Y-23658034D01*
X18987822Y-23646861D01*
X18997336Y-23630383D01*
X19042619Y-23580090D01*
X19084301Y-23529301D01*
X19099810Y-23516572D01*
X19116239Y-23498327D01*
X19166842Y-23461561D01*
X19213034Y-23423653D01*
X19235676Y-23411550D01*
X19260000Y-23393878D01*
X19312310Y-23370588D01*
X19359905Y-23345148D01*
X19389858Y-23336061D01*
X19422336Y-23321602D01*
X19473091Y-23310813D01*
X19519268Y-23296806D01*
X19556019Y-23293186D01*
X19596151Y-23284656D01*
X19642630Y-23284656D01*
X19685000Y-23280483D01*
X19727369Y-23284656D01*
G37*
G36*
X22267369Y-23284656D02*
G01*
X22313849Y-23284656D01*
X22353981Y-23293186D01*
X22390731Y-23296806D01*
X22436905Y-23310812D01*
X22487664Y-23321602D01*
X22520143Y-23336062D01*
X22550094Y-23345148D01*
X22597683Y-23370585D01*
X22650000Y-23393878D01*
X22674326Y-23411552D01*
X22696965Y-23423653D01*
X22743148Y-23461554D01*
X22793761Y-23498327D01*
X22810192Y-23516575D01*
X22825698Y-23529301D01*
X22867369Y-23580077D01*
X22912664Y-23630383D01*
X22922180Y-23646865D01*
X22931346Y-23658034D01*
X22965252Y-23721467D01*
X23001514Y-23784274D01*
X23005684Y-23797110D01*
X23009851Y-23804905D01*
X23032825Y-23880643D01*
X23056425Y-23953275D01*
X23057255Y-23961177D01*
X23058193Y-23964268D01*
X23067311Y-24056849D01*
X23075000Y-24130000D01*
X23067310Y-24203157D01*
X23058193Y-24295731D01*
X23057255Y-24298820D01*
X23056425Y-24306725D01*
X23032821Y-24379370D01*
X23009851Y-24455094D01*
X23005685Y-24462886D01*
X23001514Y-24475726D01*
X22965245Y-24538544D01*
X22931346Y-24601965D01*
X22922182Y-24613131D01*
X22912664Y-24629617D01*
X22867359Y-24679932D01*
X22825698Y-24730698D01*
X22810195Y-24743420D01*
X22793761Y-24761673D01*
X22743138Y-24798452D01*
X22696965Y-24836346D01*
X22674331Y-24848443D01*
X22650000Y-24866122D01*
X22597672Y-24889419D01*
X22550094Y-24914851D01*
X22520150Y-24923934D01*
X22487664Y-24938398D01*
X22436894Y-24949189D01*
X22390731Y-24963193D01*
X22353990Y-24966811D01*
X22313849Y-24975344D01*
X22267359Y-24975344D01*
X22225000Y-24979516D01*
X22182641Y-24975344D01*
X22136151Y-24975344D01*
X22096010Y-24966811D01*
X22059268Y-24963193D01*
X22013102Y-24949188D01*
X21962336Y-24938398D01*
X21929851Y-24923935D01*
X21899905Y-24914851D01*
X21852321Y-24889416D01*
X21800000Y-24866122D01*
X21775670Y-24848445D01*
X21753034Y-24836346D01*
X21706853Y-24798446D01*
X21656239Y-24761673D01*
X21639807Y-24743423D01*
X21624301Y-24730698D01*
X21582628Y-24679920D01*
X21537336Y-24629617D01*
X21527820Y-24613135D01*
X21518653Y-24601965D01*
X21484741Y-24538521D01*
X21448486Y-24475726D01*
X21444315Y-24462891D01*
X21440148Y-24455094D01*
X21417163Y-24379324D01*
X21393575Y-24306725D01*
X21392744Y-24298825D01*
X21391806Y-24295731D01*
X21382673Y-24203006D01*
X21375000Y-24130000D01*
X21382672Y-24057000D01*
X21391806Y-23964268D01*
X21392744Y-23961172D01*
X21393575Y-23953275D01*
X21417159Y-23880689D01*
X21440148Y-23804905D01*
X21444316Y-23797106D01*
X21448486Y-23784274D01*
X21484734Y-23721491D01*
X21518653Y-23658034D01*
X21527822Y-23646861D01*
X21537336Y-23630383D01*
X21582619Y-23580090D01*
X21624301Y-23529301D01*
X21639810Y-23516572D01*
X21656239Y-23498327D01*
X21706842Y-23461561D01*
X21753034Y-23423653D01*
X21775676Y-23411550D01*
X21800000Y-23393878D01*
X21852310Y-23370588D01*
X21899905Y-23345148D01*
X21929858Y-23336061D01*
X21962336Y-23321602D01*
X22013091Y-23310813D01*
X22059268Y-23296806D01*
X22096019Y-23293186D01*
X22136151Y-23284656D01*
X22182630Y-23284656D01*
X22225000Y-23280483D01*
X22267369Y-23284656D01*
G37*
G36*
X19727369Y-20744656D02*
G01*
X19773849Y-20744656D01*
X19813981Y-20753186D01*
X19850731Y-20756806D01*
X19896905Y-20770812D01*
X19947664Y-20781602D01*
X19980143Y-20796062D01*
X20010094Y-20805148D01*
X20057683Y-20830585D01*
X20110000Y-20853878D01*
X20134326Y-20871552D01*
X20156965Y-20883653D01*
X20203148Y-20921554D01*
X20253761Y-20958327D01*
X20270192Y-20976575D01*
X20285698Y-20989301D01*
X20327369Y-21040077D01*
X20372664Y-21090383D01*
X20382180Y-21106865D01*
X20391346Y-21118034D01*
X20425252Y-21181467D01*
X20461514Y-21244274D01*
X20465684Y-21257110D01*
X20469851Y-21264905D01*
X20492825Y-21340643D01*
X20516425Y-21413275D01*
X20517255Y-21421177D01*
X20518193Y-21424268D01*
X20527311Y-21516849D01*
X20535000Y-21590000D01*
X20527310Y-21663157D01*
X20518193Y-21755731D01*
X20517255Y-21758820D01*
X20516425Y-21766725D01*
X20492821Y-21839370D01*
X20469851Y-21915094D01*
X20465685Y-21922886D01*
X20461514Y-21935726D01*
X20425245Y-21998544D01*
X20391346Y-22061965D01*
X20382182Y-22073131D01*
X20372664Y-22089617D01*
X20327359Y-22139932D01*
X20285698Y-22190698D01*
X20270195Y-22203420D01*
X20253761Y-22221673D01*
X20203138Y-22258452D01*
X20156965Y-22296346D01*
X20134331Y-22308443D01*
X20110000Y-22326122D01*
X20057672Y-22349419D01*
X20010094Y-22374851D01*
X19980150Y-22383934D01*
X19947664Y-22398398D01*
X19896894Y-22409189D01*
X19850731Y-22423193D01*
X19813990Y-22426811D01*
X19773849Y-22435344D01*
X19727359Y-22435344D01*
X19685000Y-22439516D01*
X19642641Y-22435344D01*
X19596151Y-22435344D01*
X19556010Y-22426811D01*
X19519268Y-22423193D01*
X19473102Y-22409188D01*
X19422336Y-22398398D01*
X19389851Y-22383935D01*
X19359905Y-22374851D01*
X19312321Y-22349416D01*
X19260000Y-22326122D01*
X19235670Y-22308445D01*
X19213034Y-22296346D01*
X19166853Y-22258446D01*
X19116239Y-22221673D01*
X19099807Y-22203423D01*
X19084301Y-22190698D01*
X19042628Y-22139920D01*
X18997336Y-22089617D01*
X18987820Y-22073135D01*
X18978653Y-22061965D01*
X18944741Y-21998521D01*
X18908486Y-21935726D01*
X18904315Y-21922891D01*
X18900148Y-21915094D01*
X18877163Y-21839324D01*
X18853575Y-21766725D01*
X18852744Y-21758825D01*
X18851806Y-21755731D01*
X18842673Y-21663006D01*
X18835000Y-21590000D01*
X18842672Y-21517000D01*
X18851806Y-21424268D01*
X18852744Y-21421172D01*
X18853575Y-21413275D01*
X18877159Y-21340689D01*
X18900148Y-21264905D01*
X18904316Y-21257106D01*
X18908486Y-21244274D01*
X18944734Y-21181491D01*
X18978653Y-21118034D01*
X18987822Y-21106861D01*
X18997336Y-21090383D01*
X19042619Y-21040090D01*
X19084301Y-20989301D01*
X19099810Y-20976572D01*
X19116239Y-20958327D01*
X19166842Y-20921561D01*
X19213034Y-20883653D01*
X19235676Y-20871550D01*
X19260000Y-20853878D01*
X19312310Y-20830588D01*
X19359905Y-20805148D01*
X19389858Y-20796061D01*
X19422336Y-20781602D01*
X19473091Y-20770813D01*
X19519268Y-20756806D01*
X19556019Y-20753186D01*
X19596151Y-20744656D01*
X19642630Y-20744656D01*
X19685000Y-20740483D01*
X19727369Y-20744656D01*
G37*
G36*
X22267369Y-20744656D02*
G01*
X22313849Y-20744656D01*
X22353981Y-20753186D01*
X22390731Y-20756806D01*
X22436905Y-20770812D01*
X22487664Y-20781602D01*
X22520143Y-20796062D01*
X22550094Y-20805148D01*
X22597683Y-20830585D01*
X22650000Y-20853878D01*
X22674326Y-20871552D01*
X22696965Y-20883653D01*
X22743148Y-20921554D01*
X22793761Y-20958327D01*
X22810192Y-20976575D01*
X22825698Y-20989301D01*
X22867369Y-21040077D01*
X22912664Y-21090383D01*
X22922180Y-21106865D01*
X22931346Y-21118034D01*
X22965252Y-21181467D01*
X23001514Y-21244274D01*
X23005684Y-21257110D01*
X23009851Y-21264905D01*
X23032825Y-21340643D01*
X23056425Y-21413275D01*
X23057255Y-21421177D01*
X23058193Y-21424268D01*
X23067311Y-21516849D01*
X23075000Y-21590000D01*
X23067310Y-21663157D01*
X23058193Y-21755731D01*
X23057255Y-21758820D01*
X23056425Y-21766725D01*
X23032821Y-21839370D01*
X23009851Y-21915094D01*
X23005685Y-21922886D01*
X23001514Y-21935726D01*
X22965245Y-21998544D01*
X22931346Y-22061965D01*
X22922182Y-22073131D01*
X22912664Y-22089617D01*
X22867359Y-22139932D01*
X22825698Y-22190698D01*
X22810195Y-22203420D01*
X22793761Y-22221673D01*
X22743138Y-22258452D01*
X22696965Y-22296346D01*
X22674331Y-22308443D01*
X22650000Y-22326122D01*
X22597672Y-22349419D01*
X22550094Y-22374851D01*
X22520150Y-22383934D01*
X22487664Y-22398398D01*
X22436894Y-22409189D01*
X22390731Y-22423193D01*
X22353990Y-22426811D01*
X22313849Y-22435344D01*
X22267359Y-22435344D01*
X22225000Y-22439516D01*
X22182641Y-22435344D01*
X22136151Y-22435344D01*
X22096010Y-22426811D01*
X22059268Y-22423193D01*
X22013102Y-22409188D01*
X21962336Y-22398398D01*
X21929851Y-22383935D01*
X21899905Y-22374851D01*
X21852321Y-22349416D01*
X21800000Y-22326122D01*
X21775670Y-22308445D01*
X21753034Y-22296346D01*
X21706853Y-22258446D01*
X21656239Y-22221673D01*
X21639807Y-22203423D01*
X21624301Y-22190698D01*
X21582628Y-22139920D01*
X21537336Y-22089617D01*
X21527820Y-22073135D01*
X21518653Y-22061965D01*
X21484741Y-21998521D01*
X21448486Y-21935726D01*
X21444315Y-21922891D01*
X21440148Y-21915094D01*
X21417163Y-21839324D01*
X21393575Y-21766725D01*
X21392744Y-21758825D01*
X21391806Y-21755731D01*
X21382673Y-21663006D01*
X21375000Y-21590000D01*
X21382672Y-21517000D01*
X21391806Y-21424268D01*
X21392744Y-21421172D01*
X21393575Y-21413275D01*
X21417159Y-21340689D01*
X21440148Y-21264905D01*
X21444316Y-21257106D01*
X21448486Y-21244274D01*
X21484734Y-21181491D01*
X21518653Y-21118034D01*
X21527822Y-21106861D01*
X21537336Y-21090383D01*
X21582619Y-21040090D01*
X21624301Y-20989301D01*
X21639810Y-20976572D01*
X21656239Y-20958327D01*
X21706842Y-20921561D01*
X21753034Y-20883653D01*
X21775676Y-20871550D01*
X21800000Y-20853878D01*
X21852310Y-20830588D01*
X21899905Y-20805148D01*
X21929858Y-20796061D01*
X21962336Y-20781602D01*
X22013091Y-20770813D01*
X22059268Y-20756806D01*
X22096019Y-20753186D01*
X22136151Y-20744656D01*
X22182630Y-20744656D01*
X22225000Y-20740483D01*
X22267369Y-20744656D01*
G37*
G36*
X20535000Y-19900000D02*
G01*
X18835000Y-19900000D01*
X18835000Y-18200000D01*
X20535000Y-18200000D01*
X20535000Y-19900000D01*
G37*
G36*
X22267369Y-18204656D02*
G01*
X22313849Y-18204656D01*
X22353981Y-18213186D01*
X22390731Y-18216806D01*
X22436905Y-18230812D01*
X22487664Y-18241602D01*
X22520143Y-18256062D01*
X22550094Y-18265148D01*
X22597683Y-18290585D01*
X22650000Y-18313878D01*
X22674326Y-18331552D01*
X22696965Y-18343653D01*
X22743148Y-18381554D01*
X22793761Y-18418327D01*
X22810192Y-18436575D01*
X22825698Y-18449301D01*
X22867369Y-18500077D01*
X22912664Y-18550383D01*
X22922180Y-18566865D01*
X22931346Y-18578034D01*
X22965252Y-18641467D01*
X23001514Y-18704274D01*
X23005684Y-18717110D01*
X23009851Y-18724905D01*
X23032825Y-18800643D01*
X23056425Y-18873275D01*
X23057255Y-18881177D01*
X23058193Y-18884268D01*
X23067311Y-18976849D01*
X23075000Y-19050000D01*
X23067310Y-19123157D01*
X23058193Y-19215731D01*
X23057255Y-19218820D01*
X23056425Y-19226725D01*
X23032821Y-19299370D01*
X23009851Y-19375094D01*
X23005685Y-19382886D01*
X23001514Y-19395726D01*
X22965245Y-19458544D01*
X22931346Y-19521965D01*
X22922182Y-19533131D01*
X22912664Y-19549617D01*
X22867359Y-19599932D01*
X22825698Y-19650698D01*
X22810195Y-19663420D01*
X22793761Y-19681673D01*
X22743138Y-19718452D01*
X22696965Y-19756346D01*
X22674331Y-19768443D01*
X22650000Y-19786122D01*
X22597672Y-19809419D01*
X22550094Y-19834851D01*
X22520150Y-19843934D01*
X22487664Y-19858398D01*
X22436894Y-19869189D01*
X22390731Y-19883193D01*
X22353990Y-19886811D01*
X22313849Y-19895344D01*
X22267359Y-19895344D01*
X22225000Y-19899516D01*
X22182641Y-19895344D01*
X22136151Y-19895344D01*
X22096010Y-19886811D01*
X22059268Y-19883193D01*
X22013102Y-19869188D01*
X21962336Y-19858398D01*
X21929851Y-19843935D01*
X21899905Y-19834851D01*
X21852321Y-19809416D01*
X21800000Y-19786122D01*
X21775670Y-19768445D01*
X21753034Y-19756346D01*
X21706853Y-19718446D01*
X21656239Y-19681673D01*
X21639807Y-19663423D01*
X21624301Y-19650698D01*
X21582628Y-19599920D01*
X21537336Y-19549617D01*
X21527820Y-19533135D01*
X21518653Y-19521965D01*
X21484741Y-19458521D01*
X21448486Y-19395726D01*
X21444315Y-19382891D01*
X21440148Y-19375094D01*
X21417163Y-19299324D01*
X21393575Y-19226725D01*
X21392744Y-19218825D01*
X21391806Y-19215731D01*
X21382673Y-19123006D01*
X21375000Y-19050000D01*
X21382672Y-18977000D01*
X21391806Y-18884268D01*
X21392744Y-18881172D01*
X21393575Y-18873275D01*
X21417159Y-18800689D01*
X21440148Y-18724905D01*
X21444316Y-18717106D01*
X21448486Y-18704274D01*
X21484734Y-18641491D01*
X21518653Y-18578034D01*
X21527822Y-18566861D01*
X21537336Y-18550383D01*
X21582619Y-18500090D01*
X21624301Y-18449301D01*
X21639810Y-18436572D01*
X21656239Y-18418327D01*
X21706842Y-18381561D01*
X21753034Y-18343653D01*
X21775676Y-18331550D01*
X21800000Y-18313878D01*
X21852310Y-18290588D01*
X21899905Y-18265148D01*
X21929858Y-18256061D01*
X21962336Y-18241602D01*
X22013091Y-18230813D01*
X22059268Y-18216806D01*
X22096019Y-18213186D01*
X22136151Y-18204656D01*
X22182630Y-18204656D01*
X22225000Y-18200483D01*
X22267369Y-18204656D01*
G37*
M02*
