%TF.GenerationSoftware,KiCad,Pcbnew,7.0.6*%
%TF.CreationDate,2023-08-02T14:24:24+01:00*%
%TF.ProjectId,Outline4,4f75746c-696e-4653-942e-6b696361645f,rev?*%
%TF.SameCoordinates,Original*%
%TF.FileFunction,Copper,L1,Top*%
%TF.FilePolarity,Positive*%
%FSLAX46Y46*%
G04 Gerber Fmt 4.6, Leading zero omitted, Abs format (unit mm)*
G04 Created by KiCad (PCBNEW 7.0.6) date 2023-08-02 14:24:24*
%MOMM*%
%LPD*%
G01*
G04 APERTURE LIST*
%TA.AperFunction,ComponentPad*%
%ADD10R,1.700000X1.700000*%
%TD*%
%TA.AperFunction,ComponentPad*%
%ADD11O,1.700000X1.700000*%
%TD*%
%TA.AperFunction,SMDPad,CuDef*%
%ADD12C,2.000000*%
%TD*%
%TA.AperFunction,Conductor*%
%ADD13C,0.250000*%
%TD*%
G04 APERTURE END LIST*
D10*
%TO.P,REF\u002A\u002A,1*%
%TO.N,N/C*%
X18415000Y-69215000D03*
D11*
%TO.P,REF\u002A\u002A,2*%
X20955000Y-69215000D03*
%TO.P,REF\u002A\u002A,3*%
X18415000Y-71755000D03*
%TO.P,REF\u002A\u002A,4*%
X20955000Y-71755000D03*
%TO.P,REF\u002A\u002A,5*%
X18415000Y-74295000D03*
%TO.P,REF\u002A\u002A,6*%
X20955000Y-74295000D03*
%TO.P,REF\u002A\u002A,7*%
X18415000Y-76835000D03*
%TO.P,REF\u002A\u002A,8*%
X20955000Y-76835000D03*
%TO.P,REF\u002A\u002A,9*%
X18415000Y-79375000D03*
%TO.P,REF\u002A\u002A,10*%
X20955000Y-79375000D03*
%TO.P,REF\u002A\u002A,11*%
X18415000Y-81915000D03*
%TO.P,REF\u002A\u002A,12*%
X20955000Y-81915000D03*
%TO.P,REF\u002A\u002A,13*%
X18415000Y-84455000D03*
%TO.P,REF\u002A\u002A,14*%
X20955000Y-84455000D03*
%TO.P,REF\u002A\u002A,15*%
X18415000Y-86995000D03*
%TO.P,REF\u002A\u002A,16*%
X20955000Y-86995000D03*
%TO.P,REF\u002A\u002A,17*%
X18415000Y-89535000D03*
%TO.P,REF\u002A\u002A,18*%
X20955000Y-89535000D03*
%TO.P,REF\u002A\u002A,19*%
X18415000Y-92075000D03*
%TO.P,REF\u002A\u002A,20*%
X20955000Y-92075000D03*
%TO.P,REF\u002A\u002A,21*%
X18415000Y-94615000D03*
%TO.P,REF\u002A\u002A,22*%
X20955000Y-94615000D03*
%TO.P,REF\u002A\u002A,23*%
X18415000Y-97155000D03*
%TO.P,REF\u002A\u002A,24*%
X20955000Y-97155000D03*
%TO.P,REF\u002A\u002A,25*%
X18415000Y-99695000D03*
%TO.P,REF\u002A\u002A,26*%
X20955000Y-99695000D03*
%TO.P,REF\u002A\u002A,27*%
X18415000Y-102235000D03*
%TO.P,REF\u002A\u002A,28*%
X20955000Y-102235000D03*
%TO.P,REF\u002A\u002A,29*%
X18415000Y-104775000D03*
%TO.P,REF\u002A\u002A,30*%
X20955000Y-104775000D03*
%TO.P,REF\u002A\u002A,31*%
X18415000Y-107315000D03*
%TO.P,REF\u002A\u002A,32*%
X20955000Y-107315000D03*
%TD*%
D12*
%TO.P,REF\u002A\u002A,1*%
%TO.N,N/C*%
X61600000Y-74295000D03*
X61600000Y-74295000D03*
X61600000Y-78295000D03*
X61600000Y-82295000D03*
X61600000Y-86295000D03*
X61600000Y-90295000D03*
X61600000Y-94295000D03*
X61600000Y-98295000D03*
X61600000Y-102295000D03*
X65600000Y-74295000D03*
X65600000Y-102295000D03*
X69600000Y-74295000D03*
X69600000Y-102295000D03*
X73600000Y-74295000D03*
X73600000Y-102295000D03*
X77600000Y-74295000D03*
X77600000Y-102295000D03*
X81600000Y-74295000D03*
X81600000Y-102295000D03*
X85600000Y-74295000D03*
X85600000Y-102295000D03*
X89600000Y-74295000D03*
X89600000Y-102295000D03*
X93600000Y-74295000D03*
X93600000Y-102295000D03*
X97600000Y-74295000D03*
X97600000Y-78295000D03*
X97600000Y-82295000D03*
X97600000Y-86295000D03*
X97600000Y-90295000D03*
X97600000Y-94295000D03*
X97600000Y-98295000D03*
X97600000Y-102295000D03*
%TD*%
D13*
%TO.N,*%
X103510000Y-85725000D02*
X102940000Y-86295000D01*
X100335000Y-98425000D02*
X100335000Y-109855000D01*
X48265000Y-99695000D02*
X20955000Y-99695000D01*
X81285000Y-69850000D02*
X55250000Y-69850000D01*
X81285000Y-106680000D02*
X56520000Y-106680000D01*
X48265000Y-86995000D02*
X20955000Y-86995000D01*
X85600000Y-69720000D02*
X85095000Y-69215000D01*
X85600000Y-102295000D02*
X85600000Y-106810000D01*
X19685000Y-78105000D02*
X18415000Y-79375000D01*
X93600000Y-68195000D02*
X93350000Y-67945000D01*
X48265000Y-89535000D02*
X20955000Y-89535000D01*
X101605000Y-81915000D02*
X101225000Y-82295000D01*
X19055000Y-69215000D02*
X18415000Y-69215000D01*
X65600000Y-72580000D02*
X65410000Y-72390000D01*
X48265000Y-74295000D02*
X20955000Y-74295000D01*
X48265000Y-100965000D02*
X19685000Y-100965000D01*
X81600000Y-70165000D02*
X81285000Y-69850000D01*
X59060000Y-104140000D02*
X48265000Y-93345000D01*
X77600000Y-102295000D02*
X77600000Y-105285000D01*
X77600000Y-105285000D02*
X76840000Y-106045000D01*
X53345000Y-109855000D02*
X48265000Y-104775000D01*
X54615000Y-69215000D02*
X48265000Y-75565000D01*
X61600000Y-86295000D02*
X48965000Y-86295000D01*
X101605000Y-94615000D02*
X101605000Y-110490000D01*
X19685000Y-100965000D02*
X18415000Y-102235000D01*
X100145000Y-78295000D02*
X100335000Y-78105000D01*
X51695000Y-82295000D02*
X48265000Y-85725000D01*
X47630000Y-65405000D02*
X103510000Y-65405000D01*
X48265000Y-94615000D02*
X20955000Y-94615000D01*
X97600000Y-94295000D02*
X101285000Y-94295000D01*
X69600000Y-74295000D02*
X69600000Y-72135000D01*
X19685000Y-80645000D02*
X18415000Y-81915000D01*
X48265000Y-80645000D02*
X19685000Y-80645000D01*
X48265000Y-83185000D02*
X19685000Y-83185000D01*
X73030000Y-71120000D02*
X56520000Y-71120000D01*
X61600000Y-82295000D02*
X51695000Y-82295000D01*
X65600000Y-103950000D02*
X65410000Y-104140000D01*
X48265000Y-103505000D02*
X19685000Y-103505000D01*
X57790000Y-105410000D02*
X48265000Y-95885000D01*
X77600000Y-74295000D02*
X77600000Y-70610000D01*
X50295000Y-90295000D02*
X48265000Y-88265000D01*
X20325000Y-67945000D02*
X19055000Y-69215000D01*
X48265000Y-106045000D02*
X19685000Y-106045000D01*
X97600000Y-98295000D02*
X100205000Y-98295000D01*
X73600000Y-102295000D02*
X73600000Y-104840000D01*
X69600000Y-102295000D02*
X69600000Y-104395000D01*
X85095000Y-107315000D02*
X55885000Y-107315000D01*
X53980000Y-68580000D02*
X48265000Y-74295000D01*
X56520000Y-106680000D02*
X48265000Y-98425000D01*
X102940000Y-86295000D02*
X97600000Y-86295000D01*
X97600000Y-78295000D02*
X100145000Y-78295000D01*
X54615000Y-108585000D02*
X48265000Y-102235000D01*
X55885000Y-70485000D02*
X48265000Y-78105000D01*
X100335000Y-109855000D02*
X53345000Y-109855000D01*
X54425000Y-78295000D02*
X48265000Y-84455000D01*
X48265000Y-97155000D02*
X20955000Y-97155000D01*
X48965000Y-86295000D02*
X48265000Y-86995000D01*
X55755000Y-98295000D02*
X48265000Y-90805000D01*
X65410000Y-104140000D02*
X59060000Y-104140000D01*
X52710000Y-110490000D02*
X48265000Y-106045000D01*
X19685000Y-70485000D02*
X18415000Y-71755000D01*
X48265000Y-93345000D02*
X19685000Y-93345000D01*
X97600000Y-90295000D02*
X103000000Y-90295000D01*
X48265000Y-104775000D02*
X20955000Y-104775000D01*
X89600000Y-107255000D02*
X88905000Y-107950000D01*
X61600000Y-98295000D02*
X55755000Y-98295000D01*
X69220000Y-71755000D02*
X57155000Y-71755000D01*
X100335000Y-78105000D02*
X100335000Y-66675000D01*
X77475000Y-70485000D02*
X55885000Y-70485000D01*
X103510000Y-111125000D02*
X52075000Y-111125000D01*
X48265000Y-102235000D02*
X20955000Y-102235000D01*
X101605000Y-110490000D02*
X52710000Y-110490000D01*
X77600000Y-70610000D02*
X77475000Y-70485000D01*
X69220000Y-104775000D02*
X58425000Y-104775000D01*
X97600000Y-108780000D02*
X97160000Y-109220000D01*
X97160000Y-109220000D02*
X53980000Y-109220000D01*
X52710000Y-67310000D02*
X48265000Y-71755000D01*
X19685000Y-98425000D02*
X18415000Y-99695000D01*
X57155000Y-106045000D02*
X48265000Y-97155000D01*
X19685000Y-75565000D02*
X18415000Y-76835000D01*
X65600000Y-102295000D02*
X65600000Y-103950000D01*
X103000000Y-90295000D02*
X103510000Y-90805000D01*
X103510000Y-90805000D02*
X103510000Y-111125000D01*
X19685000Y-93345000D02*
X18415000Y-94615000D01*
X61600000Y-74295000D02*
X57155000Y-74295000D01*
X19685000Y-88265000D02*
X18415000Y-89535000D01*
X97160000Y-67310000D02*
X52710000Y-67310000D01*
X58485000Y-102295000D02*
X48265000Y-92075000D01*
X53345000Y-67945000D02*
X48265000Y-73025000D01*
X45090000Y-67945000D02*
X20325000Y-67945000D01*
X61600000Y-90295000D02*
X50295000Y-90295000D01*
X85600000Y-106810000D02*
X85095000Y-107315000D01*
X65410000Y-72390000D02*
X57790000Y-72390000D01*
X48265000Y-90805000D02*
X19685000Y-90805000D01*
X85095000Y-69215000D02*
X54615000Y-69215000D01*
X81600000Y-106365000D02*
X81285000Y-106680000D01*
X93600000Y-102295000D02*
X93600000Y-108335000D01*
X48265000Y-73025000D02*
X19685000Y-73025000D01*
X55250000Y-69850000D02*
X48265000Y-76835000D01*
X57155000Y-74295000D02*
X48265000Y-83185000D01*
X55885000Y-107315000D02*
X48265000Y-99695000D01*
X73600000Y-71690000D02*
X73030000Y-71120000D01*
X97600000Y-74295000D02*
X97600000Y-67750000D01*
X61600000Y-94295000D02*
X53025000Y-94295000D01*
X101285000Y-94295000D02*
X101605000Y-94615000D01*
X81600000Y-74295000D02*
X81600000Y-70165000D01*
X89600000Y-68640000D02*
X89540000Y-68580000D01*
X97600000Y-102295000D02*
X97600000Y-108780000D01*
X49535000Y-66040000D02*
X46360000Y-69215000D01*
X100205000Y-98295000D02*
X100335000Y-98425000D01*
X48265000Y-107315000D02*
X20955000Y-107315000D01*
X69600000Y-104395000D02*
X69220000Y-104775000D01*
X88905000Y-107950000D02*
X55250000Y-107950000D01*
X48265000Y-71755000D02*
X20955000Y-71755000D01*
X73600000Y-74295000D02*
X73600000Y-71690000D01*
X93350000Y-67945000D02*
X53345000Y-67945000D01*
X48265000Y-92075000D02*
X20955000Y-92075000D01*
X61600000Y-102295000D02*
X58485000Y-102295000D01*
X52075000Y-111125000D02*
X48265000Y-107315000D01*
X93350000Y-108585000D02*
X54615000Y-108585000D01*
X19685000Y-95885000D02*
X18415000Y-97155000D01*
X89600000Y-74295000D02*
X89600000Y-68640000D01*
X61600000Y-78295000D02*
X54425000Y-78295000D01*
X57790000Y-72390000D02*
X48265000Y-81915000D01*
X89600000Y-102295000D02*
X89600000Y-107255000D01*
X48265000Y-76835000D02*
X20955000Y-76835000D01*
X97600000Y-67750000D02*
X97160000Y-67310000D01*
X93600000Y-108335000D02*
X93350000Y-108585000D01*
X53980000Y-109220000D02*
X48265000Y-103505000D01*
X47630000Y-65405000D02*
X45090000Y-67945000D01*
X48265000Y-70485000D02*
X19685000Y-70485000D01*
X19685000Y-106045000D02*
X18415000Y-107315000D01*
X48265000Y-98425000D02*
X19685000Y-98425000D01*
X57155000Y-71755000D02*
X48265000Y-80645000D01*
X69600000Y-72135000D02*
X69220000Y-71755000D01*
X52075000Y-66675000D02*
X48265000Y-70485000D01*
X48265000Y-84455000D02*
X20955000Y-84455000D01*
X81600000Y-102295000D02*
X81600000Y-106365000D01*
X65600000Y-74295000D02*
X65600000Y-72580000D01*
X48265000Y-75565000D02*
X19685000Y-75565000D01*
X101225000Y-82295000D02*
X97600000Y-82295000D01*
X48265000Y-78105000D02*
X19685000Y-78105000D01*
X73600000Y-104840000D02*
X73030000Y-105410000D01*
X89540000Y-68580000D02*
X53980000Y-68580000D01*
X48265000Y-95885000D02*
X19685000Y-95885000D01*
X48265000Y-79375000D02*
X20955000Y-79375000D01*
X19685000Y-103505000D02*
X18415000Y-104775000D01*
X58425000Y-104775000D02*
X48265000Y-94615000D01*
X55250000Y-107950000D02*
X48265000Y-100965000D01*
X76840000Y-106045000D02*
X57155000Y-106045000D01*
X85600000Y-74295000D02*
X85600000Y-69720000D01*
X100335000Y-66675000D02*
X52075000Y-66675000D01*
X93600000Y-74295000D02*
X93600000Y-68195000D01*
X56520000Y-71120000D02*
X48265000Y-79375000D01*
X49535000Y-66040000D02*
X101605000Y-66040000D01*
X48265000Y-85725000D02*
X19685000Y-85725000D01*
X48265000Y-81915000D02*
X20955000Y-81915000D01*
X73030000Y-105410000D02*
X57790000Y-105410000D01*
X103510000Y-65405000D02*
X103510000Y-85725000D01*
X46360000Y-69215000D02*
X20955000Y-69215000D01*
X19685000Y-85725000D02*
X18415000Y-86995000D01*
X19685000Y-90805000D02*
X18415000Y-92075000D01*
X53025000Y-94295000D02*
X48265000Y-89535000D01*
X101605000Y-66040000D02*
X101605000Y-81915000D01*
X48265000Y-88265000D02*
X19685000Y-88265000D01*
X19685000Y-73025000D02*
X18415000Y-74295000D01*
X19685000Y-83185000D02*
X18415000Y-84455000D01*
%TD*%
M02*
