%TF.GenerationSoftware,KiCad,Pcbnew,7.0.6*%
%TF.CreationDate,2023-08-02T14:24:24+01:00*%
%TF.ProjectId,Outline4,4f75746c-696e-4653-942e-6b696361645f,rev?*%
%TF.SameCoordinates,Original*%
%TF.FileFunction,Soldermask,Bot*%
%TF.FilePolarity,Negative*%
%FSLAX46Y46*%
G04 Gerber Fmt 4.6, Leading zero omitted, Abs format (unit mm)*
G04 Created by KiCad (PCBNEW 7.0.6) date 2023-08-02 14:24:24*
%MOMM*%
%LPD*%
G01*
G04 APERTURE LIST*
G04 APERTURE END LIST*
G36*
X18677664Y-106506602D02*
G01*
X18840000Y-106578878D01*
X18983761Y-106683327D01*
X19102664Y-106815383D01*
X19191514Y-106969274D01*
X19246425Y-107138275D01*
X19265000Y-107315000D01*
X19246425Y-107491725D01*
X19191514Y-107660726D01*
X19102664Y-107814617D01*
X18983761Y-107946673D01*
X18840000Y-108051122D01*
X18677664Y-108123398D01*
X18503849Y-108160344D01*
X18326151Y-108160344D01*
X18152336Y-108123398D01*
X17990000Y-108051122D01*
X17846239Y-107946673D01*
X17727336Y-107814617D01*
X17638486Y-107660726D01*
X17583575Y-107491725D01*
X17565000Y-107315000D01*
X17583575Y-107138275D01*
X17638486Y-106969274D01*
X17727336Y-106815383D01*
X17846239Y-106683327D01*
X17990000Y-106578878D01*
X18152336Y-106506602D01*
X18326151Y-106469656D01*
X18503849Y-106469656D01*
X18677664Y-106506602D01*
G37*
G36*
X21217664Y-106506602D02*
G01*
X21380000Y-106578878D01*
X21523761Y-106683327D01*
X21642664Y-106815383D01*
X21731514Y-106969274D01*
X21786425Y-107138275D01*
X21805000Y-107315000D01*
X21786425Y-107491725D01*
X21731514Y-107660726D01*
X21642664Y-107814617D01*
X21523761Y-107946673D01*
X21380000Y-108051122D01*
X21217664Y-108123398D01*
X21043849Y-108160344D01*
X20866151Y-108160344D01*
X20692336Y-108123398D01*
X20530000Y-108051122D01*
X20386239Y-107946673D01*
X20267336Y-107814617D01*
X20178486Y-107660726D01*
X20123575Y-107491725D01*
X20105000Y-107315000D01*
X20123575Y-107138275D01*
X20178486Y-106969274D01*
X20267336Y-106815383D01*
X20386239Y-106683327D01*
X20530000Y-106578878D01*
X20692336Y-106506602D01*
X20866151Y-106469656D01*
X21043849Y-106469656D01*
X21217664Y-106506602D01*
G37*
G36*
X18677664Y-103966602D02*
G01*
X18840000Y-104038878D01*
X18983761Y-104143327D01*
X19102664Y-104275383D01*
X19191514Y-104429274D01*
X19246425Y-104598275D01*
X19265000Y-104775000D01*
X19246425Y-104951725D01*
X19191514Y-105120726D01*
X19102664Y-105274617D01*
X18983761Y-105406673D01*
X18840000Y-105511122D01*
X18677664Y-105583398D01*
X18503849Y-105620344D01*
X18326151Y-105620344D01*
X18152336Y-105583398D01*
X17990000Y-105511122D01*
X17846239Y-105406673D01*
X17727336Y-105274617D01*
X17638486Y-105120726D01*
X17583575Y-104951725D01*
X17565000Y-104775000D01*
X17583575Y-104598275D01*
X17638486Y-104429274D01*
X17727336Y-104275383D01*
X17846239Y-104143327D01*
X17990000Y-104038878D01*
X18152336Y-103966602D01*
X18326151Y-103929656D01*
X18503849Y-103929656D01*
X18677664Y-103966602D01*
G37*
G36*
X21217664Y-103966602D02*
G01*
X21380000Y-104038878D01*
X21523761Y-104143327D01*
X21642664Y-104275383D01*
X21731514Y-104429274D01*
X21786425Y-104598275D01*
X21805000Y-104775000D01*
X21786425Y-104951725D01*
X21731514Y-105120726D01*
X21642664Y-105274617D01*
X21523761Y-105406673D01*
X21380000Y-105511122D01*
X21217664Y-105583398D01*
X21043849Y-105620344D01*
X20866151Y-105620344D01*
X20692336Y-105583398D01*
X20530000Y-105511122D01*
X20386239Y-105406673D01*
X20267336Y-105274617D01*
X20178486Y-105120726D01*
X20123575Y-104951725D01*
X20105000Y-104775000D01*
X20123575Y-104598275D01*
X20178486Y-104429274D01*
X20267336Y-104275383D01*
X20386239Y-104143327D01*
X20530000Y-104038878D01*
X20692336Y-103966602D01*
X20866151Y-103929656D01*
X21043849Y-103929656D01*
X21217664Y-103966602D01*
G37*
G36*
X18677664Y-101426602D02*
G01*
X18840000Y-101498878D01*
X18983761Y-101603327D01*
X19102664Y-101735383D01*
X19191514Y-101889274D01*
X19246425Y-102058275D01*
X19265000Y-102235000D01*
X19246425Y-102411725D01*
X19191514Y-102580726D01*
X19102664Y-102734617D01*
X18983761Y-102866673D01*
X18840000Y-102971122D01*
X18677664Y-103043398D01*
X18503849Y-103080344D01*
X18326151Y-103080344D01*
X18152336Y-103043398D01*
X17990000Y-102971122D01*
X17846239Y-102866673D01*
X17727336Y-102734617D01*
X17638486Y-102580726D01*
X17583575Y-102411725D01*
X17565000Y-102235000D01*
X17583575Y-102058275D01*
X17638486Y-101889274D01*
X17727336Y-101735383D01*
X17846239Y-101603327D01*
X17990000Y-101498878D01*
X18152336Y-101426602D01*
X18326151Y-101389656D01*
X18503849Y-101389656D01*
X18677664Y-101426602D01*
G37*
G36*
X21217664Y-101426602D02*
G01*
X21380000Y-101498878D01*
X21523761Y-101603327D01*
X21642664Y-101735383D01*
X21731514Y-101889274D01*
X21786425Y-102058275D01*
X21805000Y-102235000D01*
X21786425Y-102411725D01*
X21731514Y-102580726D01*
X21642664Y-102734617D01*
X21523761Y-102866673D01*
X21380000Y-102971122D01*
X21217664Y-103043398D01*
X21043849Y-103080344D01*
X20866151Y-103080344D01*
X20692336Y-103043398D01*
X20530000Y-102971122D01*
X20386239Y-102866673D01*
X20267336Y-102734617D01*
X20178486Y-102580726D01*
X20123575Y-102411725D01*
X20105000Y-102235000D01*
X20123575Y-102058275D01*
X20178486Y-101889274D01*
X20267336Y-101735383D01*
X20386239Y-101603327D01*
X20530000Y-101498878D01*
X20692336Y-101426602D01*
X20866151Y-101389656D01*
X21043849Y-101389656D01*
X21217664Y-101426602D01*
G37*
G36*
X18677664Y-98886602D02*
G01*
X18840000Y-98958878D01*
X18983761Y-99063327D01*
X19102664Y-99195383D01*
X19191514Y-99349274D01*
X19246425Y-99518275D01*
X19265000Y-99695000D01*
X19246425Y-99871725D01*
X19191514Y-100040726D01*
X19102664Y-100194617D01*
X18983761Y-100326673D01*
X18840000Y-100431122D01*
X18677664Y-100503398D01*
X18503849Y-100540344D01*
X18326151Y-100540344D01*
X18152336Y-100503398D01*
X17990000Y-100431122D01*
X17846239Y-100326673D01*
X17727336Y-100194617D01*
X17638486Y-100040726D01*
X17583575Y-99871725D01*
X17565000Y-99695000D01*
X17583575Y-99518275D01*
X17638486Y-99349274D01*
X17727336Y-99195383D01*
X17846239Y-99063327D01*
X17990000Y-98958878D01*
X18152336Y-98886602D01*
X18326151Y-98849656D01*
X18503849Y-98849656D01*
X18677664Y-98886602D01*
G37*
G36*
X21217664Y-98886602D02*
G01*
X21380000Y-98958878D01*
X21523761Y-99063327D01*
X21642664Y-99195383D01*
X21731514Y-99349274D01*
X21786425Y-99518275D01*
X21805000Y-99695000D01*
X21786425Y-99871725D01*
X21731514Y-100040726D01*
X21642664Y-100194617D01*
X21523761Y-100326673D01*
X21380000Y-100431122D01*
X21217664Y-100503398D01*
X21043849Y-100540344D01*
X20866151Y-100540344D01*
X20692336Y-100503398D01*
X20530000Y-100431122D01*
X20386239Y-100326673D01*
X20267336Y-100194617D01*
X20178486Y-100040726D01*
X20123575Y-99871725D01*
X20105000Y-99695000D01*
X20123575Y-99518275D01*
X20178486Y-99349274D01*
X20267336Y-99195383D01*
X20386239Y-99063327D01*
X20530000Y-98958878D01*
X20692336Y-98886602D01*
X20866151Y-98849656D01*
X21043849Y-98849656D01*
X21217664Y-98886602D01*
G37*
G36*
X18677664Y-96346602D02*
G01*
X18840000Y-96418878D01*
X18983761Y-96523327D01*
X19102664Y-96655383D01*
X19191514Y-96809274D01*
X19246425Y-96978275D01*
X19265000Y-97155000D01*
X19246425Y-97331725D01*
X19191514Y-97500726D01*
X19102664Y-97654617D01*
X18983761Y-97786673D01*
X18840000Y-97891122D01*
X18677664Y-97963398D01*
X18503849Y-98000344D01*
X18326151Y-98000344D01*
X18152336Y-97963398D01*
X17990000Y-97891122D01*
X17846239Y-97786673D01*
X17727336Y-97654617D01*
X17638486Y-97500726D01*
X17583575Y-97331725D01*
X17565000Y-97155000D01*
X17583575Y-96978275D01*
X17638486Y-96809274D01*
X17727336Y-96655383D01*
X17846239Y-96523327D01*
X17990000Y-96418878D01*
X18152336Y-96346602D01*
X18326151Y-96309656D01*
X18503849Y-96309656D01*
X18677664Y-96346602D01*
G37*
G36*
X21217664Y-96346602D02*
G01*
X21380000Y-96418878D01*
X21523761Y-96523327D01*
X21642664Y-96655383D01*
X21731514Y-96809274D01*
X21786425Y-96978275D01*
X21805000Y-97155000D01*
X21786425Y-97331725D01*
X21731514Y-97500726D01*
X21642664Y-97654617D01*
X21523761Y-97786673D01*
X21380000Y-97891122D01*
X21217664Y-97963398D01*
X21043849Y-98000344D01*
X20866151Y-98000344D01*
X20692336Y-97963398D01*
X20530000Y-97891122D01*
X20386239Y-97786673D01*
X20267336Y-97654617D01*
X20178486Y-97500726D01*
X20123575Y-97331725D01*
X20105000Y-97155000D01*
X20123575Y-96978275D01*
X20178486Y-96809274D01*
X20267336Y-96655383D01*
X20386239Y-96523327D01*
X20530000Y-96418878D01*
X20692336Y-96346602D01*
X20866151Y-96309656D01*
X21043849Y-96309656D01*
X21217664Y-96346602D01*
G37*
G36*
X18677664Y-93806602D02*
G01*
X18840000Y-93878878D01*
X18983761Y-93983327D01*
X19102664Y-94115383D01*
X19191514Y-94269274D01*
X19246425Y-94438275D01*
X19265000Y-94615000D01*
X19246425Y-94791725D01*
X19191514Y-94960726D01*
X19102664Y-95114617D01*
X18983761Y-95246673D01*
X18840000Y-95351122D01*
X18677664Y-95423398D01*
X18503849Y-95460344D01*
X18326151Y-95460344D01*
X18152336Y-95423398D01*
X17990000Y-95351122D01*
X17846239Y-95246673D01*
X17727336Y-95114617D01*
X17638486Y-94960726D01*
X17583575Y-94791725D01*
X17565000Y-94615000D01*
X17583575Y-94438275D01*
X17638486Y-94269274D01*
X17727336Y-94115383D01*
X17846239Y-93983327D01*
X17990000Y-93878878D01*
X18152336Y-93806602D01*
X18326151Y-93769656D01*
X18503849Y-93769656D01*
X18677664Y-93806602D01*
G37*
G36*
X21217664Y-93806602D02*
G01*
X21380000Y-93878878D01*
X21523761Y-93983327D01*
X21642664Y-94115383D01*
X21731514Y-94269274D01*
X21786425Y-94438275D01*
X21805000Y-94615000D01*
X21786425Y-94791725D01*
X21731514Y-94960726D01*
X21642664Y-95114617D01*
X21523761Y-95246673D01*
X21380000Y-95351122D01*
X21217664Y-95423398D01*
X21043849Y-95460344D01*
X20866151Y-95460344D01*
X20692336Y-95423398D01*
X20530000Y-95351122D01*
X20386239Y-95246673D01*
X20267336Y-95114617D01*
X20178486Y-94960726D01*
X20123575Y-94791725D01*
X20105000Y-94615000D01*
X20123575Y-94438275D01*
X20178486Y-94269274D01*
X20267336Y-94115383D01*
X20386239Y-93983327D01*
X20530000Y-93878878D01*
X20692336Y-93806602D01*
X20866151Y-93769656D01*
X21043849Y-93769656D01*
X21217664Y-93806602D01*
G37*
G36*
X18677664Y-91266602D02*
G01*
X18840000Y-91338878D01*
X18983761Y-91443327D01*
X19102664Y-91575383D01*
X19191514Y-91729274D01*
X19246425Y-91898275D01*
X19265000Y-92075000D01*
X19246425Y-92251725D01*
X19191514Y-92420726D01*
X19102664Y-92574617D01*
X18983761Y-92706673D01*
X18840000Y-92811122D01*
X18677664Y-92883398D01*
X18503849Y-92920344D01*
X18326151Y-92920344D01*
X18152336Y-92883398D01*
X17990000Y-92811122D01*
X17846239Y-92706673D01*
X17727336Y-92574617D01*
X17638486Y-92420726D01*
X17583575Y-92251725D01*
X17565000Y-92075000D01*
X17583575Y-91898275D01*
X17638486Y-91729274D01*
X17727336Y-91575383D01*
X17846239Y-91443327D01*
X17990000Y-91338878D01*
X18152336Y-91266602D01*
X18326151Y-91229656D01*
X18503849Y-91229656D01*
X18677664Y-91266602D01*
G37*
G36*
X21217664Y-91266602D02*
G01*
X21380000Y-91338878D01*
X21523761Y-91443327D01*
X21642664Y-91575383D01*
X21731514Y-91729274D01*
X21786425Y-91898275D01*
X21805000Y-92075000D01*
X21786425Y-92251725D01*
X21731514Y-92420726D01*
X21642664Y-92574617D01*
X21523761Y-92706673D01*
X21380000Y-92811122D01*
X21217664Y-92883398D01*
X21043849Y-92920344D01*
X20866151Y-92920344D01*
X20692336Y-92883398D01*
X20530000Y-92811122D01*
X20386239Y-92706673D01*
X20267336Y-92574617D01*
X20178486Y-92420726D01*
X20123575Y-92251725D01*
X20105000Y-92075000D01*
X20123575Y-91898275D01*
X20178486Y-91729274D01*
X20267336Y-91575383D01*
X20386239Y-91443327D01*
X20530000Y-91338878D01*
X20692336Y-91266602D01*
X20866151Y-91229656D01*
X21043849Y-91229656D01*
X21217664Y-91266602D01*
G37*
G36*
X18677664Y-88726602D02*
G01*
X18840000Y-88798878D01*
X18983761Y-88903327D01*
X19102664Y-89035383D01*
X19191514Y-89189274D01*
X19246425Y-89358275D01*
X19265000Y-89535000D01*
X19246425Y-89711725D01*
X19191514Y-89880726D01*
X19102664Y-90034617D01*
X18983761Y-90166673D01*
X18840000Y-90271122D01*
X18677664Y-90343398D01*
X18503849Y-90380344D01*
X18326151Y-90380344D01*
X18152336Y-90343398D01*
X17990000Y-90271122D01*
X17846239Y-90166673D01*
X17727336Y-90034617D01*
X17638486Y-89880726D01*
X17583575Y-89711725D01*
X17565000Y-89535000D01*
X17583575Y-89358275D01*
X17638486Y-89189274D01*
X17727336Y-89035383D01*
X17846239Y-88903327D01*
X17990000Y-88798878D01*
X18152336Y-88726602D01*
X18326151Y-88689656D01*
X18503849Y-88689656D01*
X18677664Y-88726602D01*
G37*
G36*
X21217664Y-88726602D02*
G01*
X21380000Y-88798878D01*
X21523761Y-88903327D01*
X21642664Y-89035383D01*
X21731514Y-89189274D01*
X21786425Y-89358275D01*
X21805000Y-89535000D01*
X21786425Y-89711725D01*
X21731514Y-89880726D01*
X21642664Y-90034617D01*
X21523761Y-90166673D01*
X21380000Y-90271122D01*
X21217664Y-90343398D01*
X21043849Y-90380344D01*
X20866151Y-90380344D01*
X20692336Y-90343398D01*
X20530000Y-90271122D01*
X20386239Y-90166673D01*
X20267336Y-90034617D01*
X20178486Y-89880726D01*
X20123575Y-89711725D01*
X20105000Y-89535000D01*
X20123575Y-89358275D01*
X20178486Y-89189274D01*
X20267336Y-89035383D01*
X20386239Y-88903327D01*
X20530000Y-88798878D01*
X20692336Y-88726602D01*
X20866151Y-88689656D01*
X21043849Y-88689656D01*
X21217664Y-88726602D01*
G37*
G36*
X18677664Y-86186602D02*
G01*
X18840000Y-86258878D01*
X18983761Y-86363327D01*
X19102664Y-86495383D01*
X19191514Y-86649274D01*
X19246425Y-86818275D01*
X19265000Y-86995000D01*
X19246425Y-87171725D01*
X19191514Y-87340726D01*
X19102664Y-87494617D01*
X18983761Y-87626673D01*
X18840000Y-87731122D01*
X18677664Y-87803398D01*
X18503849Y-87840344D01*
X18326151Y-87840344D01*
X18152336Y-87803398D01*
X17990000Y-87731122D01*
X17846239Y-87626673D01*
X17727336Y-87494617D01*
X17638486Y-87340726D01*
X17583575Y-87171725D01*
X17565000Y-86995000D01*
X17583575Y-86818275D01*
X17638486Y-86649274D01*
X17727336Y-86495383D01*
X17846239Y-86363327D01*
X17990000Y-86258878D01*
X18152336Y-86186602D01*
X18326151Y-86149656D01*
X18503849Y-86149656D01*
X18677664Y-86186602D01*
G37*
G36*
X21217664Y-86186602D02*
G01*
X21380000Y-86258878D01*
X21523761Y-86363327D01*
X21642664Y-86495383D01*
X21731514Y-86649274D01*
X21786425Y-86818275D01*
X21805000Y-86995000D01*
X21786425Y-87171725D01*
X21731514Y-87340726D01*
X21642664Y-87494617D01*
X21523761Y-87626673D01*
X21380000Y-87731122D01*
X21217664Y-87803398D01*
X21043849Y-87840344D01*
X20866151Y-87840344D01*
X20692336Y-87803398D01*
X20530000Y-87731122D01*
X20386239Y-87626673D01*
X20267336Y-87494617D01*
X20178486Y-87340726D01*
X20123575Y-87171725D01*
X20105000Y-86995000D01*
X20123575Y-86818275D01*
X20178486Y-86649274D01*
X20267336Y-86495383D01*
X20386239Y-86363327D01*
X20530000Y-86258878D01*
X20692336Y-86186602D01*
X20866151Y-86149656D01*
X21043849Y-86149656D01*
X21217664Y-86186602D01*
G37*
G36*
X18677664Y-83646602D02*
G01*
X18840000Y-83718878D01*
X18983761Y-83823327D01*
X19102664Y-83955383D01*
X19191514Y-84109274D01*
X19246425Y-84278275D01*
X19265000Y-84455000D01*
X19246425Y-84631725D01*
X19191514Y-84800726D01*
X19102664Y-84954617D01*
X18983761Y-85086673D01*
X18840000Y-85191122D01*
X18677664Y-85263398D01*
X18503849Y-85300344D01*
X18326151Y-85300344D01*
X18152336Y-85263398D01*
X17990000Y-85191122D01*
X17846239Y-85086673D01*
X17727336Y-84954617D01*
X17638486Y-84800726D01*
X17583575Y-84631725D01*
X17565000Y-84455000D01*
X17583575Y-84278275D01*
X17638486Y-84109274D01*
X17727336Y-83955383D01*
X17846239Y-83823327D01*
X17990000Y-83718878D01*
X18152336Y-83646602D01*
X18326151Y-83609656D01*
X18503849Y-83609656D01*
X18677664Y-83646602D01*
G37*
G36*
X21217664Y-83646602D02*
G01*
X21380000Y-83718878D01*
X21523761Y-83823327D01*
X21642664Y-83955383D01*
X21731514Y-84109274D01*
X21786425Y-84278275D01*
X21805000Y-84455000D01*
X21786425Y-84631725D01*
X21731514Y-84800726D01*
X21642664Y-84954617D01*
X21523761Y-85086673D01*
X21380000Y-85191122D01*
X21217664Y-85263398D01*
X21043849Y-85300344D01*
X20866151Y-85300344D01*
X20692336Y-85263398D01*
X20530000Y-85191122D01*
X20386239Y-85086673D01*
X20267336Y-84954617D01*
X20178486Y-84800726D01*
X20123575Y-84631725D01*
X20105000Y-84455000D01*
X20123575Y-84278275D01*
X20178486Y-84109274D01*
X20267336Y-83955383D01*
X20386239Y-83823327D01*
X20530000Y-83718878D01*
X20692336Y-83646602D01*
X20866151Y-83609656D01*
X21043849Y-83609656D01*
X21217664Y-83646602D01*
G37*
G36*
X18677664Y-81106602D02*
G01*
X18840000Y-81178878D01*
X18983761Y-81283327D01*
X19102664Y-81415383D01*
X19191514Y-81569274D01*
X19246425Y-81738275D01*
X19265000Y-81915000D01*
X19246425Y-82091725D01*
X19191514Y-82260726D01*
X19102664Y-82414617D01*
X18983761Y-82546673D01*
X18840000Y-82651122D01*
X18677664Y-82723398D01*
X18503849Y-82760344D01*
X18326151Y-82760344D01*
X18152336Y-82723398D01*
X17990000Y-82651122D01*
X17846239Y-82546673D01*
X17727336Y-82414617D01*
X17638486Y-82260726D01*
X17583575Y-82091725D01*
X17565000Y-81915000D01*
X17583575Y-81738275D01*
X17638486Y-81569274D01*
X17727336Y-81415383D01*
X17846239Y-81283327D01*
X17990000Y-81178878D01*
X18152336Y-81106602D01*
X18326151Y-81069656D01*
X18503849Y-81069656D01*
X18677664Y-81106602D01*
G37*
G36*
X21217664Y-81106602D02*
G01*
X21380000Y-81178878D01*
X21523761Y-81283327D01*
X21642664Y-81415383D01*
X21731514Y-81569274D01*
X21786425Y-81738275D01*
X21805000Y-81915000D01*
X21786425Y-82091725D01*
X21731514Y-82260726D01*
X21642664Y-82414617D01*
X21523761Y-82546673D01*
X21380000Y-82651122D01*
X21217664Y-82723398D01*
X21043849Y-82760344D01*
X20866151Y-82760344D01*
X20692336Y-82723398D01*
X20530000Y-82651122D01*
X20386239Y-82546673D01*
X20267336Y-82414617D01*
X20178486Y-82260726D01*
X20123575Y-82091725D01*
X20105000Y-81915000D01*
X20123575Y-81738275D01*
X20178486Y-81569274D01*
X20267336Y-81415383D01*
X20386239Y-81283327D01*
X20530000Y-81178878D01*
X20692336Y-81106602D01*
X20866151Y-81069656D01*
X21043849Y-81069656D01*
X21217664Y-81106602D01*
G37*
G36*
X18677664Y-78566602D02*
G01*
X18840000Y-78638878D01*
X18983761Y-78743327D01*
X19102664Y-78875383D01*
X19191514Y-79029274D01*
X19246425Y-79198275D01*
X19265000Y-79375000D01*
X19246425Y-79551725D01*
X19191514Y-79720726D01*
X19102664Y-79874617D01*
X18983761Y-80006673D01*
X18840000Y-80111122D01*
X18677664Y-80183398D01*
X18503849Y-80220344D01*
X18326151Y-80220344D01*
X18152336Y-80183398D01*
X17990000Y-80111122D01*
X17846239Y-80006673D01*
X17727336Y-79874617D01*
X17638486Y-79720726D01*
X17583575Y-79551725D01*
X17565000Y-79375000D01*
X17583575Y-79198275D01*
X17638486Y-79029274D01*
X17727336Y-78875383D01*
X17846239Y-78743327D01*
X17990000Y-78638878D01*
X18152336Y-78566602D01*
X18326151Y-78529656D01*
X18503849Y-78529656D01*
X18677664Y-78566602D01*
G37*
G36*
X21217664Y-78566602D02*
G01*
X21380000Y-78638878D01*
X21523761Y-78743327D01*
X21642664Y-78875383D01*
X21731514Y-79029274D01*
X21786425Y-79198275D01*
X21805000Y-79375000D01*
X21786425Y-79551725D01*
X21731514Y-79720726D01*
X21642664Y-79874617D01*
X21523761Y-80006673D01*
X21380000Y-80111122D01*
X21217664Y-80183398D01*
X21043849Y-80220344D01*
X20866151Y-80220344D01*
X20692336Y-80183398D01*
X20530000Y-80111122D01*
X20386239Y-80006673D01*
X20267336Y-79874617D01*
X20178486Y-79720726D01*
X20123575Y-79551725D01*
X20105000Y-79375000D01*
X20123575Y-79198275D01*
X20178486Y-79029274D01*
X20267336Y-78875383D01*
X20386239Y-78743327D01*
X20530000Y-78638878D01*
X20692336Y-78566602D01*
X20866151Y-78529656D01*
X21043849Y-78529656D01*
X21217664Y-78566602D01*
G37*
G36*
X18677664Y-76026602D02*
G01*
X18840000Y-76098878D01*
X18983761Y-76203327D01*
X19102664Y-76335383D01*
X19191514Y-76489274D01*
X19246425Y-76658275D01*
X19265000Y-76835000D01*
X19246425Y-77011725D01*
X19191514Y-77180726D01*
X19102664Y-77334617D01*
X18983761Y-77466673D01*
X18840000Y-77571122D01*
X18677664Y-77643398D01*
X18503849Y-77680344D01*
X18326151Y-77680344D01*
X18152336Y-77643398D01*
X17990000Y-77571122D01*
X17846239Y-77466673D01*
X17727336Y-77334617D01*
X17638486Y-77180726D01*
X17583575Y-77011725D01*
X17565000Y-76835000D01*
X17583575Y-76658275D01*
X17638486Y-76489274D01*
X17727336Y-76335383D01*
X17846239Y-76203327D01*
X17990000Y-76098878D01*
X18152336Y-76026602D01*
X18326151Y-75989656D01*
X18503849Y-75989656D01*
X18677664Y-76026602D01*
G37*
G36*
X21217664Y-76026602D02*
G01*
X21380000Y-76098878D01*
X21523761Y-76203327D01*
X21642664Y-76335383D01*
X21731514Y-76489274D01*
X21786425Y-76658275D01*
X21805000Y-76835000D01*
X21786425Y-77011725D01*
X21731514Y-77180726D01*
X21642664Y-77334617D01*
X21523761Y-77466673D01*
X21380000Y-77571122D01*
X21217664Y-77643398D01*
X21043849Y-77680344D01*
X20866151Y-77680344D01*
X20692336Y-77643398D01*
X20530000Y-77571122D01*
X20386239Y-77466673D01*
X20267336Y-77334617D01*
X20178486Y-77180726D01*
X20123575Y-77011725D01*
X20105000Y-76835000D01*
X20123575Y-76658275D01*
X20178486Y-76489274D01*
X20267336Y-76335383D01*
X20386239Y-76203327D01*
X20530000Y-76098878D01*
X20692336Y-76026602D01*
X20866151Y-75989656D01*
X21043849Y-75989656D01*
X21217664Y-76026602D01*
G37*
G36*
X18677664Y-73486602D02*
G01*
X18840000Y-73558878D01*
X18983761Y-73663327D01*
X19102664Y-73795383D01*
X19191514Y-73949274D01*
X19246425Y-74118275D01*
X19265000Y-74295000D01*
X19246425Y-74471725D01*
X19191514Y-74640726D01*
X19102664Y-74794617D01*
X18983761Y-74926673D01*
X18840000Y-75031122D01*
X18677664Y-75103398D01*
X18503849Y-75140344D01*
X18326151Y-75140344D01*
X18152336Y-75103398D01*
X17990000Y-75031122D01*
X17846239Y-74926673D01*
X17727336Y-74794617D01*
X17638486Y-74640726D01*
X17583575Y-74471725D01*
X17565000Y-74295000D01*
X17583575Y-74118275D01*
X17638486Y-73949274D01*
X17727336Y-73795383D01*
X17846239Y-73663327D01*
X17990000Y-73558878D01*
X18152336Y-73486602D01*
X18326151Y-73449656D01*
X18503849Y-73449656D01*
X18677664Y-73486602D01*
G37*
G36*
X21217664Y-73486602D02*
G01*
X21380000Y-73558878D01*
X21523761Y-73663327D01*
X21642664Y-73795383D01*
X21731514Y-73949274D01*
X21786425Y-74118275D01*
X21805000Y-74295000D01*
X21786425Y-74471725D01*
X21731514Y-74640726D01*
X21642664Y-74794617D01*
X21523761Y-74926673D01*
X21380000Y-75031122D01*
X21217664Y-75103398D01*
X21043849Y-75140344D01*
X20866151Y-75140344D01*
X20692336Y-75103398D01*
X20530000Y-75031122D01*
X20386239Y-74926673D01*
X20267336Y-74794617D01*
X20178486Y-74640726D01*
X20123575Y-74471725D01*
X20105000Y-74295000D01*
X20123575Y-74118275D01*
X20178486Y-73949274D01*
X20267336Y-73795383D01*
X20386239Y-73663327D01*
X20530000Y-73558878D01*
X20692336Y-73486602D01*
X20866151Y-73449656D01*
X21043849Y-73449656D01*
X21217664Y-73486602D01*
G37*
G36*
X18677664Y-70946602D02*
G01*
X18840000Y-71018878D01*
X18983761Y-71123327D01*
X19102664Y-71255383D01*
X19191514Y-71409274D01*
X19246425Y-71578275D01*
X19265000Y-71755000D01*
X19246425Y-71931725D01*
X19191514Y-72100726D01*
X19102664Y-72254617D01*
X18983761Y-72386673D01*
X18840000Y-72491122D01*
X18677664Y-72563398D01*
X18503849Y-72600344D01*
X18326151Y-72600344D01*
X18152336Y-72563398D01*
X17990000Y-72491122D01*
X17846239Y-72386673D01*
X17727336Y-72254617D01*
X17638486Y-72100726D01*
X17583575Y-71931725D01*
X17565000Y-71755000D01*
X17583575Y-71578275D01*
X17638486Y-71409274D01*
X17727336Y-71255383D01*
X17846239Y-71123327D01*
X17990000Y-71018878D01*
X18152336Y-70946602D01*
X18326151Y-70909656D01*
X18503849Y-70909656D01*
X18677664Y-70946602D01*
G37*
G36*
X21217664Y-70946602D02*
G01*
X21380000Y-71018878D01*
X21523761Y-71123327D01*
X21642664Y-71255383D01*
X21731514Y-71409274D01*
X21786425Y-71578275D01*
X21805000Y-71755000D01*
X21786425Y-71931725D01*
X21731514Y-72100726D01*
X21642664Y-72254617D01*
X21523761Y-72386673D01*
X21380000Y-72491122D01*
X21217664Y-72563398D01*
X21043849Y-72600344D01*
X20866151Y-72600344D01*
X20692336Y-72563398D01*
X20530000Y-72491122D01*
X20386239Y-72386673D01*
X20267336Y-72254617D01*
X20178486Y-72100726D01*
X20123575Y-71931725D01*
X20105000Y-71755000D01*
X20123575Y-71578275D01*
X20178486Y-71409274D01*
X20267336Y-71255383D01*
X20386239Y-71123327D01*
X20530000Y-71018878D01*
X20692336Y-70946602D01*
X20866151Y-70909656D01*
X21043849Y-70909656D01*
X21217664Y-70946602D01*
G37*
G36*
X19265000Y-70065000D02*
G01*
X17565000Y-70065000D01*
X17565000Y-68365000D01*
X19265000Y-68365000D01*
X19265000Y-70065000D01*
G37*
G36*
X21217664Y-68406602D02*
G01*
X21380000Y-68478878D01*
X21523761Y-68583327D01*
X21642664Y-68715383D01*
X21731514Y-68869274D01*
X21786425Y-69038275D01*
X21805000Y-69215000D01*
X21786425Y-69391725D01*
X21731514Y-69560726D01*
X21642664Y-69714617D01*
X21523761Y-69846673D01*
X21380000Y-69951122D01*
X21217664Y-70023398D01*
X21043849Y-70060344D01*
X20866151Y-70060344D01*
X20692336Y-70023398D01*
X20530000Y-69951122D01*
X20386239Y-69846673D01*
X20267336Y-69714617D01*
X20178486Y-69560726D01*
X20123575Y-69391725D01*
X20105000Y-69215000D01*
X20123575Y-69038275D01*
X20178486Y-68869274D01*
X20267336Y-68715383D01*
X20386239Y-68583327D01*
X20530000Y-68478878D01*
X20692336Y-68406602D01*
X20866151Y-68369656D01*
X21043849Y-68369656D01*
X21217664Y-68406602D01*
G37*
M02*
