M48
; DRILL file {KiCad 7.0.6} date Wed Aug  2 14:24:26 2023
; FORMAT={-:-/ absolute / inch / decimal}
; #@! TF.CreationDate,2023-08-02T14:24:26+01:00
; #@! TF.GenerationSoftware,Kicad,Pcbnew,7.0.6
; #@! TF.FileFunction,Plated,1,2,PTH
FMAT,2
INCH
; #@! TA.AperFunction,Plated,PTH,ComponentDrill
T1C0.0394
%
G90
G05
T1
X0.725Y-2.725
X0.725Y-2.825
X0.725Y-2.925
X0.725Y-3.025
X0.725Y-3.125
X0.725Y-3.225
X0.725Y-3.325
X0.725Y-3.425
X0.725Y-3.525
X0.725Y-3.625
X0.725Y-3.725
X0.725Y-3.825
X0.725Y-3.925
X0.725Y-4.025
X0.725Y-4.125
X0.725Y-4.225
X0.825Y-2.725
X0.825Y-2.825
X0.825Y-2.925
X0.825Y-3.025
X0.825Y-3.125
X0.825Y-3.225
X0.825Y-3.325
X0.825Y-3.425
X0.825Y-3.525
X0.825Y-3.625
X0.825Y-3.725
X0.825Y-3.825
X0.825Y-3.925
X0.825Y-4.025
X0.825Y-4.125
X0.825Y-4.225
T0
M30
