M48
; DRILL file {KiCad 7.0.6} date Wed Aug  2 14:22:52 2023
; FORMAT={-:-/ absolute / inch / decimal}
; #@! TF.CreationDate,2023-08-02T14:22:52+01:00
; #@! TF.GenerationSoftware,Kicad,Pcbnew,7.0.6
; #@! TF.FileFunction,Plated,1,2,PTH
FMAT,2
INCH
; #@! TA.AperFunction,Plated,PTH,ComponentDrill
T1C0.0394
%
G90
G05
T1
X3.3921Y-0.75
X3.3921Y-0.85
X3.3921Y-0.95
X3.3921Y-1.05
X3.3921Y-1.15
X3.3921Y-1.25
X3.3921Y-1.35
X3.3921Y-1.45
X3.3921Y-1.55
X3.3921Y-1.65
X3.3921Y-1.75
X3.3921Y-1.85
X3.3921Y-1.95
X3.3921Y-2.05
X3.3921Y-2.15
X3.3921Y-2.25
X3.4921Y-0.75
X3.4921Y-0.85
X3.4921Y-0.95
X3.4921Y-1.05
X3.4921Y-1.15
X3.4921Y-1.25
X3.4921Y-1.35
X3.4921Y-1.45
X3.4921Y-1.55
X3.4921Y-1.65
X3.4921Y-1.75
X3.4921Y-1.85
X3.4921Y-1.95
X3.4921Y-2.05
X3.4921Y-2.15
X3.4921Y-2.25
T0
M30
