%TF.GenerationSoftware,KiCad,Pcbnew,7.0.6*%
%TF.CreationDate,2023-08-02T14:23:40+01:00*%
%TF.ProjectId,Outline3,4f75746c-696e-4653-932e-6b696361645f,rev?*%
%TF.SameCoordinates,Original*%
%TF.FileFunction,Soldermask,Bot*%
%TF.FilePolarity,Negative*%
%FSLAX46Y46*%
G04 Gerber Fmt 4.6, Leading zero omitted, Abs format (unit mm)*
G04 Created by KiCad (PCBNEW 7.0.6) date 2023-08-02 14:23:40*
%MOMM*%
%LPD*%
G01*
G04 APERTURE LIST*
G04 APERTURE END LIST*
G36*
X162187664Y-56216602D02*
G01*
X162350000Y-56288878D01*
X162493761Y-56393327D01*
X162612664Y-56525383D01*
X162701514Y-56679274D01*
X162756425Y-56848275D01*
X162775000Y-57025000D01*
X162756425Y-57201725D01*
X162701514Y-57370726D01*
X162612664Y-57524617D01*
X162493761Y-57656673D01*
X162350000Y-57761122D01*
X162187664Y-57833398D01*
X162013849Y-57870344D01*
X161836151Y-57870344D01*
X161662336Y-57833398D01*
X161500000Y-57761122D01*
X161356239Y-57656673D01*
X161237336Y-57524617D01*
X161148486Y-57370726D01*
X161093575Y-57201725D01*
X161075000Y-57025000D01*
X161093575Y-56848275D01*
X161148486Y-56679274D01*
X161237336Y-56525383D01*
X161356239Y-56393327D01*
X161500000Y-56288878D01*
X161662336Y-56216602D01*
X161836151Y-56179656D01*
X162013849Y-56179656D01*
X162187664Y-56216602D01*
G37*
G36*
X164727664Y-56216602D02*
G01*
X164890000Y-56288878D01*
X165033761Y-56393327D01*
X165152664Y-56525383D01*
X165241514Y-56679274D01*
X165296425Y-56848275D01*
X165315000Y-57025000D01*
X165296425Y-57201725D01*
X165241514Y-57370726D01*
X165152664Y-57524617D01*
X165033761Y-57656673D01*
X164890000Y-57761122D01*
X164727664Y-57833398D01*
X164553849Y-57870344D01*
X164376151Y-57870344D01*
X164202336Y-57833398D01*
X164040000Y-57761122D01*
X163896239Y-57656673D01*
X163777336Y-57524617D01*
X163688486Y-57370726D01*
X163633575Y-57201725D01*
X163615000Y-57025000D01*
X163633575Y-56848275D01*
X163688486Y-56679274D01*
X163777336Y-56525383D01*
X163896239Y-56393327D01*
X164040000Y-56288878D01*
X164202336Y-56216602D01*
X164376151Y-56179656D01*
X164553849Y-56179656D01*
X164727664Y-56216602D01*
G37*
G36*
X162187664Y-53676602D02*
G01*
X162350000Y-53748878D01*
X162493761Y-53853327D01*
X162612664Y-53985383D01*
X162701514Y-54139274D01*
X162756425Y-54308275D01*
X162775000Y-54485000D01*
X162756425Y-54661725D01*
X162701514Y-54830726D01*
X162612664Y-54984617D01*
X162493761Y-55116673D01*
X162350000Y-55221122D01*
X162187664Y-55293398D01*
X162013849Y-55330344D01*
X161836151Y-55330344D01*
X161662336Y-55293398D01*
X161500000Y-55221122D01*
X161356239Y-55116673D01*
X161237336Y-54984617D01*
X161148486Y-54830726D01*
X161093575Y-54661725D01*
X161075000Y-54485000D01*
X161093575Y-54308275D01*
X161148486Y-54139274D01*
X161237336Y-53985383D01*
X161356239Y-53853327D01*
X161500000Y-53748878D01*
X161662336Y-53676602D01*
X161836151Y-53639656D01*
X162013849Y-53639656D01*
X162187664Y-53676602D01*
G37*
G36*
X164727664Y-53676602D02*
G01*
X164890000Y-53748878D01*
X165033761Y-53853327D01*
X165152664Y-53985383D01*
X165241514Y-54139274D01*
X165296425Y-54308275D01*
X165315000Y-54485000D01*
X165296425Y-54661725D01*
X165241514Y-54830726D01*
X165152664Y-54984617D01*
X165033761Y-55116673D01*
X164890000Y-55221122D01*
X164727664Y-55293398D01*
X164553849Y-55330344D01*
X164376151Y-55330344D01*
X164202336Y-55293398D01*
X164040000Y-55221122D01*
X163896239Y-55116673D01*
X163777336Y-54984617D01*
X163688486Y-54830726D01*
X163633575Y-54661725D01*
X163615000Y-54485000D01*
X163633575Y-54308275D01*
X163688486Y-54139274D01*
X163777336Y-53985383D01*
X163896239Y-53853327D01*
X164040000Y-53748878D01*
X164202336Y-53676602D01*
X164376151Y-53639656D01*
X164553849Y-53639656D01*
X164727664Y-53676602D01*
G37*
G36*
X162187664Y-51136602D02*
G01*
X162350000Y-51208878D01*
X162493761Y-51313327D01*
X162612664Y-51445383D01*
X162701514Y-51599274D01*
X162756425Y-51768275D01*
X162775000Y-51945000D01*
X162756425Y-52121725D01*
X162701514Y-52290726D01*
X162612664Y-52444617D01*
X162493761Y-52576673D01*
X162350000Y-52681122D01*
X162187664Y-52753398D01*
X162013849Y-52790344D01*
X161836151Y-52790344D01*
X161662336Y-52753398D01*
X161500000Y-52681122D01*
X161356239Y-52576673D01*
X161237336Y-52444617D01*
X161148486Y-52290726D01*
X161093575Y-52121725D01*
X161075000Y-51945000D01*
X161093575Y-51768275D01*
X161148486Y-51599274D01*
X161237336Y-51445383D01*
X161356239Y-51313327D01*
X161500000Y-51208878D01*
X161662336Y-51136602D01*
X161836151Y-51099656D01*
X162013849Y-51099656D01*
X162187664Y-51136602D01*
G37*
G36*
X164727664Y-51136602D02*
G01*
X164890000Y-51208878D01*
X165033761Y-51313327D01*
X165152664Y-51445383D01*
X165241514Y-51599274D01*
X165296425Y-51768275D01*
X165315000Y-51945000D01*
X165296425Y-52121725D01*
X165241514Y-52290726D01*
X165152664Y-52444617D01*
X165033761Y-52576673D01*
X164890000Y-52681122D01*
X164727664Y-52753398D01*
X164553849Y-52790344D01*
X164376151Y-52790344D01*
X164202336Y-52753398D01*
X164040000Y-52681122D01*
X163896239Y-52576673D01*
X163777336Y-52444617D01*
X163688486Y-52290726D01*
X163633575Y-52121725D01*
X163615000Y-51945000D01*
X163633575Y-51768275D01*
X163688486Y-51599274D01*
X163777336Y-51445383D01*
X163896239Y-51313327D01*
X164040000Y-51208878D01*
X164202336Y-51136602D01*
X164376151Y-51099656D01*
X164553849Y-51099656D01*
X164727664Y-51136602D01*
G37*
G36*
X162187664Y-48596602D02*
G01*
X162350000Y-48668878D01*
X162493761Y-48773327D01*
X162612664Y-48905383D01*
X162701514Y-49059274D01*
X162756425Y-49228275D01*
X162775000Y-49405000D01*
X162756425Y-49581725D01*
X162701514Y-49750726D01*
X162612664Y-49904617D01*
X162493761Y-50036673D01*
X162350000Y-50141122D01*
X162187664Y-50213398D01*
X162013849Y-50250344D01*
X161836151Y-50250344D01*
X161662336Y-50213398D01*
X161500000Y-50141122D01*
X161356239Y-50036673D01*
X161237336Y-49904617D01*
X161148486Y-49750726D01*
X161093575Y-49581725D01*
X161075000Y-49405000D01*
X161093575Y-49228275D01*
X161148486Y-49059274D01*
X161237336Y-48905383D01*
X161356239Y-48773327D01*
X161500000Y-48668878D01*
X161662336Y-48596602D01*
X161836151Y-48559656D01*
X162013849Y-48559656D01*
X162187664Y-48596602D01*
G37*
G36*
X164727664Y-48596602D02*
G01*
X164890000Y-48668878D01*
X165033761Y-48773327D01*
X165152664Y-48905383D01*
X165241514Y-49059274D01*
X165296425Y-49228275D01*
X165315000Y-49405000D01*
X165296425Y-49581725D01*
X165241514Y-49750726D01*
X165152664Y-49904617D01*
X165033761Y-50036673D01*
X164890000Y-50141122D01*
X164727664Y-50213398D01*
X164553849Y-50250344D01*
X164376151Y-50250344D01*
X164202336Y-50213398D01*
X164040000Y-50141122D01*
X163896239Y-50036673D01*
X163777336Y-49904617D01*
X163688486Y-49750726D01*
X163633575Y-49581725D01*
X163615000Y-49405000D01*
X163633575Y-49228275D01*
X163688486Y-49059274D01*
X163777336Y-48905383D01*
X163896239Y-48773327D01*
X164040000Y-48668878D01*
X164202336Y-48596602D01*
X164376151Y-48559656D01*
X164553849Y-48559656D01*
X164727664Y-48596602D01*
G37*
G36*
X162187664Y-46056602D02*
G01*
X162350000Y-46128878D01*
X162493761Y-46233327D01*
X162612664Y-46365383D01*
X162701514Y-46519274D01*
X162756425Y-46688275D01*
X162775000Y-46865000D01*
X162756425Y-47041725D01*
X162701514Y-47210726D01*
X162612664Y-47364617D01*
X162493761Y-47496673D01*
X162350000Y-47601122D01*
X162187664Y-47673398D01*
X162013849Y-47710344D01*
X161836151Y-47710344D01*
X161662336Y-47673398D01*
X161500000Y-47601122D01*
X161356239Y-47496673D01*
X161237336Y-47364617D01*
X161148486Y-47210726D01*
X161093575Y-47041725D01*
X161075000Y-46865000D01*
X161093575Y-46688275D01*
X161148486Y-46519274D01*
X161237336Y-46365383D01*
X161356239Y-46233327D01*
X161500000Y-46128878D01*
X161662336Y-46056602D01*
X161836151Y-46019656D01*
X162013849Y-46019656D01*
X162187664Y-46056602D01*
G37*
G36*
X164727664Y-46056602D02*
G01*
X164890000Y-46128878D01*
X165033761Y-46233327D01*
X165152664Y-46365383D01*
X165241514Y-46519274D01*
X165296425Y-46688275D01*
X165315000Y-46865000D01*
X165296425Y-47041725D01*
X165241514Y-47210726D01*
X165152664Y-47364617D01*
X165033761Y-47496673D01*
X164890000Y-47601122D01*
X164727664Y-47673398D01*
X164553849Y-47710344D01*
X164376151Y-47710344D01*
X164202336Y-47673398D01*
X164040000Y-47601122D01*
X163896239Y-47496673D01*
X163777336Y-47364617D01*
X163688486Y-47210726D01*
X163633575Y-47041725D01*
X163615000Y-46865000D01*
X163633575Y-46688275D01*
X163688486Y-46519274D01*
X163777336Y-46365383D01*
X163896239Y-46233327D01*
X164040000Y-46128878D01*
X164202336Y-46056602D01*
X164376151Y-46019656D01*
X164553849Y-46019656D01*
X164727664Y-46056602D01*
G37*
G36*
X162187664Y-43516602D02*
G01*
X162350000Y-43588878D01*
X162493761Y-43693327D01*
X162612664Y-43825383D01*
X162701514Y-43979274D01*
X162756425Y-44148275D01*
X162775000Y-44325000D01*
X162756425Y-44501725D01*
X162701514Y-44670726D01*
X162612664Y-44824617D01*
X162493761Y-44956673D01*
X162350000Y-45061122D01*
X162187664Y-45133398D01*
X162013849Y-45170344D01*
X161836151Y-45170344D01*
X161662336Y-45133398D01*
X161500000Y-45061122D01*
X161356239Y-44956673D01*
X161237336Y-44824617D01*
X161148486Y-44670726D01*
X161093575Y-44501725D01*
X161075000Y-44325000D01*
X161093575Y-44148275D01*
X161148486Y-43979274D01*
X161237336Y-43825383D01*
X161356239Y-43693327D01*
X161500000Y-43588878D01*
X161662336Y-43516602D01*
X161836151Y-43479656D01*
X162013849Y-43479656D01*
X162187664Y-43516602D01*
G37*
G36*
X164727664Y-43516602D02*
G01*
X164890000Y-43588878D01*
X165033761Y-43693327D01*
X165152664Y-43825383D01*
X165241514Y-43979274D01*
X165296425Y-44148275D01*
X165315000Y-44325000D01*
X165296425Y-44501725D01*
X165241514Y-44670726D01*
X165152664Y-44824617D01*
X165033761Y-44956673D01*
X164890000Y-45061122D01*
X164727664Y-45133398D01*
X164553849Y-45170344D01*
X164376151Y-45170344D01*
X164202336Y-45133398D01*
X164040000Y-45061122D01*
X163896239Y-44956673D01*
X163777336Y-44824617D01*
X163688486Y-44670726D01*
X163633575Y-44501725D01*
X163615000Y-44325000D01*
X163633575Y-44148275D01*
X163688486Y-43979274D01*
X163777336Y-43825383D01*
X163896239Y-43693327D01*
X164040000Y-43588878D01*
X164202336Y-43516602D01*
X164376151Y-43479656D01*
X164553849Y-43479656D01*
X164727664Y-43516602D01*
G37*
G36*
X162187664Y-40976602D02*
G01*
X162350000Y-41048878D01*
X162493761Y-41153327D01*
X162612664Y-41285383D01*
X162701514Y-41439274D01*
X162756425Y-41608275D01*
X162775000Y-41785000D01*
X162756425Y-41961725D01*
X162701514Y-42130726D01*
X162612664Y-42284617D01*
X162493761Y-42416673D01*
X162350000Y-42521122D01*
X162187664Y-42593398D01*
X162013849Y-42630344D01*
X161836151Y-42630344D01*
X161662336Y-42593398D01*
X161500000Y-42521122D01*
X161356239Y-42416673D01*
X161237336Y-42284617D01*
X161148486Y-42130726D01*
X161093575Y-41961725D01*
X161075000Y-41785000D01*
X161093575Y-41608275D01*
X161148486Y-41439274D01*
X161237336Y-41285383D01*
X161356239Y-41153327D01*
X161500000Y-41048878D01*
X161662336Y-40976602D01*
X161836151Y-40939656D01*
X162013849Y-40939656D01*
X162187664Y-40976602D01*
G37*
G36*
X164727664Y-40976602D02*
G01*
X164890000Y-41048878D01*
X165033761Y-41153327D01*
X165152664Y-41285383D01*
X165241514Y-41439274D01*
X165296425Y-41608275D01*
X165315000Y-41785000D01*
X165296425Y-41961725D01*
X165241514Y-42130726D01*
X165152664Y-42284617D01*
X165033761Y-42416673D01*
X164890000Y-42521122D01*
X164727664Y-42593398D01*
X164553849Y-42630344D01*
X164376151Y-42630344D01*
X164202336Y-42593398D01*
X164040000Y-42521122D01*
X163896239Y-42416673D01*
X163777336Y-42284617D01*
X163688486Y-42130726D01*
X163633575Y-41961725D01*
X163615000Y-41785000D01*
X163633575Y-41608275D01*
X163688486Y-41439274D01*
X163777336Y-41285383D01*
X163896239Y-41153327D01*
X164040000Y-41048878D01*
X164202336Y-40976602D01*
X164376151Y-40939656D01*
X164553849Y-40939656D01*
X164727664Y-40976602D01*
G37*
G36*
X162187664Y-38436602D02*
G01*
X162350000Y-38508878D01*
X162493761Y-38613327D01*
X162612664Y-38745383D01*
X162701514Y-38899274D01*
X162756425Y-39068275D01*
X162775000Y-39245000D01*
X162756425Y-39421725D01*
X162701514Y-39590726D01*
X162612664Y-39744617D01*
X162493761Y-39876673D01*
X162350000Y-39981122D01*
X162187664Y-40053398D01*
X162013849Y-40090344D01*
X161836151Y-40090344D01*
X161662336Y-40053398D01*
X161500000Y-39981122D01*
X161356239Y-39876673D01*
X161237336Y-39744617D01*
X161148486Y-39590726D01*
X161093575Y-39421725D01*
X161075000Y-39245000D01*
X161093575Y-39068275D01*
X161148486Y-38899274D01*
X161237336Y-38745383D01*
X161356239Y-38613327D01*
X161500000Y-38508878D01*
X161662336Y-38436602D01*
X161836151Y-38399656D01*
X162013849Y-38399656D01*
X162187664Y-38436602D01*
G37*
G36*
X164727664Y-38436602D02*
G01*
X164890000Y-38508878D01*
X165033761Y-38613327D01*
X165152664Y-38745383D01*
X165241514Y-38899274D01*
X165296425Y-39068275D01*
X165315000Y-39245000D01*
X165296425Y-39421725D01*
X165241514Y-39590726D01*
X165152664Y-39744617D01*
X165033761Y-39876673D01*
X164890000Y-39981122D01*
X164727664Y-40053398D01*
X164553849Y-40090344D01*
X164376151Y-40090344D01*
X164202336Y-40053398D01*
X164040000Y-39981122D01*
X163896239Y-39876673D01*
X163777336Y-39744617D01*
X163688486Y-39590726D01*
X163633575Y-39421725D01*
X163615000Y-39245000D01*
X163633575Y-39068275D01*
X163688486Y-38899274D01*
X163777336Y-38745383D01*
X163896239Y-38613327D01*
X164040000Y-38508878D01*
X164202336Y-38436602D01*
X164376151Y-38399656D01*
X164553849Y-38399656D01*
X164727664Y-38436602D01*
G37*
G36*
X162187664Y-35896602D02*
G01*
X162350000Y-35968878D01*
X162493761Y-36073327D01*
X162612664Y-36205383D01*
X162701514Y-36359274D01*
X162756425Y-36528275D01*
X162775000Y-36705000D01*
X162756425Y-36881725D01*
X162701514Y-37050726D01*
X162612664Y-37204617D01*
X162493761Y-37336673D01*
X162350000Y-37441122D01*
X162187664Y-37513398D01*
X162013849Y-37550344D01*
X161836151Y-37550344D01*
X161662336Y-37513398D01*
X161500000Y-37441122D01*
X161356239Y-37336673D01*
X161237336Y-37204617D01*
X161148486Y-37050726D01*
X161093575Y-36881725D01*
X161075000Y-36705000D01*
X161093575Y-36528275D01*
X161148486Y-36359274D01*
X161237336Y-36205383D01*
X161356239Y-36073327D01*
X161500000Y-35968878D01*
X161662336Y-35896602D01*
X161836151Y-35859656D01*
X162013849Y-35859656D01*
X162187664Y-35896602D01*
G37*
G36*
X164727664Y-35896602D02*
G01*
X164890000Y-35968878D01*
X165033761Y-36073327D01*
X165152664Y-36205383D01*
X165241514Y-36359274D01*
X165296425Y-36528275D01*
X165315000Y-36705000D01*
X165296425Y-36881725D01*
X165241514Y-37050726D01*
X165152664Y-37204617D01*
X165033761Y-37336673D01*
X164890000Y-37441122D01*
X164727664Y-37513398D01*
X164553849Y-37550344D01*
X164376151Y-37550344D01*
X164202336Y-37513398D01*
X164040000Y-37441122D01*
X163896239Y-37336673D01*
X163777336Y-37204617D01*
X163688486Y-37050726D01*
X163633575Y-36881725D01*
X163615000Y-36705000D01*
X163633575Y-36528275D01*
X163688486Y-36359274D01*
X163777336Y-36205383D01*
X163896239Y-36073327D01*
X164040000Y-35968878D01*
X164202336Y-35896602D01*
X164376151Y-35859656D01*
X164553849Y-35859656D01*
X164727664Y-35896602D01*
G37*
G36*
X162187664Y-33356602D02*
G01*
X162350000Y-33428878D01*
X162493761Y-33533327D01*
X162612664Y-33665383D01*
X162701514Y-33819274D01*
X162756425Y-33988275D01*
X162775000Y-34165000D01*
X162756425Y-34341725D01*
X162701514Y-34510726D01*
X162612664Y-34664617D01*
X162493761Y-34796673D01*
X162350000Y-34901122D01*
X162187664Y-34973398D01*
X162013849Y-35010344D01*
X161836151Y-35010344D01*
X161662336Y-34973398D01*
X161500000Y-34901122D01*
X161356239Y-34796673D01*
X161237336Y-34664617D01*
X161148486Y-34510726D01*
X161093575Y-34341725D01*
X161075000Y-34165000D01*
X161093575Y-33988275D01*
X161148486Y-33819274D01*
X161237336Y-33665383D01*
X161356239Y-33533327D01*
X161500000Y-33428878D01*
X161662336Y-33356602D01*
X161836151Y-33319656D01*
X162013849Y-33319656D01*
X162187664Y-33356602D01*
G37*
G36*
X164727664Y-33356602D02*
G01*
X164890000Y-33428878D01*
X165033761Y-33533327D01*
X165152664Y-33665383D01*
X165241514Y-33819274D01*
X165296425Y-33988275D01*
X165315000Y-34165000D01*
X165296425Y-34341725D01*
X165241514Y-34510726D01*
X165152664Y-34664617D01*
X165033761Y-34796673D01*
X164890000Y-34901122D01*
X164727664Y-34973398D01*
X164553849Y-35010344D01*
X164376151Y-35010344D01*
X164202336Y-34973398D01*
X164040000Y-34901122D01*
X163896239Y-34796673D01*
X163777336Y-34664617D01*
X163688486Y-34510726D01*
X163633575Y-34341725D01*
X163615000Y-34165000D01*
X163633575Y-33988275D01*
X163688486Y-33819274D01*
X163777336Y-33665383D01*
X163896239Y-33533327D01*
X164040000Y-33428878D01*
X164202336Y-33356602D01*
X164376151Y-33319656D01*
X164553849Y-33319656D01*
X164727664Y-33356602D01*
G37*
G36*
X162187664Y-30816602D02*
G01*
X162350000Y-30888878D01*
X162493761Y-30993327D01*
X162612664Y-31125383D01*
X162701514Y-31279274D01*
X162756425Y-31448275D01*
X162775000Y-31625000D01*
X162756425Y-31801725D01*
X162701514Y-31970726D01*
X162612664Y-32124617D01*
X162493761Y-32256673D01*
X162350000Y-32361122D01*
X162187664Y-32433398D01*
X162013849Y-32470344D01*
X161836151Y-32470344D01*
X161662336Y-32433398D01*
X161500000Y-32361122D01*
X161356239Y-32256673D01*
X161237336Y-32124617D01*
X161148486Y-31970726D01*
X161093575Y-31801725D01*
X161075000Y-31625000D01*
X161093575Y-31448275D01*
X161148486Y-31279274D01*
X161237336Y-31125383D01*
X161356239Y-30993327D01*
X161500000Y-30888878D01*
X161662336Y-30816602D01*
X161836151Y-30779656D01*
X162013849Y-30779656D01*
X162187664Y-30816602D01*
G37*
G36*
X164727664Y-30816602D02*
G01*
X164890000Y-30888878D01*
X165033761Y-30993327D01*
X165152664Y-31125383D01*
X165241514Y-31279274D01*
X165296425Y-31448275D01*
X165315000Y-31625000D01*
X165296425Y-31801725D01*
X165241514Y-31970726D01*
X165152664Y-32124617D01*
X165033761Y-32256673D01*
X164890000Y-32361122D01*
X164727664Y-32433398D01*
X164553849Y-32470344D01*
X164376151Y-32470344D01*
X164202336Y-32433398D01*
X164040000Y-32361122D01*
X163896239Y-32256673D01*
X163777336Y-32124617D01*
X163688486Y-31970726D01*
X163633575Y-31801725D01*
X163615000Y-31625000D01*
X163633575Y-31448275D01*
X163688486Y-31279274D01*
X163777336Y-31125383D01*
X163896239Y-30993327D01*
X164040000Y-30888878D01*
X164202336Y-30816602D01*
X164376151Y-30779656D01*
X164553849Y-30779656D01*
X164727664Y-30816602D01*
G37*
G36*
X162187664Y-28276602D02*
G01*
X162350000Y-28348878D01*
X162493761Y-28453327D01*
X162612664Y-28585383D01*
X162701514Y-28739274D01*
X162756425Y-28908275D01*
X162775000Y-29085000D01*
X162756425Y-29261725D01*
X162701514Y-29430726D01*
X162612664Y-29584617D01*
X162493761Y-29716673D01*
X162350000Y-29821122D01*
X162187664Y-29893398D01*
X162013849Y-29930344D01*
X161836151Y-29930344D01*
X161662336Y-29893398D01*
X161500000Y-29821122D01*
X161356239Y-29716673D01*
X161237336Y-29584617D01*
X161148486Y-29430726D01*
X161093575Y-29261725D01*
X161075000Y-29085000D01*
X161093575Y-28908275D01*
X161148486Y-28739274D01*
X161237336Y-28585383D01*
X161356239Y-28453327D01*
X161500000Y-28348878D01*
X161662336Y-28276602D01*
X161836151Y-28239656D01*
X162013849Y-28239656D01*
X162187664Y-28276602D01*
G37*
G36*
X164727664Y-28276602D02*
G01*
X164890000Y-28348878D01*
X165033761Y-28453327D01*
X165152664Y-28585383D01*
X165241514Y-28739274D01*
X165296425Y-28908275D01*
X165315000Y-29085000D01*
X165296425Y-29261725D01*
X165241514Y-29430726D01*
X165152664Y-29584617D01*
X165033761Y-29716673D01*
X164890000Y-29821122D01*
X164727664Y-29893398D01*
X164553849Y-29930344D01*
X164376151Y-29930344D01*
X164202336Y-29893398D01*
X164040000Y-29821122D01*
X163896239Y-29716673D01*
X163777336Y-29584617D01*
X163688486Y-29430726D01*
X163633575Y-29261725D01*
X163615000Y-29085000D01*
X163633575Y-28908275D01*
X163688486Y-28739274D01*
X163777336Y-28585383D01*
X163896239Y-28453327D01*
X164040000Y-28348878D01*
X164202336Y-28276602D01*
X164376151Y-28239656D01*
X164553849Y-28239656D01*
X164727664Y-28276602D01*
G37*
G36*
X162187664Y-25736602D02*
G01*
X162350000Y-25808878D01*
X162493761Y-25913327D01*
X162612664Y-26045383D01*
X162701514Y-26199274D01*
X162756425Y-26368275D01*
X162775000Y-26545000D01*
X162756425Y-26721725D01*
X162701514Y-26890726D01*
X162612664Y-27044617D01*
X162493761Y-27176673D01*
X162350000Y-27281122D01*
X162187664Y-27353398D01*
X162013849Y-27390344D01*
X161836151Y-27390344D01*
X161662336Y-27353398D01*
X161500000Y-27281122D01*
X161356239Y-27176673D01*
X161237336Y-27044617D01*
X161148486Y-26890726D01*
X161093575Y-26721725D01*
X161075000Y-26545000D01*
X161093575Y-26368275D01*
X161148486Y-26199274D01*
X161237336Y-26045383D01*
X161356239Y-25913327D01*
X161500000Y-25808878D01*
X161662336Y-25736602D01*
X161836151Y-25699656D01*
X162013849Y-25699656D01*
X162187664Y-25736602D01*
G37*
G36*
X164727664Y-25736602D02*
G01*
X164890000Y-25808878D01*
X165033761Y-25913327D01*
X165152664Y-26045383D01*
X165241514Y-26199274D01*
X165296425Y-26368275D01*
X165315000Y-26545000D01*
X165296425Y-26721725D01*
X165241514Y-26890726D01*
X165152664Y-27044617D01*
X165033761Y-27176673D01*
X164890000Y-27281122D01*
X164727664Y-27353398D01*
X164553849Y-27390344D01*
X164376151Y-27390344D01*
X164202336Y-27353398D01*
X164040000Y-27281122D01*
X163896239Y-27176673D01*
X163777336Y-27044617D01*
X163688486Y-26890726D01*
X163633575Y-26721725D01*
X163615000Y-26545000D01*
X163633575Y-26368275D01*
X163688486Y-26199274D01*
X163777336Y-26045383D01*
X163896239Y-25913327D01*
X164040000Y-25808878D01*
X164202336Y-25736602D01*
X164376151Y-25699656D01*
X164553849Y-25699656D01*
X164727664Y-25736602D01*
G37*
G36*
X162187664Y-23196602D02*
G01*
X162350000Y-23268878D01*
X162493761Y-23373327D01*
X162612664Y-23505383D01*
X162701514Y-23659274D01*
X162756425Y-23828275D01*
X162775000Y-24005000D01*
X162756425Y-24181725D01*
X162701514Y-24350726D01*
X162612664Y-24504617D01*
X162493761Y-24636673D01*
X162350000Y-24741122D01*
X162187664Y-24813398D01*
X162013849Y-24850344D01*
X161836151Y-24850344D01*
X161662336Y-24813398D01*
X161500000Y-24741122D01*
X161356239Y-24636673D01*
X161237336Y-24504617D01*
X161148486Y-24350726D01*
X161093575Y-24181725D01*
X161075000Y-24005000D01*
X161093575Y-23828275D01*
X161148486Y-23659274D01*
X161237336Y-23505383D01*
X161356239Y-23373327D01*
X161500000Y-23268878D01*
X161662336Y-23196602D01*
X161836151Y-23159656D01*
X162013849Y-23159656D01*
X162187664Y-23196602D01*
G37*
G36*
X164727664Y-23196602D02*
G01*
X164890000Y-23268878D01*
X165033761Y-23373327D01*
X165152664Y-23505383D01*
X165241514Y-23659274D01*
X165296425Y-23828275D01*
X165315000Y-24005000D01*
X165296425Y-24181725D01*
X165241514Y-24350726D01*
X165152664Y-24504617D01*
X165033761Y-24636673D01*
X164890000Y-24741122D01*
X164727664Y-24813398D01*
X164553849Y-24850344D01*
X164376151Y-24850344D01*
X164202336Y-24813398D01*
X164040000Y-24741122D01*
X163896239Y-24636673D01*
X163777336Y-24504617D01*
X163688486Y-24350726D01*
X163633575Y-24181725D01*
X163615000Y-24005000D01*
X163633575Y-23828275D01*
X163688486Y-23659274D01*
X163777336Y-23505383D01*
X163896239Y-23373327D01*
X164040000Y-23268878D01*
X164202336Y-23196602D01*
X164376151Y-23159656D01*
X164553849Y-23159656D01*
X164727664Y-23196602D01*
G37*
G36*
X162187664Y-20656602D02*
G01*
X162350000Y-20728878D01*
X162493761Y-20833327D01*
X162612664Y-20965383D01*
X162701514Y-21119274D01*
X162756425Y-21288275D01*
X162775000Y-21465000D01*
X162756425Y-21641725D01*
X162701514Y-21810726D01*
X162612664Y-21964617D01*
X162493761Y-22096673D01*
X162350000Y-22201122D01*
X162187664Y-22273398D01*
X162013849Y-22310344D01*
X161836151Y-22310344D01*
X161662336Y-22273398D01*
X161500000Y-22201122D01*
X161356239Y-22096673D01*
X161237336Y-21964617D01*
X161148486Y-21810726D01*
X161093575Y-21641725D01*
X161075000Y-21465000D01*
X161093575Y-21288275D01*
X161148486Y-21119274D01*
X161237336Y-20965383D01*
X161356239Y-20833327D01*
X161500000Y-20728878D01*
X161662336Y-20656602D01*
X161836151Y-20619656D01*
X162013849Y-20619656D01*
X162187664Y-20656602D01*
G37*
G36*
X164727664Y-20656602D02*
G01*
X164890000Y-20728878D01*
X165033761Y-20833327D01*
X165152664Y-20965383D01*
X165241514Y-21119274D01*
X165296425Y-21288275D01*
X165315000Y-21465000D01*
X165296425Y-21641725D01*
X165241514Y-21810726D01*
X165152664Y-21964617D01*
X165033761Y-22096673D01*
X164890000Y-22201122D01*
X164727664Y-22273398D01*
X164553849Y-22310344D01*
X164376151Y-22310344D01*
X164202336Y-22273398D01*
X164040000Y-22201122D01*
X163896239Y-22096673D01*
X163777336Y-21964617D01*
X163688486Y-21810726D01*
X163633575Y-21641725D01*
X163615000Y-21465000D01*
X163633575Y-21288275D01*
X163688486Y-21119274D01*
X163777336Y-20965383D01*
X163896239Y-20833327D01*
X164040000Y-20728878D01*
X164202336Y-20656602D01*
X164376151Y-20619656D01*
X164553849Y-20619656D01*
X164727664Y-20656602D01*
G37*
G36*
X162775000Y-19775000D02*
G01*
X161075000Y-19775000D01*
X161075000Y-18075000D01*
X162775000Y-18075000D01*
X162775000Y-19775000D01*
G37*
G36*
X164727664Y-18116602D02*
G01*
X164890000Y-18188878D01*
X165033761Y-18293327D01*
X165152664Y-18425383D01*
X165241514Y-18579274D01*
X165296425Y-18748275D01*
X165315000Y-18925000D01*
X165296425Y-19101725D01*
X165241514Y-19270726D01*
X165152664Y-19424617D01*
X165033761Y-19556673D01*
X164890000Y-19661122D01*
X164727664Y-19733398D01*
X164553849Y-19770344D01*
X164376151Y-19770344D01*
X164202336Y-19733398D01*
X164040000Y-19661122D01*
X163896239Y-19556673D01*
X163777336Y-19424617D01*
X163688486Y-19270726D01*
X163633575Y-19101725D01*
X163615000Y-18925000D01*
X163633575Y-18748275D01*
X163688486Y-18579274D01*
X163777336Y-18425383D01*
X163896239Y-18293327D01*
X164040000Y-18188878D01*
X164202336Y-18116602D01*
X164376151Y-18079656D01*
X164553849Y-18079656D01*
X164727664Y-18116602D01*
G37*
M02*
