M48
; DRILL file {KiCad 7.0.6} date Wed Aug  2 14:23:42 2023
; FORMAT={-:-/ absolute / inch / decimal}
; #@! TF.CreationDate,2023-08-02T14:23:42+01:00
; #@! TF.GenerationSoftware,Kicad,Pcbnew,7.0.6
; #@! TF.FileFunction,Plated,1,2,PTH
FMAT,2
INCH
; #@! TA.AperFunction,Plated,PTH,ComponentDrill
T1C0.0394
%
G90
G05
T1
X6.375Y-0.7451
X6.375Y-0.8451
X6.375Y-0.9451
X6.375Y-1.0451
X6.375Y-1.1451
X6.375Y-1.2451
X6.375Y-1.3451
X6.375Y-1.4451
X6.375Y-1.5451
X6.375Y-1.6451
X6.375Y-1.7451
X6.375Y-1.8451
X6.375Y-1.9451
X6.375Y-2.0451
X6.375Y-2.1451
X6.375Y-2.2451
X6.475Y-0.7451
X6.475Y-0.8451
X6.475Y-0.9451
X6.475Y-1.0451
X6.475Y-1.1451
X6.475Y-1.2451
X6.475Y-1.3451
X6.475Y-1.4451
X6.475Y-1.5451
X6.475Y-1.6451
X6.475Y-1.7451
X6.475Y-1.8451
X6.475Y-1.9451
X6.475Y-2.0451
X6.475Y-2.1451
X6.475Y-2.2451
T0
M30
